SplineFontDB: 3.2
FontName: Inconsolata-SemiCondensed
FullName: Inconsolata Semi Condensed
FamilyName: Inconsolata Semi Condensed
Weight: Book
Copyright: Copyright 2006 The Inconsolata Project Authors (https://github.com/cyrealtype/Inconsolata)
Version: 3.000; ttfautohint (v1.8.3)
ItalicAngle: -9
UnderlinePosition: -297
UnderlineWidth: 102
Ascent: 1802
Descent: 246
InvalidEm: 0
sfntRevision: 0x00030000
LayerCount: 2
Layer: 0 1 "Back" 1
Layer: 1 1 "Fore" 0
XUID: [1021 741 -1841480126 15345]
StyleMap: 0x0040
FSType: 0
OS2Version: 4
OS2_WeightWidthSlopeOnly: 0
OS2_UseTypoMetrics: 1
CreationTime: 1576097233
ModificationTime: 1732402468
PfmFamily: 81
TTFWeight: 400
TTFWidth: 4
LineGap: 0
VLineGap: 0
Panose: 0 0 0 0 0 0 0 0 0 0
OS2TypoAscent: 1759
OS2TypoAOffset: 0
OS2TypoDescent: -389
OS2TypoDOffset: 0
OS2TypoLinegap: 0
OS2WinAscent: 2056
OS2WinAOffset: 0
OS2WinDescent: 930
OS2WinDOffset: 0
HheadAscent: 1759
HheadAOffset: 0
HheadDescent: -389
HheadDOffset: 0
OS2SubXSize: 1331
OS2SubYSize: 1229
OS2SubXOff: 0
OS2SubYOff: 154
OS2SupXSize: 1331
OS2SupYSize: 1229
OS2SupXOff: 0
OS2SupYOff: 717
OS2StrikeYSize: 102
OS2StrikeYPos: 561
OS2CapHeight: 1276
OS2XHeight: 936
OS2Vendor: 'CYRE'
OS2CodePages: 60000193.cdd40000
OS2UnicodeRanges: a00000ff.0000f9eb.00000020.00000000
Lookup: 1 0 0 "'aalt' Access All Alternates in Latin lookup 0" { "'aalt' Access All Alternates in Latin lookup 0 subtable"  } ['aalt' ('DFLT' <'dflt' > 'latn' <'AZE ' 'CAT ' 'CRT ' 'KAZ ' 'MOL ' 'ROM ' 'TAT ' 'TRK ' 'dflt' > ) ]
Lookup: 3 0 0 "'aalt' Access All Alternates in Latin lookup 1" { "'aalt' Access All Alternates in Latin lookup 1 subtable"  } ['aalt' ('DFLT' <'dflt' > 'latn' <'AZE ' 'CAT ' 'CRT ' 'KAZ ' 'MOL ' 'ROM ' 'TAT ' 'TRK ' 'dflt' > ) ]

StartChar: A
Encoding: 65 65 1
Width: 907
VWidth: 2441
GlyphClass: 2
Flags: HW
AnchorPoint: "Anchor-3" 657 0 basechar 0
AnchorPoint: "Anchor-2" 358 0 basechar 0
AnchorPoint: "Anchor-0" 598.902 1521 basechar 0
LayerCount: 2
Fore
SplineSet
536.55859375 1140 m 1,0,-1
 302.229492188 576 l 1,1,-1
 591.229492188 576 l 1,2,-1
 536.55859375 1140 l 1,0,-1
649 0 m 1,3,-1
 605.481445312 445 l 1,4,-1
 247.481445312 445 l 1,5,-1
 63 0 l 1,6,-1
 -71 0 l 1,7,-1
 591.020507812 1547 l 1,8,-1
 615.020507812 1547 l 1,9,-1
 787 0 l 1,10,-1
 649 0 l 1,3,-1
EndSplineSet
Substitution2: "Single Substitution lookup 29 subtable" ordfeminine
Substitution2: "'aalt' Access All Alternates in Latin lookup 0 subtable" ordfeminine
EndChar

StartChar: AE
Encoding: 198 198 26
Width: 867
VWidth: 2441
GlyphClass: 1
Flags: HW
LayerCount: 2
Fore
SplineSet
239.427734375 552 m 1,0,-1
 437.427734375 552 l 1,1,-1
 575.303710938 1372 l 1,2,-1
 555.303710938 1372 l 1,3,-1
 239.427734375 552 l 1,0,-1
-91 0 m 1,4,-1
 499.219726562 1523 l 1,5,-1
 1008.21972656 1523 l 1,6,-1
 984.620117188 1374 l 1,7,-1
 686.620117188 1374 l 1,8,-1
 606.635742188 869 l 1,9,-1
 856.635742188 869 l 1,10,-1
 832.719726562 718 l 1,11,-1
 582.719726562 718 l 1,12,-1
 492.599609375 149 l 1,13,-1
 786.599609375 149 l 1,14,-1
 763 0 l 1,15,-1
 350 0 l 1,16,-1
 415.729492188 415 l 1,17,-1
 192.729492188 415 l 1,18,-1
 30 0 l 1,19,-1
 -91 0 l 1,4,-1
EndSplineSet
EndChar

StartChar: B
Encoding: 66 66 28
Width: 922
VWidth: 2441
GlyphClass: 2
Flags: HW
AnchorPoint: "Anchor-2" 362 0 basechar 0
AnchorPoint: "Anchor-0" 602.902 1521 basechar 0
LayerCount: 2
Fore
SplineSet
115.282226562 147 m 1,0,-1
 355.282226562 147 l 2,1,2
 490.282226562 147 490.282226562 147 584.15625 212.5 c 128,-1,3
 678.03125 278 678.03125 278 703.213867188 437 c 0,4,5
 724.913085938 574 724.913085938 574 662.11328125 660.5 c 128,-1,6
 599.313476562 747 599.313476562 747 414.313476562 747 c 2,7,-1
 210.313476562 747 l 1,8,-1
 115.282226562 147 l 1,0,-1
233.279296875 892 m 1,9,-1
 431.279296875 892 l 2,10,11
 602.279296875 892 602.279296875 892 678.048828125 960 c 128,-1,12
 753.819335938 1028 753.819335938 1028 770.291015625 1132 c 0,13,14
 786.129882812 1232 786.129882812 1232 733.770507812 1305.5 c 128,-1,15
 681.412109375 1379 681.412109375 1379 529.412109375 1379 c 2,16,-1
 310.412109375 1379 l 1,17,-1
 233.279296875 892 l 1,9,-1
-62 0 m 1,18,-1
 178.90234375 1521 l 1,19,-1
 551.90234375 1521 l 2,20,21
 771.90234375 1521 771.90234375 1521 863.459960938 1423.5 c 128,-1,22
 955.017578125 1326 955.017578125 1326 927.6171875 1153 c 0,23,24
 908.76953125 1034 908.76953125 1034 844.356445312 943 c 128,-1,25
 779.943359375 852 779.943359375 852 680.083007812 815 c 1,26,27
 782.431640625 773 782.431640625 773 833.642578125 667 c 128,-1,28
 884.853515625 561 884.853515625 561 863.629882812 427 c 0,29,30
 832.270507812 229 832.270507812 229 696.134765625 114.5 c 128,-1,31
 560 0 560 0 309 0 c 2,32,-1
 -62 0 l 1,18,-1
EndSplineSet
EndChar

StartChar: C
Encoding: 67 67 29
Width: 922
VWidth: 2441
GlyphClass: 2
Flags: HW
AnchorPoint: "Anchor-2" 417 0 basechar 0
AnchorPoint: "Anchor-0" 637.902 1521 basechar 0
LayerCount: 2
Fore
SplineSet
424.19921875 -24 m 0,0,1
 288.19921875 -24 288.19921875 -24 190.790039062 55.5 c 128,-1,2
 93.3818359375 135 93.3818359375 135 54.544921875 306.5 c 128,-1,3
 15.7080078125 478 15.7080078125 478 57.10546875 752 c 0,4,5
 92.900390625 978 92.900390625 978 160.395507812 1129.5 c 128,-1,6
 227.890625 1281 227.890625 1281 312.407226562 1369.5 c 128,-1,7
 396.924804688 1458 396.924804688 1458 488.364257812 1495.5 c 128,-1,8
 579.803710938 1533 579.803710938 1533 663.803710938 1533 c 0,9,10
 797.803710938 1533 797.803710938 1533 882.607421875 1456 c 128,-1,11
 967.412109375 1379 967.412109375 1379 993.6640625 1248 c 1,12,-1
 861.943359375 1174 l 1,13,-1
 840.04296875 1162 l 1,14,-1
 835.735351562 1179 l 1,15,16
 842.744140625 1198 842.744140625 1198 841.516601562 1215.5 c 128,-1,17
 840.288085938 1233 840.288085938 1233 828.1484375 1270 c 1,18,19
 791.02734375 1345 791.02734375 1345 742.565429688 1370.5 c 128,-1,20
 694.104492188 1396 694.104492188 1396 638.104492188 1396 c 0,21,22
 484.104492188 1396 484.104492188 1396 368.208984375 1232.5 c 128,-1,23
 252.3125 1069 252.3125 1069 204.005859375 764 c 0,24,25
 172.645507812 566 172.645507812 566 195.337890625 422 c 128,-1,26
 218.03125 278 218.03125 278 282.676757812 200 c 128,-1,27
 347.323242188 122 347.323242188 122 443.323242188 122 c 0,28,29
 517.323242188 122 517.323242188 122 591.6875 168.5 c 128,-1,30
 666.052734375 215 666.052734375 215 719.515625 300 c 1,31,-1
 812.577148438 212 l 1,32,33
 734.046875 95 734.046875 95 639.623046875 35.5 c 128,-1,34
 545.19921875 -24 545.19921875 -24 424.19921875 -24 c 0,0,1
EndSplineSet
EndChar

StartChar: D
Encoding: 68 68 36
Width: 922
VWidth: 2441
GlyphClass: 2
Flags: HW
AnchorPoint: "Anchor-4" 473.688 762 basechar 0
AnchorPoint: "Anchor-2" 353 0 basechar 0
AnchorPoint: "Anchor-0" 530.902 1521 basechar 0
LayerCount: 2
Fore
SplineSet
108.907226562 132 m 1,0,-1
 235.907226562 132 l 2,1,2
 458.907226562 132 458.907226562 132 587.248046875 292 c 0,3,4
 713.145507812 448.952148438 713.145507812 448.952148438 757.969726562 731.961914062 c 0,5,6
 758.83984375 737.45703125 758.83984375 737.45703125 759.6796875 743 c 0,7,8
 806.561523438 1039 806.561523438 1039 740.486328125 1209 c 128,-1,9
 674.412109375 1379 674.412109375 1379 456.412109375 1379 c 2,10,-1
 306.412109375 1379 l 1,11,-1
 108.907226562 132 l 1,0,-1
-62.31640625 -2 m 1,12,-1
 178.90234375 1521 l 1,13,-1
 486.90234375 1521 l 2,14,15
 654.90234375 1521 654.90234375 1521 741.587890625 1468.5 c 128,-1,16
 828.272460938 1416 828.272460938 1416 877.43359375 1316 c 0,17,18
 973.07421875 1118 973.07421875 1118 915.10546875 752 c 1,19,20
 870.884765625 517 870.884765625 517 785.276367188 349 c 128,-1,21
 699.66796875 181 699.66796875 181 562.17578125 89.5 c 128,-1,22
 424.68359375 -2 424.68359375 -2 218.68359375 -2 c 2,23,-1
 -62.31640625 -2 l 1,12,-1
EndSplineSet
EndChar

StartChar: Eth
Encoding: 208 208 37
Width: 922
VWidth: 2441
GlyphClass: 1
Flags: HW
LayerCount: 2
Fore
SplineSet
189.015625 139 m 1,0,-1
 300.015625 139 l 2,1,2
 487.015625 139 487.015625 139 608.357421875 299 c 128,-1,3
 729.698242188 459 729.698242188 459 775.313476562 747 c 0,4,5
 821.719726562 1040 821.719726562 1040 761.907226562 1208.5 c 128,-1,6
 702.095703125 1377 702.095703125 1377 517.095703125 1377 c 2,7,-1
 385.095703125 1377 l 1,8,-1
 305.745117188 876 l 1,9,-1
 503.745117188 876 l 1,10,-1
 481.25390625 734 l 1,11,-1
 283.25390625 734 l 1,12,-1
 189.015625 139 l 1,0,-1
31.68359375 -2 m 1,13,-1
 148.25390625 734 l 1,14,-1
 54.25390625 734 l 1,15,-1
 76.7451171875 876 l 1,16,-1
 170.745117188 876 l 1,17,-1
 272.90234375 1521 l 1,18,-1
 546.90234375 1521 l 2,19,20
 668.90234375 1521 668.90234375 1521 742.330078125 1479.5 c 128,-1,21
 815.756835938 1438 815.756835938 1438 855.3828125 1372.5 c 128,-1,22
 895.008789062 1307 895.008789062 1307 912.604492188 1235 c 0,23,24
 930.418945312 1177 930.418945312 1177 937.5703125 1058 c 128,-1,25
 944.72265625 939 944.72265625 939 915.580078125 755 c 0,26,27
 857.294921875 387 857.294921875 387 691.489257812 192.5 c 128,-1,28
 525.68359375 -2 525.68359375 -2 281.68359375 -2 c 2,29,-1
 31.68359375 -2 l 1,13,-1
EndSplineSet
EndChar

StartChar: E
Encoding: 69 69 42
Width: 903
VWidth: 2441
GlyphClass: 2
Flags: HW
AnchorPoint: "Anchor-3" 799.801 24 basechar 0
AnchorPoint: "Anchor-2" 358 0 basechar 0
AnchorPoint: "Anchor-0" 619.902 1521 basechar 0
LayerCount: 2
Fore
SplineSet
-62 0 m 1,0,-1
 179.219726562 1523 l 1,1,-1
 1018.21972656 1523 l 1,2,-1
 994.620117188 1374 l 1,3,-1
 309.620117188 1374 l 1,4,-1
 229.635742188 869 l 1,5,-1
 795.635742188 869 l 1,6,-1
 771.719726562 718 l 1,7,-1
 205.719726562 718 l 1,8,-1
 115.599609375 149 l 1,9,-1
 795.599609375 149 l 1,10,-1
 772 0 l 1,11,-1
 -62 0 l 1,0,-1
EndSplineSet
EndChar

StartChar: uni01B8
Encoding: 440 440 65
Width: 853
VWidth: 2441
GlyphClass: 1
Flags: HW
LayerCount: 2
Fore
SplineSet
368.723632812 -27 m 0,0,1
 224.723632812 -27 224.723632812 -27 137.7265625 33 c 128,-1,2
 50.7294921875 93 50.7294921875 93 17.9638671875 195.5 c 128,-1,3
 -14.8017578125 298 -14.8017578125 298 4.521484375 420 c 0,4,5
 25.9033203125 555 25.9033203125 555 96.3505859375 662 c 128,-1,6
 166.797851562 769 166.797851562 769 272.750976562 835 c 128,-1,7
 378.704101562 901 378.704101562 901 503.813476562 908 c 1,8,-1
 193.986328125 1370 l 1,9,-1
 217.90234375 1521 l 1,10,-1
 888.90234375 1521 l 1,11,-1
 864.986328125 1370 l 1,12,-1
 369.986328125 1370 l 1,13,-1
 670.813476562 908 l 1,14,-1
 650.698242188 781 l 1,15,16
 625.635742188 782.57421875 625.635742188 782.57421875 601.666015625 782.57421875 c 0,17,18
 442.865234375 782.57421875 442.865234375 782.57421875 332.006835938 713.5 c 0,19,20
 204.416015625 634 204.416015625 634 172.421875 432 c 0,21,22
 149.139648438 285 149.139648438 285 208.834960938 201 c 128,-1,23
 268.53125 117 268.53125 117 408.53125 117 c 0,24,25
 469.53125 117 469.53125 117 513.9609375 135.5 c 128,-1,26
 558.391601562 154 558.391601562 154 597.250976562 191 c 0,27,28
 626.319335938 223 626.319335938 223 637.774414062 238.5 c 128,-1,29
 649.229492188 254 649.229492188 254 650.555664062 275 c 1,30,-1
 662.08984375 291 l 1,31,-1
 680.239257812 273 l 1,32,-1
 749.490234375 142 l 1,33,34
 665.869140625 56 665.869140625 56 569.796875 14.5 c 128,-1,35
 473.723632812 -27 473.723632812 -27 368.723632812 -27 c 0,0,1
EndSplineSet
EndChar

StartChar: F
Encoding: 70 70 66
Width: 853
VWidth: 2441
GlyphClass: 2
Flags: HW
AnchorPoint: "Anchor-2" 317 0 basechar 0
AnchorPoint: "Anchor-0" 557.902 1521 basechar 0
LayerCount: 2
Fore
SplineSet
-62 0 m 1,0,-1
 179.219726562 1523 l 1,1,-1
 968.219726562 1523 l 1,2,-1
 945.095703125 1377 l 1,3,-1
 318.095703125 1377 l 1,4,-1
 241.595703125 894 l 1,5,-1
 745.595703125 894 l 1,6,-1
 722.788085938 750 l 1,7,-1
 218.788085938 750 l 1,8,-1
 100 0 l 1,9,-1
 -62 0 l 1,0,-1
EndSplineSet
EndChar

StartChar: G
Encoding: 71 71 67
Width: 922
VWidth: 2441
GlyphClass: 2
Flags: HW
AnchorPoint: "Anchor-2" 402 0 basechar 0
AnchorPoint: "Anchor-0" 661.902 1521 basechar 0
LayerCount: 2
Fore
SplineSet
421.19921875 -24 m 0,0,1
 271.19921875 -24 271.19921875 -24 176.849609375 68.5 c 128,-1,2
 82.5 161 82.5 161 50.2421875 333 c 128,-1,3
 17.984375 505 17.984375 505 55.6796875 743 c 0,4,5
 57.2080078125 753.163085938 57.2080078125 753.163085938 58.79296875 763.171875 c 0,6,7
 96.0439453125 998.3671875 96.0439453125 998.3671875 164.825195312 1148 c 0,8,9
 236.533203125 1304 236.533203125 1304 325.575195312 1389.5 c 128,-1,10
 414.6171875 1475 414.6171875 1475 503.106445312 1506.5 c 128,-1,11
 591.595703125 1538 591.595703125 1538 664.595703125 1538 c 0,12,13
 778.278320312 1536 778.278320312 1536 871.008789062 1468 c 128,-1,14
 963.73828125 1400 963.73828125 1400 996.157226562 1289 c 1,15,-1
 880.5859375 1197 l 1,16,-1
 858.735351562 1179 l 1,17,-1
 851.953125 1193 l 1,18,19
 856.961914062 1212 856.961914062 1212 853.3125 1230 c 128,-1,20
 849.6640625 1248 849.6640625 1248 831.573242188 1279 c 0,21,22
 795.443359375 1335 795.443359375 1335 750.719726562 1362 c 128,-1,23
 705.99609375 1389 705.99609375 1389 638.99609375 1389 c 0,24,25
 548.99609375 1389 548.99609375 1389 463.78515625 1334 c 128,-1,26
 378.573242188 1279 378.573242188 1279 312.508789062 1146 c 128,-1,27
 246.443359375 1013 246.443359375 1013 209.22265625 778 c 0,28,29
 159.015625 461 159.015625 461 223.327148438 292.5 c 128,-1,30
 287.639648438 124 287.639648438 124 444.639648438 124 c 0,31,32
 498.639648438 124 498.639648438 124 566.965820312 145 c 128,-1,33
 635.291992188 166 635.291992188 166 690.577148438 212 c 1,34,-1
 749.337890625 583 l 1,35,-1
 524.337890625 583 l 1,36,-1
 547.145507812 727 l 1,37,-1
 911.145507812 727 l 1,38,-1
 816.907226562 132 l 1,39,40
 614.19921875 -24 614.19921875 -24 421.19921875 -24 c 0,0,1
EndSplineSet
EndChar

StartChar: H
Encoding: 72 72 74
Width: 922
VWidth: 2441
GlyphClass: 2
Flags: HW
AnchorPoint: "Anchor-4" 548.688 762 basechar 0
AnchorPoint: "Anchor-2" 428 0 basechar 0
AnchorPoint: "Anchor-0" 668.902 1521 basechar 0
LayerCount: 2
Fore
SplineSet
178.90234375 1521 m 1,0,-1
 362.90234375 1521 l 1,1,-1
 360.209960938 1504 l 1,2,3
 343.993164062 1490 343.993164062 1490 338.799804688 1473 c 128,-1,4
 333.607421875 1456 333.607421875 1456 326.956054688 1414 c 2,5,-1
 240.953125 871 l 1,6,-1
 750.953125 871 l 1,7,-1
 853.90234375 1521 l 1,8,-1
 1036.90234375 1521 l 1,9,-1
 1034.20996094 1504 l 1,10,11
 1019.99316406 1490 1019.99316406 1490 1013.79980469 1473 c 128,-1,12
 1007.60742188 1456 1007.60742188 1456 1000.95605469 1414 c 2,13,-1
 777 0 l 1,14,-1
 610 0 l 1,15,-1
 724.829101562 725 l 1,16,-1
 217.829101562 725 l 1,17,-1
 103 0 l 1,18,-1
 -62 0 l 1,19,-1
 178.90234375 1521 l 1,0,-1
EndSplineSet
EndChar

StartChar: Hbar
Encoding: 294 294 75
Width: 882
VWidth: 2441
GlyphClass: 2
Flags: HW
AnchorPoint: "Anchor-4" 513.688 762 basechar 0
AnchorPoint: "Anchor-2" 393 0 basechar 0
AnchorPoint: "Anchor-0" 633.902 1521 basechar 0
LayerCount: 2
Fore
SplineSet
259.953125 871 m 1,0,-1
 683.953125 871 l 1,1,-1
 738.595703125 1216 l 1,2,-1
 314.595703125 1216 l 1,3,-1
 259.953125 871 l 1,0,-1
100.595703125 1216 m 1,4,-1
 121.977539062 1351 l 1,5,-1
 199.977539062 1351 l 1,6,-1
 226.90234375 1521 l 1,7,-1
 379.90234375 1521 l 1,8,-1
 377.209960938 1504 l 1,9,10
 362.993164062 1490 362.993164062 1490 357.799804688 1473 c 128,-1,11
 352.607421875 1456 352.607421875 1456 345.956054688 1414 c 2,12,-1
 335.977539062 1351 l 1,13,-1
 759.977539062 1351 l 1,14,-1
 786.90234375 1521 l 1,15,-1
 938.90234375 1521 l 1,16,-1
 936.209960938 1504 l 1,17,18
 923.993164062 1490 923.993164062 1490 918.799804688 1473 c 128,-1,19
 913.607421875 1456 913.607421875 1456 906.956054688 1414 c 2,20,-1
 896.977539062 1351 l 1,21,-1
 979.977539062 1351 l 1,22,-1
 958.595703125 1216 l 1,23,-1
 875.595703125 1216 l 1,24,-1
 683 0 l 1,25,-1
 544 0 l 1,26,-1
 658.829101562 725 l 1,27,-1
 236.829101562 725 l 1,28,-1
 122 0 l 1,29,-1
 -14 0 l 1,30,-1
 178.595703125 1216 l 1,31,-1
 100.595703125 1216 l 1,4,-1
EndSplineSet
EndChar

StartChar: I
Encoding: 73 73 79
Width: 771
VWidth: 2441
GlyphClass: 2
Flags: HW
AnchorPoint: "Anchor-3" 535 0 basechar 0
AnchorPoint: "Anchor-2" 309 0 basechar 0
AnchorPoint: "Anchor-0" 524.902 1521 basechar 0
LayerCount: 2
Fore
SplineSet
-62 0 m 1,0,-1
 -39.509765625 142 l 1,1,-1
 226.490234375 142 l 1,2,-1
 422.412109375 1379 l 1,3,-1
 170.412109375 1379 l 1,4,-1
 192.90234375 1521 l 1,5,-1
 871.90234375 1521 l 1,6,-1
 849.412109375 1379 l 1,7,-1
 583.412109375 1379 l 1,8,-1
 387.015625 139 l 1,9,-1
 667.015625 139 l 1,10,-1
 645 0 l 1,11,-1
 -62 0 l 1,0,-1
EndSplineSet
EndChar

StartChar: J
Encoding: 74 74 94
Width: 922
VWidth: 2441
GlyphClass: 2
Flags: HW
AnchorPoint: "Anchor-2" 360 0 basechar 0
AnchorPoint: "Anchor-0" 767.902 1521 basechar 0
LayerCount: 2
Fore
SplineSet
240.723632812 -27 m 0,0,1
 53.7236328125 -27 53.7236328125 -27 -41.0927734375 132 c 1,2,-1
 63.6552734375 263 l 1,3,-1
 80.9814453125 284 l 1,4,-1
 93.5556640625 275 l 1,5,6
 92.2294921875 254 92.2294921875 254 96.6416015625 234.5 c 128,-1,7
 101.052734375 215 101.052734375 215 123.459960938 186 c 0,8,9
 182.481445312 123 182.481445312 123 264.323242188 122 c 0,10,11
 366.323242188 122 366.323242188 122 428.102539062 209 c 128,-1,12
 489.881835938 296 489.881835938 296 523.458984375 508 c 2,13,-1
 661.412109375 1379 l 1,14,-1
 412.412109375 1379 l 1,15,-1
 434.90234375 1521 l 1,16,-1
 1036.90234375 1521 l 1,17,-1
 1014.41210938 1379 l 1,18,-1
 814.412109375 1379 l 1,19,-1
 676.776367188 510 l 1,20,21
 674.357421875 491.834960938 674.357421875 491.834960938 671.586914062 474.338867188 c 0,22,23
 644.15234375 301.12890625 644.15234375 301.12890625 582.147460938 193.5 c 0,24,25
 513.87890625 75 513.87890625 75 423.80078125 24 c 128,-1,26
 333.723632812 -27 333.723632812 -27 240.723632812 -27 c 0,0,1
EndSplineSet
EndChar

StartChar: K
Encoding: 75 75 96
Width: 922
VWidth: 2441
GlyphClass: 1
Flags: HW
LayerCount: 2
Fore
SplineSet
310.580078125 755 m 1,0,-1
 191.514648438 622 l 1,1,-1
 93 0 l 1,2,-1
 -62 0 l 1,3,-1
 178.90234375 1521 l 1,4,-1
 354.90234375 1521 l 1,5,-1
 352.209960938 1504 l 1,6,7
 336.993164062 1490 336.993164062 1490 330.299804688 1473 c 128,-1,8
 323.607421875 1456 323.607421875 1456 316.956054688 1414 c 2,9,-1
 223.350585938 823 l 1,10,-1
 845.803710938 1533 l 1,11,12
 894.90234375 1521 894.90234375 1521 955.90234375 1521 c 2,13,-1
 1006.90234375 1521 l 1,14,-1
 437.051757812 859 l 1,15,-1
 796 0 l 1,16,-1
 609.416015625 -10 l 1,17,-1
 310.580078125 755 l 1,0,-1
EndSplineSet
EndChar

StartChar: uni0198
Encoding: 408 408 98
Width: 922
VWidth: 2441
GlyphClass: 1
Flags: HW
LayerCount: 2
Fore
SplineSet
178.90234375 1521 m 1,0,-1
 354.90234375 1521 l 1,1,-1
 352.209960938 1504 l 1,2,3
 336.993164062 1490 336.993164062 1490 330.299804688 1473 c 128,-1,4
 323.607421875 1456 323.607421875 1456 316.956054688 1414 c 2,5,-1
 220.658203125 806 l 1,6,7
 393.213867188 1081 393.213867188 1081 527.659179688 1238.5 c 128,-1,8
 662.104492188 1396 662.104492188 1396 768.295898438 1463.5 c 128,-1,9
 874.486328125 1531 874.486328125 1531 959.486328125 1531 c 0,10,11
 999.486328125 1531 999.486328125 1531 1025.90234375 1521 c 1,12,-1
 996.02734375 1345 l 1,13,-1
 992.225585938 1321 l 1,14,-1
 979.225585938 1321 l 1,15,16
 970.443359375 1335 970.443359375 1335 957.52734375 1345 c 128,-1,17
 944.611328125 1355 944.611328125 1355 911.0859375 1358 c 2,18,-1
 905.0859375 1358 l 2,19,20
 883.0859375 1358 883.0859375 1358 849.369140625 1344 c 128,-1,21
 815.651367188 1330 815.651367188 1330 760.524414062 1285 c 128,-1,22
 705.396484375 1240 705.396484375 1240 623.24609375 1147.5 c 128,-1,23
 541.095703125 1055 541.095703125 1055 420.387695312 899 c 1,24,-1
 796 0 l 1,25,-1
 609.416015625 -10 l 1,26,-1
 309.788085938 750 l 1,27,28
 249.642578125 667 249.642578125 667 183.4375 571 c 1,29,-1
 93 0 l 1,30,-1
 -62 0 l 1,31,-1
 178.90234375 1521 l 1,0,-1
EndSplineSet
EndChar

StartChar: L
Encoding: 76 76 99
Width: 887
VWidth: 2441
GlyphClass: 2
Flags: HW
AnchorPoint: "Anchor-4" 149.688 762 basechar 0
AnchorPoint: "Anchor-2" 343 0 basechar 0
AnchorPoint: "Anchor-1" 366.757 1116 basechar 0
AnchorPoint: "Anchor-0" 474.902 1521 basechar 0
LayerCount: 2
Fore
SplineSet
178.90234375 1521 m 1,0,-1
 366.90234375 1521 l 1,1,-1
 364.209960938 1504 l 1,2,3
 347.993164062 1490 347.993164062 1490 341.299804688 1473 c 128,-1,4
 334.607421875 1456 334.607421875 1456 327.956054688 1414 c 2,5,-1
 127.282226562 147 l 1,6,-1
 784.282226562 147 l 1,7,-1
 761 0 l 1,8,-1
 -62 0 l 1,9,-1
 178.90234375 1521 l 1,0,-1
EndSplineSet
EndChar

StartChar: uni01C7
Encoding: 455 455 100
Width: 859
VWidth: 2380
GlyphClass: 1
Flags: HW
LayerCount: 2
Fore
SplineSet
-46.478515625 98 m 1,0,-1
 178.90234375 1521 l 1,1,-1
 354.90234375 1521 l 1,2,3
 352.368164062 1505 352.368164062 1505 346.814453125 1501.5 c 128,-1,4
 341.259765625 1498 341.259765625 1498 334.333984375 1489 c 128,-1,5
 327.409179688 1480 327.409179688 1480 321.548828125 1443 c 2,6,-1
 130.37890625 236 l 1,7,-1
 470.37890625 236 l 1,8,-1
 448.521484375 98 l 1,9,-1
 -46.478515625 98 l 1,0,-1
353.037109375 -246 m 0,10,11
 170.037109375 -246 170.037109375 -246 70.478515625 -98 c 1,12,-1
 192.2265625 33 l 1,13,14
 209.692382812 17 209.692382812 17 207 0 c 128,-1,15
 204.307617188 -17 204.307617188 -17 221.505859375 -41 c 0,16,17
 234.338867188 -61 234.338867188 -61 272.93359375 -82.5 c 128,-1,18
 311.528320312 -104 311.528320312 -104 370.528320312 -104 c 0,19,20
 466.528320312 -104 466.528320312 -104 528.119140625 -24.5 c 128,-1,21
 589.7109375 55 589.7109375 55 621.071289062 253 c 2,22,-1
 800.837890625 1388 l 1,23,-1
 543.837890625 1388 l 1,24,-1
 564.90234375 1521 l 1,25,-1
 973.90234375 1521 l 1,26,-1
 773.546875 256 l 1,27,28
 771.567382812 241.504882812 771.567382812 241.504882812 769.34375 227.46484375 c 0,0,0
 743.4921875 64.2470703125 743.4921875 64.2470703125 684.560546875 -37.5 c 128,-1,29
 620.559570312 -148 620.559570312 -148 532.297851562 -197 c 128,-1,30
 444.037109375 -246 444.037109375 -246 353.037109375 -246 c 0,10,11
EndSplineSet
EndChar

StartChar: Lcaron
Encoding: 317 317 102
Width: 887
VWidth: 2441
GlyphClass: 2
Flags: HW
AnchorPoint: "Anchor-4" 149.688 762 basechar 0
AnchorPoint: "Anchor-2" 343 0 basechar 0
AnchorPoint: "Anchor-1" 366.757 1116 basechar 0
AnchorPoint: "Anchor-0" 474.902 1521 basechar 0
LayerCount: 2
Fore
SplineSet
178.90234375 1521 m 1,0,-1
 366.90234375 1521 l 1,1,-1
 364.209960938 1504 l 1,2,3
 347.993164062 1490 347.993164062 1490 341.299804688 1473 c 128,-1,4
 334.607421875 1456 334.607421875 1456 327.956054688 1414 c 2,5,-1
 127.282226562 147 l 1,6,-1
 784.282226562 147 l 1,7,-1
 761 0 l 1,8,-1
 -62 0 l 1,9,-1
 178.90234375 1521 l 1,0,-1
698.334960938 1006 m 1,10,-1
 642.204101562 1062 l 1,11,12
 701.282226562 1113 701.282226562 1113 742.651367188 1169 c 128,-1,13
 784.020507812 1225 784.020507812 1225 789.880859375 1262 c 0,14,15
 794.157226562 1289 794.157226562 1289 774.404296875 1309.5 c 128,-1,16
 754.651367188 1330 754.651367188 1330 736.03125 1354.5 c 128,-1,17
 717.412109375 1379 717.412109375 1379 722.956054688 1414 c 0,18,19
 730.716796875 1463 730.716796875 1463 766.205078125 1494.5 c 128,-1,20
 801.694335938 1526 801.694335938 1526 848.694335938 1526 c 0,21,22
 894.694335938 1526 894.694335938 1526 924.54296875 1484 c 128,-1,23
 954.39453125 1441.99414062 954.39453125 1441.99414062 942.737304688 1368.38964844 c 0,24,25
 918.740234375 1216.87792969 918.740234375 1216.87792969 698.334960938 1006 c 1,10,-1
EndSplineSet
EndChar

StartChar: uni01C8
Encoding: 456 456 106
Width: 809
VWidth: 2365
GlyphClass: 1
Flags: HW
LayerCount: 2
Fore
SplineSet
264.037109375 -246 m 0,0,1
 173.037109375 -246 173.037109375 -246 108.66015625 -210.5 c 128,-1,2
 44.283203125 -175 44.283203125 -175 1.2109375 -106 c 1,3,-1
 123.384765625 34 l 1,4,5
 134.009765625 19 134.009765625 19 134.658203125 1 c 128,-1,6
 135.307617188 -17 135.307617188 -17 147.481445312 -38 c 128,-1,7
 159.655273438 -59 159.655273438 -59 204.37890625 -86 c 0,8,9
 242.89453125 -108 242.89453125 -108 296.89453125 -108 c 0,10,11
 383.89453125 -108 383.89453125 -108 453.373046875 -45 c 128,-1,12
 522.850585938 18 522.850585938 18 548.66796875 181 c 2,13,-1
 682.977539062 1029 l 1,14,-1
 402.977539062 1029 l 1,15,-1
 423.409179688 1158 l 1,16,-1
 856.409179688 1158 l 1,17,-1
 703.092773438 190 l 2,18,19
 678.54296875 35 678.54296875 35 614.497070312 -60 c 128,-1,20
 550.450195312 -155 550.450195312 -155 459.560546875 -198.5 c 128,-1,21
 368.670898438 -242 368.670898438 -242 264.037109375 -246 c 0,0,1
-39.66796875 141 m 1,22,-1
 180.01171875 1528 l 1,23,-1
 351.01171875 1528 l 1,24,25
 347.52734375 1506 347.52734375 1506 335.833984375 1489 c 128,-1,26
 324.141601562 1472 324.141601562 1472 320.815429688 1451 c 2,27,-1
 134.872070312 277 l 1,28,-1
 450.872070312 277 l 1,29,-1
 429.33203125 141 l 1,30,-1
 -39.66796875 141 l 1,22,-1
794.620117188 1374 m 0,31,32
 752.620117188 1374 752.620117188 1374 726.188476562 1406 c 128,-1,33
 699.756835938 1438 699.756835938 1438 706.883789062 1483 c 0,34,35
 714.328125 1530 714.328125 1530 749.396484375 1562 c 128,-1,36
 784.46484375 1594 784.46484375 1594 829.46484375 1594 c 128,-1,37
 874.46484375 1594 874.46484375 1594 899.73828125 1561 c 128,-1,38
 925.01171875 1528 925.01171875 1528 917.883789062 1483 c 128,-1,39
 910.756835938 1438 910.756835938 1438 875.188476562 1406 c 128,-1,40
 839.620117188 1374 839.620117188 1374 794.620117188 1374 c 0,31,32
EndSplineSet
EndChar

StartChar: Lslash
Encoding: 321 321 108
Width: 922
VWidth: 2441
GlyphClass: 1
Flags: HW
LayerCount: 2
Fore
SplineSet
43 0 m 1,0,-1
 137.080078125 594 l 1,1,-1
 25.427734375 552 l 1,2,-1
 49.02734375 701 l 1,3,-1
 160.99609375 745 l 1,4,-1
 283.90234375 1521 l 1,5,-1
 452.90234375 1521 l 2,6,7
 459.90234375 1521 459.90234375 1521 458.110351562 1516 c 0,8,9
 456.52734375 1506 456.52734375 1506 445.625976562 1494 c 128,-1,10
 434.725585938 1482 434.725585938 1482 422.756835938 1438 c 1,11,-1
 321.866210938 801 l 1,12,-1
 674.614257812 932 l 2,13,14
 690.72265625 939 690.72265625 939 705.252929688 945.5 c 128,-1,15
 719.782226562 952 719.782226562 952 728.57421875 957 c 1,16,-1
 703.866210938 801 l 1,17,-1
 298.266601562 652 l 1,18,-1
 218.282226562 147 l 1,19,-1
 819.282226562 147 l 1,20,-1
 796 0 l 1,21,-1
 43 0 l 1,0,-1
EndSplineSet
EndChar

StartChar: M
Encoding: 77 77 109
Width: 922
VWidth: 2441
GlyphClass: 2
Flags: HW
AnchorPoint: "Anchor-2" 365 0 basechar 0
AnchorPoint: "Anchor-0" 605.902 1521 basechar 0
LayerCount: 2
Fore
SplineSet
-62 0 m 1,0,-1
 178.90234375 1521 l 1,1,-1
 296.90234375 1521 l 1,2,-1
 490.440429688 792 l 1,3,-1
 921.219726562 1523 l 1,4,-1
 1037.21972656 1523 l 1,5,-1
 796 0 l 1,6,-1
 655 0 l 1,7,-1
 834.291015625 1132 l 1,8,-1
 467.735351562 535 l 1,9,-1
 412.735351562 535 l 1,10,-1
 255.182617188 1125 l 1,11,-1
 77 0 l 1,12,-1
 -62 0 l 1,0,-1
EndSplineSet
EndChar

StartChar: N
Encoding: 78 78 111
Width: 922
VWidth: 2441
GlyphClass: 2
Flags: HW
AnchorPoint: "Anchor-2" 359 0 basechar 0
AnchorPoint: "Anchor-0" 599.902 1521 basechar 0
LayerCount: 2
Fore
SplineSet
178.90234375 1521 m 1,0,-1
 325.90234375 1521 l 1,1,-1
 691.62109375 408 l 1,2,-1
 867.90234375 1521 l 1,3,-1
 1036.90234375 1521 l 1,4,-1
 1034.20996094 1504 l 1,5,6
 1017.99316406 1490 1017.99316406 1490 1011.29980469 1473 c 128,-1,7
 1004.60742188 1456 1004.60742188 1456 997.956054688 1414 c 2,8,-1
 774 0 l 1,9,-1
 653 0 l 1,10,-1
 270.051757812 1181 l 1,11,-1
 83 0 l 1,12,-1
 -62 0 l 1,13,-1
 178.90234375 1521 l 1,0,-1
EndSplineSet
EndChar

StartChar: Eng
Encoding: 330 330 117
Width: 863
VWidth: 2344
GlyphClass: 2
Flags: HW
AnchorPoint: "Anchor-2" 357.184 159 basechar 0
AnchorPoint: "Anchor-0" 572.902 1521 basechar 0
LayerCount: 2
Fore
SplineSet
825.90234375 1521 m 1,0,-1
 977.90234375 1521 l 1,1,2
 975.84375 1508 975.84375 1508 967.1015625 1497 c 128,-1,3
 958.359375 1486 958.359375 1486 954.557617188 1462 c 2,4,-1
 748.18359375 159 l 2,5,6
 715.239257812 -49 715.239257812 -49 616.638671875 -147.5 c 128,-1,7
 518.037109375 -246 518.037109375 -246 383.037109375 -246 c 0,8,9
 289.037109375 -246 289.037109375 -246 218.58984375 -192 c 1,10,-1
 310.130859375 -56 l 1,11,12
 326.1796875 -62 326.1796875 -62 331.779296875 -74 c 128,-1,13
 337.37890625 -86 337.37890625 -86 352.13671875 -97 c 128,-1,14
 366.89453125 -108 366.89453125 -108 408.89453125 -108 c 0,15,16
 500.89453125 -108 500.89453125 -108 545.510742188 -31.5 c 128,-1,17
 590.126953125 45 590.126953125 45 617.78515625 207 c 1,18,-1
 266.75390625 1217 l 1,19,-1
 99.18359375 159 l 1,20,-1
 -36.81640625 159 l 1,21,-1
 178.90234375 1521 l 1,22,-1
 318.90234375 1521 l 1,23,-1
 667.993164062 524 l 1,24,-1
 825.90234375 1521 l 1,0,-1
EndSplineSet
EndChar

StartChar: O
Encoding: 79 79 120
Width: 922
VWidth: 2441
GlyphClass: 2
Flags: HW
AnchorPoint: "Anchor-4" 488.688 762 basechar 0
AnchorPoint: "Anchor-3" 440.801 24 basechar 0
AnchorPoint: "Anchor-2" 368 0 basechar 0
AnchorPoint: "Anchor-1" 840.856 1426 basechar 0
AnchorPoint: "Anchor-0" 608.902 1521 basechar 0
LayerCount: 2
Fore
SplineSet
386.84765625 119 m 128,-1,1
 518.84765625 119 518.84765625 119 618.897460938 274 c 128,-1,2
 718.947265625 429 718.947265625 429 770.10546875 752 c 0,3,4
 818.412109375 1057 818.412109375 1057 768.80859375 1220.5 c 128,-1,5
 719.204101562 1384 719.204101562 1384 587.204101562 1384 c 128,-1,6
 455.204101562 1384 455.204101562 1384 352.80859375 1220.5 c 128,-1,7
 250.412109375 1057 250.412109375 1057 202.10546875 752 c 0,8,9
 151.10546875 430 151.10546875 430 202.9765625 274.5 c 128,-1,0
 254.84765625 119 254.84765625 119 386.84765625 119 c 128,-1,1
363.723632812 -27 m 0,10,11
 156.723632812 -27 156.723632812 -27 76.1875 168.5 c 128,-1,12
 -4.34765625 364 -4.34765625 364 57.10546875 752 c 0,13,14
 116.657226562 1128 116.657226562 1128 259.572265625 1329.5 c 128,-1,15
 402.486328125 1531 402.486328125 1531 610.486328125 1531 c 0,16,17
 815.486328125 1531 815.486328125 1531 895.072265625 1329.5 c 128,-1,18
 974.657226562 1128 974.657226562 1128 915.10546875 752 c 0,19,20
 853.493164062 363 853.493164062 363 711.108398438 168 c 128,-1,21
 568.723632812 -27 568.723632812 -27 363.723632812 -27 c 0,10,11
EndSplineSet
Substitution2: "Single Substitution lookup 29 subtable" ordmasculine
Substitution2: "'aalt' Access All Alternates in Latin lookup 0 subtable" ordmasculine
EndChar

StartChar: Oslash
Encoding: 216 216 148
Width: 922
VWidth: 2441
GlyphClass: 2
Flags: HW
AnchorPoint: "Anchor-4" 488.688 762 basechar 0
AnchorPoint: "Anchor-3" 440.801 24 basechar 0
AnchorPoint: "Anchor-2" 368 0 basechar 0
AnchorPoint: "Anchor-1" 840.856 1426 basechar 0
AnchorPoint: "Anchor-0" 608.902 1521 basechar 0
LayerCount: 2
Fore
SplineSet
386.84765625 119 m 0,0,1
 518.84765625 119 518.84765625 119 618.897460938 274 c 128,-1,2
 718.947265625 429 718.947265625 429 770.10546875 752 c 0,3,4
 813.34375 1025 813.34375 1025 777.84375 1186 c 1,5,-1
 222.686523438 219 l 1,6,7
 278.84765625 119 278.84765625 119 386.84765625 119 c 0,0,1
202.10546875 752 m 0,8,9
 161.875 498 161.875 498 187.642578125 345 c 1,10,-1
 734.741210938 1299 l 1,11,12
 682.96484375 1384.01171875 682.96484375 1384.01171875 589.385742188 1384.01171875 c 0,13,14
 588.297851562 1384.01171875 588.297851562 1384.01171875 587.204101562 1384 c 0,15,16
 455.204101562 1384 455.204101562 1384 352.80859375 1220.5 c 128,-1,17
 250.412109375 1057 250.412109375 1057 202.10546875 752 c 0,8,9
39.6865234375 -103 m 1,18,-1
 -42.869140625 -56 l 1,19,-1
 81.18359375 159 l 1,20,21
 -5.45703125 357 -5.45703125 357 57.10546875 752 c 0,22,23
 116.657226562 1128 116.657226562 1128 259.572265625 1329.5 c 128,-1,24
 402.486328125 1531 402.486328125 1531 610.486328125 1531 c 0,25,26
 740.486328125 1531 740.486328125 1531 821.182617188 1447 c 1,27,-1
 944.709960938 1665 l 1,28,-1
 1022.6328125 1614 l 1,29,-1
 880.194335938 1365 l 1,30,31
 980.04296875 1162 980.04296875 1162 915.10546875 752 c 0,32,33
 853.493164062 363 853.493164062 363 710.608398438 168 c 128,-1,34
 567.723632812 -27 567.723632812 -27 363.723632812 -27 c 0,35,36
 218.723632812 -27 218.723632812 -27 136.770507812 68 c 1,37,-1
 39.6865234375 -103 l 1,18,-1
EndSplineSet
EndChar

StartChar: OE
Encoding: 338 338 154
Width: 894
VWidth: 2441
GlyphClass: 1
Flags: HW
LayerCount: 2
Fore
SplineSet
243.907226562 132 m 0,0,1
 289.907226562 132 289.907226562 132 333.563476562 183.5 c 128,-1,2
 377.220703125 235 377.220703125 235 400.890625 315 c 1,3,-1
 538.52734375 1184 l 1,4,5
 532.1484375 1270 532.1484375 1270 509.6015625 1336 c 128,-1,6
 487.0546875 1402 487.0546875 1402 431.0546875 1402 c 0,7,8
 385.0546875 1402 385.0546875 1402 337.606445312 1345.5 c 128,-1,9
 290.157226562 1289 290.157226562 1289 245.142578125 1150 c 128,-1,10
 200.126953125 1011 200.126953125 1011 161.005859375 764 c 0,11,12
 113.490234375 464 113.490234375 464 134.698242188 298 c 128,-1,13
 155.907226562 132 155.907226562 132 243.907226562 132 c 0,0,1
204.307617188 -17 m 0,14,15
 72.3076171875 -17 72.3076171875 -17 21.6337890625 165 c 128,-1,16
 -29.041015625 347 -29.041015625 347 36.6884765625 762 c 0,17,18
 100.201171875 1163 100.201171875 1163 207.793945312 1353 c 128,-1,19
 315.38671875 1543 315.38671875 1543 453.38671875 1543 c 0,20,21
 491.38671875 1543 491.38671875 1543 525.298828125 1523.5 c 128,-1,22
 559.209960938 1504 559.209960938 1504 583.607421875 1456 c 1,23,-1
 594.219726562 1523 l 1,24,-1
 1015.21972656 1523 l 1,25,-1
 991.620117188 1374 l 1,26,-1
 691.620117188 1374 l 1,27,-1
 611.635742188 869 l 1,28,-1
 865.635742188 869 l 1,29,-1
 841.719726562 718 l 1,30,-1
 587.719726562 718 l 1,31,-1
 497.599609375 149 l 1,32,-1
 793.599609375 149 l 1,33,-1
 770 0 l 1,34,-1
 351 0 l 1,35,-1
 362.5625 73 l 1,36,37
 322.80078125 24 322.80078125 24 284.5546875 3.5 c 128,-1,38
 246.307617188 -17 246.307617188 -17 204.307617188 -17 c 0,14,15
EndSplineSet
EndChar

StartChar: P
Encoding: 80 80 155
Width: 922
VWidth: 2441
GlyphClass: 2
Flags: HW
AnchorPoint: "Anchor-2" 15 0 basechar 0
AnchorPoint: "Anchor-0" 592.902 1521 basechar 0
LayerCount: 2
Fore
SplineSet
230.875 820 m 1,0,-1
 488.875 820 l 2,1,2
 634.875 820 634.875 820 712.016601562 893.5 c 128,-1,3
 789.158203125 967 789.158203125 967 808.322265625 1088 c 0,4,5
 827.169921875 1207 827.169921875 1207 774.182617188 1286 c 128,-1,6
 721.194335938 1365 721.194335938 1365 577.194335938 1365 c 2,7,-1
 317.194335938 1365 l 1,8,-1
 230.875 820 l 1,0,-1
-62 0 m 1,9,-1
 178.90234375 1521 l 1,10,-1
 606.90234375 1521 l 2,11,12
 833.90234375 1521 833.90234375 1521 916.080078125 1399 c 128,-1,13
 998.256835938 1277 998.256835938 1277 969.272460938 1094 c 0,14,15
 939.813476562 908 939.813476562 908 819.544921875 789.5 c 128,-1,16
 699.276367188 671 699.276367188 671 483.276367188 671 c 2,17,-1
 207.276367188 671 l 1,18,-1
 101 0 l 1,19,-1
 -62 0 l 1,9,-1
EndSplineSet
EndChar

StartChar: Thorn
Encoding: 222 222 156
Width: 922
VWidth: 2441
GlyphClass: 1
Flags: HW
LayerCount: 2
Fore
SplineSet
180.260742188 532 m 1,0,-1
 459.260742188 532 l 2,1,2
 599.260742188 532 599.260742188 532 671.693359375 610.5 c 128,-1,3
 744.126953125 689 744.126953125 689 761.866210938 801 c 128,-1,4
 779.60546875 913 779.60546875 913 728.013671875 994.5 c 128,-1,5
 676.421875 1076 676.421875 1076 531.421875 1076 c 2,6,-1
 266.421875 1076 l 1,7,-1
 180.260742188 532 l 1,0,-1
-62 0 m 1,8,-1
 178.90234375 1521 l 1,9,-1
 354.90234375 1521 l 1,10,11
 359.110351562 1516 359.110351562 1516 358.793945312 1514 c 0,12,13
 357.685546875 1507 357.685546875 1507 345.651367188 1491 c 128,-1,14
 333.6171875 1475 333.6171875 1475 326.1328125 1453 c 1,15,-1
 291.288085938 1233 l 1,16,-1
 565.288085938 1233 l 2,17,18
 712.288085938 1233 712.288085938 1233 797.680664062 1175.5 c 128,-1,19
 883.07421875 1118 883.07421875 1118 912.630859375 1020.5 c 128,-1,20
 942.188476562 923 942.188476562 923 923.658203125 806 c 128,-1,21
 905.126953125 689 905.126953125 689 846.23828125 595 c 128,-1,22
 787.350585938 501 787.350585938 501 685.481445312 445 c 128,-1,23
 583.611328125 389 583.611328125 389 436.611328125 389 c 2,24,-1
 157.611328125 389 l 1,25,-1
 96 0 l 1,26,-1
 -62 0 l 1,8,-1
EndSplineSet
EndChar

StartChar: Q
Encoding: 81 81 157
Width: 922
VWidth: 2388
GlyphClass: 2
Flags: HW
AnchorPoint: "Anchor-2" 380.779 87 basechar 0
AnchorPoint: "Anchor-0" 608.062 1522 basechar 0
LayerCount: 2
Fore
SplineSet
411.577148438 212 m 0,0,1
 477.577148438 212 477.577148438 212 551.129882812 266 c 128,-1,2
 624.682617188 320 624.682617188 320 686.84765625 441 c 128,-1,3
 749.01171875 562 749.01171875 562 781.005859375 764 c 0,4,5
 811.256835938 955 811.256835938 955 802.817382812 1078.5 c 128,-1,6
 794.377929688 1202 794.377929688 1202 761.46484375 1272 c 128,-1,7
 728.551757812 1342 728.551757812 1342 682.565429688 1370.5 c 128,-1,8
 636.580078125 1399 636.580078125 1399 590.580078125 1399 c 0,9,10
 493.580078125 1399 493.580078125 1399 417.122070312 1323.5 c 128,-1,11
 340.6640625 1248 340.6640625 1248 287.732421875 1119 c 128,-1,12
 234.80078125 990 234.80078125 990 209.775390625 832 c 0,13,14
 163.844726562 542 163.844726562 542 217.7109375 377 c 128,-1,15
 271.577148438 212 271.577148438 212 411.577148438 212 c 0,0,1
621.196289062 -245 m 1,16,17
 596.415039062 -246.407226562 596.415039062 -246.407226562 573.770507812 -246.407226562 c 0,18,19
 419.379882812 -246.407226562 419.379882812 -246.407226562 364.33203125 -181 c 0,20,21
 301.2109375 -106 301.2109375 -106 329.245117188 71 c 1,22,23
 233.096679688 89 233.096679688 89 159.504882812 170.5 c 128,-1,24
 85.9130859375 252 85.9130859375 252 56.462890625 407 c 128,-1,25
 27.01171875 562 27.01171875 562 64.232421875 797 c 0,26,27
 98.6015625 1014 98.6015625 1014 161.092773438 1156 c 128,-1,28
 223.583007812 1298 223.583007812 1298 302.966796875 1382.5 c 128,-1,29
 382.349609375 1467 382.349609375 1467 461.97265625 1502.5 c 128,-1,30
 541.595703125 1538 541.595703125 1538 612.595703125 1538 c 0,31,32
 721.595703125 1538 721.595703125 1538 809.875 1464 c 128,-1,33
 898.154296875 1390 898.154296875 1390 933.654296875 1229 c 0,34,35
 966.969726562 1077.90722656 966.969726562 1077.90722656 928.532226562 835.221679688 c 0,36,37
 926.01171875 819.307617188 926.01171875 819.307617188 923.182617188 803 c 1,38,39
 871.07421875 474 871.07421875 474 753.381835938 296 c 128,-1,40
 635.689453125 118 635.689453125 118 453.245117188 71 c 1,41,42
 445.208007812 -5 445.208007812 -5 465.026367188 -53.5 c 128,-1,43
 484.844726562 -102 484.844726562 -102 566.844726562 -102 c 1,44,-1
 725.270507812 -93 l 1,45,-1
 697.196289062 -245 l 1,46,-1
 621.196289062 -245 l 1,16,17
EndSplineSet
EndChar

StartChar: R
Encoding: 82 82 158
Width: 922
VWidth: 2441
GlyphClass: 2
Flags: HW
AnchorPoint: "Anchor-2" 347 0 basechar 0
AnchorPoint: "Anchor-0" 587.902 1521 basechar 0
LayerCount: 2
Fore
SplineSet
224.875 820 m 1,0,-1
 469.875 820 l 2,1,2
 604.875 820 604.875 820 680.516601562 893.5 c 128,-1,3
 756.158203125 967 756.158203125 967 775.322265625 1088 c 0,4,5
 794.645507812 1210 794.645507812 1210 742.419921875 1287.5 c 128,-1,6
 690.194335938 1365 690.194335938 1365 556.194335938 1365 c 2,7,-1
 311.194335938 1365 l 1,8,-1
 224.875 820 l 1,0,-1
-62 0 m 1,9,-1
 178.90234375 1521 l 1,10,-1
 563.90234375 1521 l 2,11,12
 794.90234375 1521 794.90234375 1521 878.133789062 1402.5 c 128,-1,13
 961.365234375 1284 961.365234375 1284 930.322265625 1088 c 0,14,15
 915.909179688 997 915.909179688 997 870.446289062 912 c 128,-1,16
 824.984375 827 824.984375 827 755.6640625 765 c 128,-1,17
 686.344726562 703 686.344726562 703 600.859375 681 c 1,18,-1
 796 0 l 1,19,-1
 626 0 l 1,20,-1
 439.750976562 674 l 1,21,-1
 201.750976562 674 l 1,22,-1
 95 0 l 1,23,-1
 -62 0 l 1,9,-1
EndSplineSet
EndChar

StartChar: S
Encoding: 83 83 166
Width: 922
VWidth: 2441
GlyphClass: 2
Flags: HW
AnchorPoint: "Anchor-2" 353 0 basechar 0
AnchorPoint: "Anchor-0" 623.902 1521 basechar 0
LayerCount: 2
Fore
SplineSet
349.19921875 -24 m 0,0,1
 91.19921875 -24 91.19921875 -24 -36.18359375 163 c 1,2,-1
 65 322 l 1,3,-1
 78.642578125 345 l 1,4,-1
 93.3759765625 337 l 1,5,6
 97.3662109375 318 97.3662109375 318 97.802734375 295.5 c 128,-1,7
 98.2392578125 273 98.2392578125 273 118.329101562 242 c 1,8,9
 162.250976562 191 162.250976562 191 230.603515625 158.5 c 128,-1,10
 298.956054688 126 298.956054688 126 391.956054688 126 c 0,11,12
 509.956054688 126 509.956054688 126 599.255859375 200.5 c 128,-1,13
 688.555664062 275 688.555664062 275 706.928710938 391 c 0,14,15
 717.698242188 459 717.698242188 459 702.458984375 508 c 128,-1,16
 687.219726562 557 687.219726562 557 629.743164062 604.5 c 128,-1,17
 572.266601562 652 572.266601562 652 458.927734375 713 c 1,18,19
 265.658203125 806 265.658203125 806 205.29296875 920.5 c 128,-1,20
 144.927734375 1035 144.927734375 1035 165.517578125 1165 c 0,21,22
 193.235351562 1340 193.235351562 1340 316.573242188 1440 c 128,-1,23
 439.912109375 1540 439.912109375 1540 629.912109375 1540 c 0,24,25
 738.912109375 1540 738.912109375 1540 825.651367188 1491 c 128,-1,26
 912.390625 1442 912.390625 1442 967.611328125 1355 c 1,27,-1
 863.704101562 1223 l 1,28,-1
 848.6953125 1204 l 1,29,-1
 836.803710938 1211 l 1,30,31
 834.8125 1230 834.8125 1230 832.796875 1252 c 128,-1,32
 830.782226562 1274 830.782226562 1274 812.533203125 1304 c 1,33,34
 769.0859375 1358 769.0859375 1358 715.412109375 1379 c 128,-1,35
 661.73828125 1400 661.73828125 1400 583.73828125 1400 c 0,36,37
 479.73828125 1400 479.73828125 1400 410.259765625 1337 c 128,-1,38
 340.782226562 1274 340.782226562 1274 325.418945312 1177 c 0,39,40
 314.6484375 1109 314.6484375 1109 332.095703125 1055 c 128,-1,41
 349.54296875 1001 349.54296875 1001 410.46484375 950 c 128,-1,42
 471.387695312 899 471.387695312 899 595.04296875 840 c 0,43,44
 716.381835938 779 716.381835938 779 778.82421875 715.5 c 128,-1,45
 841.266601562 652 841.266601562 652 858.86328125 580 c 128,-1,46
 876.458984375 508 876.458984375 508 861.729492188 415 c 0,47,48
 844.307617188 305 844.307617188 305 783.310546875 204 c 128,-1,49
 722.313476562 103 722.313476562 103 613.755859375 39.5 c 128,-1,50
 505.19921875 -24 505.19921875 -24 349.19921875 -24 c 0,0,1
EndSplineSet
EndChar

StartChar: uni1E9E
Encoding: 7838 7838 177
Width: 922
VWidth: 2441
GlyphClass: 1
Flags: HW
LayerCount: 2
Fore
SplineSet
413.19921875 -24 m 0,0,1
 285.19921875 -24 285.19921875 -24 201.760742188 49 c 1,2,-1
 272.459960938 186 l 1,3,4
 304.708007812 156 304.708007812 156 344.33203125 141 c 128,-1,5
 383.956054688 126 383.956054688 126 422.956054688 126 c 0,6,7
 524.956054688 126 524.956054688 126 611.236328125 213 c 128,-1,8
 697.515625 300 697.515625 300 723.490234375 464 c 0,9,10
 736.319335938 545 736.319335938 545 723.619140625 619.5 c 128,-1,11
 710.918945312 694 710.918945312 694 650.942382812 741.5 c 128,-1,12
 590.96484375 789 590.96484375 789 460.96484375 789 c 2,13,-1
 397.96484375 789 l 1,14,-1
 419.822265625 927 l 1,15,-1
 750.704101562 1223 l 1,16,17
 761.791015625 1293 761.791015625 1293 751.53125 1354.5 c 128,-1,18
 741.272460938 1416 741.272460938 1416 699.44921875 1455 c 128,-1,19
 657.625976562 1494 657.625976562 1494 577.625976562 1494 c 0,20,21
 512.625976562 1494 512.625976562 1494 450.637695312 1462.5 c 128,-1,22
 388.6484375 1431 388.6484375 1431 339.506835938 1357.5 c 128,-1,23
 290.365234375 1284 290.365234375 1284 270.725585938 1160 c 2,24,-1
 87 0 l 1,25,-1
 -62 0 l 1,26,-1
 116.657226562 1128 l 2,27,28
 147.225585938 1321 147.225585938 1321 224.069335938 1430.5 c 128,-1,29
 300.912109375 1540 300.912109375 1540 400.27734375 1586.5 c 128,-1,30
 499.641601562 1633 499.641601562 1633 599.641601562 1633 c 0,31,32
 723.641601562 1633 723.641601562 1633 795.375976562 1574.5 c 128,-1,33
 867.110351562 1516 867.110351562 1516 891.66796875 1418.5 c 128,-1,34
 916.225585938 1321 916.225585938 1321 897.6953125 1204 c 1,35,-1
 569.713867188 920 l 1,36,37
 745.387695312 899 745.387695312 899 823.119140625 780.5 c 128,-1,38
 900.850585938 662 900.850585938 662 866.005859375 442 c 0,39,40
 840.189453125 279 840.189453125 279 772.637695312 174.5 c 128,-1,41
 705.086914062 70 705.086914062 70 610.142578125 23 c 128,-1,42
 515.19921875 -24 515.19921875 -24 413.19921875 -24 c 0,0,1
EndSplineSet
EndChar

StartChar: T
Encoding: 84 84 179
Width: 922
VWidth: 2441
GlyphClass: 2
Flags: HW
AnchorPoint: "Anchor-4" 482.688 762 basechar 0
AnchorPoint: "Anchor-2" 373 0 basechar 0
AnchorPoint: "Anchor-0" 613.902 1521 basechar 0
LayerCount: 2
Fore
SplineSet
287 0 m 1,0,-1
 504.303710938 1372 l 1,1,-1
 155.303710938 1372 l 1,2,-1
 179.219726562 1523 l 1,3,-1
 1037.21972656 1523 l 1,4,-1
 1013.30371094 1372 l 1,5,-1
 651.303710938 1372 l 1,6,-1
 434 0 l 1,7,-1
 287 0 l 1,0,-1
EndSplineSet
EndChar

StartChar: Tbar
Encoding: 358 358 180
Width: 922
VWidth: 2441
GlyphClass: 2
Flags: HW
AnchorPoint: "Anchor-4" 482.688 762 basechar 0
AnchorPoint: "Anchor-2" 373 0 basechar 0
AnchorPoint: "Anchor-0" 613.902 1521 basechar 0
LayerCount: 2
Fore
SplineSet
287 0 m 1,0,-1
 396.443359375 691 l 1,1,-1
 160.443359375 691 l 1,2,-1
 182.458984375 830 l 1,3,-1
 418.458984375 830 l 1,4,-1
 504.303710938 1372 l 1,5,-1
 155.303710938 1372 l 1,6,-1
 179.219726562 1523 l 1,7,-1
 1037.21972656 1523 l 1,8,-1
 1013.30371094 1372 l 1,9,-1
 651.303710938 1372 l 1,10,-1
 565.458984375 830 l 1,11,-1
 826.458984375 830 l 1,12,-1
 804.443359375 691 l 1,13,-1
 543.443359375 691 l 1,14,-1
 434 0 l 1,15,-1
 287 0 l 1,0,-1
EndSplineSet
EndChar

StartChar: U
Encoding: 85 85 186
Width: 922
VWidth: 2441
GlyphClass: 2
Flags: HW
AnchorPoint: "Anchor-3" 476.801 24 basechar 0
AnchorPoint: "Anchor-2" 362 0 basechar 0
AnchorPoint: "Anchor-1" 1036.9 1521 basechar 0
AnchorPoint: "Anchor-0" 602.902 1521 basechar 0
LayerCount: 2
Fore
SplineSet
360.723632812 -27 m 0,0,1
 144.723632812 -27 144.723632812 -27 61.4765625 113.5 c 128,-1,2
 -21.7705078125 254 -21.7705078125 254 19.568359375 515 c 2,3,-1
 178.90234375 1521 l 1,4,-1
 353.90234375 1521 l 1,5,-1
 351.209960938 1504 l 1,6,7
 334.993164062 1490 334.993164062 1490 328.299804688 1473 c 128,-1,8
 321.607421875 1456 321.607421875 1456 314.956054688 1414 c 2,9,-1
 172.250976562 513 l 2,10,11
 142.791992188 327 142.791992188 327 187.423828125 220.5 c 128,-1,12
 232.055664062 114 232.055664062 114 385.055664062 114 c 0,13,14
 540.055664062 114 540.055664062 114 618.8984375 223.5 c 128,-1,15
 697.7421875 333 697.7421875 333 727.360351562 520 c 2,16,-1
 885.90234375 1521 l 1,17,-1
 1036.90234375 1521 l 1,18,-1
 878.676757812 522 l 2,19,20
 833.061523438 234 833.061523438 234 696.892578125 103.5 c 128,-1,21
 560.723632812 -27 560.723632812 -27 360.723632812 -27 c 0,0,1
EndSplineSet
EndChar

StartChar: V
Encoding: 86 86 209
Width: 922
VWidth: 2441
GlyphClass: 2
Flags: HW
AnchorPoint: "Anchor-2" 364 0 basechar 0
AnchorPoint: "Anchor-0" 604.902 1521 basechar 0
LayerCount: 2
Fore
SplineSet
334.416015625 -10 m 1,0,-1
 179.219726562 1523 l 1,1,-1
 322.219726562 1523 l 1,2,-1
 437.077148438 373 l 1,3,-1
 899.90234375 1521 l 1,4,-1
 1036.90234375 1521 l 1,5,-1
 402.416015625 -10 l 1,6,-1
 334.416015625 -10 l 1,0,-1
EndSplineSet
EndChar

StartChar: W
Encoding: 87 87 210
Width: 897
VWidth: 2441
GlyphClass: 2
Flags: HW
AnchorPoint: "Anchor-2" 358 0 basechar 0
AnchorPoint: "Anchor-0" 608.902 1521 basechar 0
LayerCount: 2
Fore
SplineSet
107 0 m 1,0,-1
 165.90234375 1521 l 1,1,-1
 289.90234375 1521 l 1,2,-1
 248.884765625 517 l 1,3,-1
 569.1640625 1409 l 1,4,-1
 614.1640625 1409 l 1,5,-1
 651.250976562 513 l 1,6,-1
 911.90234375 1521 l 1,7,-1
 1023.90234375 1521 l 1,8,-1
 603 0 l 1,9,-1
 551 0 l 1,10,-1
 515.05859375 979 l 1,11,-1
 163 0 l 1,12,-1
 107 0 l 1,0,-1
EndSplineSet
EndChar

StartChar: X
Encoding: 88 88 215
Width: 922
VWidth: 2441
GlyphClass: 2
Flags: HW
AnchorPoint: "Anchor-2" 358 0 basechar 0
AnchorPoint: "Anchor-0" 598.902 1521 basechar 0
LayerCount: 2
Fore
SplineSet
-62 0 m 1,0,-1
 397.90625 776 l 1,1,-1
 186.219726562 1523 l 1,2,-1
 342.219726562 1523 l 1,3,-1
 509.256835938 955 l 1,4,-1
 854.219726562 1523 l 1,5,-1
 999.219726562 1523 l 1,6,-1
 569.22265625 778 l 1,7,-1
 796 0 l 1,8,-1
 633 0 l 1,9,-1
 454.080078125 594 l 1,10,-1
 94 0 l 1,11,-1
 -62 0 l 1,0,-1
EndSplineSet
EndChar

StartChar: Y
Encoding: 89 89 216
Width: 922
VWidth: 2441
GlyphClass: 2
Flags: HW
AnchorPoint: "Anchor-2" 381 0 basechar 0
AnchorPoint: "Anchor-0" 606.902 1521 basechar 0
LayerCount: 2
Fore
SplineSet
306 0 m 1,0,-1
 400.397460938 596 l 1,1,-1
 178.90234375 1521 l 1,2,-1
 339.90234375 1521 l 1,3,-1
 512.756835938 794 l 1,4,-1
 889.90234375 1521 l 1,5,-1
 1036.90234375 1521 l 1,6,-1
 552.397460938 596 l 1,7,-1
 458 0 l 1,8,-1
 306 0 l 1,0,-1
EndSplineSet
EndChar

StartChar: Z
Encoding: 90 90 226
Width: 922
VWidth: 2441
GlyphClass: 2
Flags: HW
AnchorPoint: "Anchor-2" 395 0 basechar 0
AnchorPoint: "Anchor-0" 614.902 1521 basechar 0
LayerCount: 2
Fore
SplineSet
-43.46875 117 m 1,0,-1
 803.986328125 1370 l 1,1,-1
 180.986328125 1370 l 1,2,-1
 204.90234375 1521 l 1,3,-1
 1001.90234375 1521 l 1,4,-1
 983.372070312 1404 l 1,5,-1
 148.599609375 149 l 1,6,-1
 718.599609375 149 l 2,7,8
 755.599609375 149 755.599609375 149 773.391601562 154 c 128,-1,9
 791.18359375 159 791.18359375 159 807.400390625 173 c 1,10,-1
 823.400390625 173 l 1,11,-1
 796 0 l 1,12,-1
 -62 0 l 1,13,-1
 -43.46875 117 l 1,0,-1
EndSplineSet
EndChar

StartChar: a
Encoding: 97 97 232
Width: 922
VWidth: 2441
GlyphClass: 2
Flags: HW
AnchorPoint: "Anchor-3" 674 0 basechar 0
AnchorPoint: "Anchor-2" 368 0 basechar 0
AnchorPoint: "Anchor-0" 550.965 1111 basechar 0
LayerCount: 2
Fore
SplineSet
143.40625 293 m 0,0,1
 127.092773438 190 127.092773438 190 180.020507812 148.5 c 128,-1,2
 232.947265625 107 232.947265625 107 320.947265625 107 c 0,3,4
 477.947265625 107 477.947265625 107 586.473632812 214.5 c 128,-1,5
 695 322 695 322 736.676757812 522 c 1,6,7
 686.78515625 529 686.78515625 529 634.65625 534.5 c 128,-1,8
 582.52734375 540 582.52734375 540 534.52734375 540 c 0,9,10
 377.52734375 540 377.52734375 540 270.920898438 482.5 c 128,-1,11
 164.313476562 425 164.313476562 425 143.40625 293 c 0,0,1
285.723632812 -27 m 0,12,13
 114.723632812 -27 114.723632812 -27 38.1611328125 61 c 128,-1,14
 -38.400390625 149 -38.400390625 149 -17.0185546875 284 c 0,15,16
 2.9375 410 2.9375 410 83.1376953125 496.5 c 128,-1,17
 163.337890625 583 163.337890625 583 283.306640625 627 c 128,-1,18
 403.276367188 671 403.276367188 671 543.276367188 671 c 0,19,20
 591.276367188 671 591.276367188 671 645.221679688 667.5 c 128,-1,21
 699.166992188 664 699.166992188 664 758.05859375 657 c 1,22,23
 777.1015625 853 777.1015625 853 715.005859375 925 c 128,-1,24
 652.909179688 997 652.909179688 997 507.909179688 997 c 0,25,26
 358.909179688 997 358.909179688 997 224.219726562 879 c 1,27,-1
 165.958984375 991 l 1,28,29
 329.55859375 1140 329.55859375 1140 541.55859375 1140 c 0,30,31
 676.55859375 1140 676.55859375 1140 765.797851562 1091 c 128,-1,32
 855.036132812 1042 855.036132812 1042 889.34765625 924 c 128,-1,33
 923.658203125 806 923.658203125 806 890.080078125 594 c 2,34,-1
 796 0 l 1,35,-1
 625 0 l 1,36,-1
 651.92578125 170 l 1,37,38
 603.096679688 89 603.096679688 89 538.944335938 47 c 128,-1,39
 474.791992188 5 474.791992188 5 409.2578125 -11 c 128,-1,40
 343.723632812 -27 343.723632812 -27 285.723632812 -27 c 0,12,13
EndSplineSet
Substitution2: "Single Substitution lookup 29 subtable" ordfeminine
Substitution2: "'aalt' Access All Alternates in Latin lookup 0 subtable" ordfeminine
EndChar

StartChar: ae
Encoding: 230 230 257
Width: 860
VWidth: 2441
GlyphClass: 1
Flags: HW
LayerCount: 2
Fore
SplineSet
158.84765625 119 m 0,0,1
 219.84765625 119 219.84765625 119 256.296875 175.5 c 128,-1,2
 292.745117188 232 292.745117188 232 314.791992188 327 c 128,-1,3
 336.837890625 422 336.837890625 422 354.735351562 535 c 1,4,5
 216.151367188 525 216.151367188 525 152.890625 476 c 128,-1,6
 89.6298828125 427 89.6298828125 427 69.1982421875 298 c 0,7,8
 52.884765625 195 52.884765625 195 77.3662109375 157 c 128,-1,9
 101.84765625 119 101.84765625 119 158.84765625 119 c 0,0,1
493.859375 681 m 1,10,-1
 749.918945312 694 l 1,11,12
 774.309570312 848 774.309570312 848 759.1640625 926 c 128,-1,13
 744.017578125 1004 744.017578125 1004 682.017578125 1004 c 0,14,15
 617.017578125 1004 617.017578125 1004 567.79296875 920.5 c 128,-1,16
 518.567382812 837 518.567382812 837 493.859375 681 c 1,10,-1
129.723632812 -27 m 0,17,18
 3.7236328125 -27 3.7236328125 -27 -35.2294921875 68 c 128,-1,19
 -74.18359375 163 -74.18359375 163 -52.484375 300 c 0,20,21
 3.900390625 656 3.900390625 656 377.384765625 678 c 1,22,23
 402.567382812 837 402.567382812 837 385.29296875 920.5 c 128,-1,24
 368.017578125 1004 368.017578125 1004 293.017578125 1004 c 0,25,26
 214.017578125 1004 214.017578125 1004 144.1796875 904 c 1,27,-1
 97.126953125 1011 l 1,28,29
 193.971679688 1140.0078125 193.971679688 1140.0078125 320.608398438 1140.0078125 c 0,30,31
 321.58203125 1140.0078125 321.58203125 1140.0078125 322.55859375 1140 c 0,32,33
 387.55859375 1140 387.55859375 1140 433.22265625 1100 c 128,-1,34
 478.887695312 1060 478.887695312 1060 495.958984375 991 c 1,35,36
 536.729492188 1059 536.729492188 1059 594.143554688 1099.5 c 128,-1,37
 651.55859375 1140 651.55859375 1140 705.55859375 1140 c 0,38,39
 825.55859375 1140 825.55859375 1140 858.1015625 1014 c 128,-1,40
 890.645507812 888 890.645507812 888 853.583007812 654 c 2,41,-1
 838.853515625 561 l 1,42,-1
 472.63671875 547 l 1,43,-1
 453.629882812 427 l 2,44,45
 431.139648438 285 431.139648438 285 464.939453125 198.5 c 128,-1,46
 498.739257812 112 498.739257812 112 583.739257812 112 c 0,47,48
 664.739257812 112 664.739257812 112 725.676757812 200 c 1,49,-1
 773.521484375 98 l 1,50,51
 674.881835938 -26 674.881835938 -26 550.723632812 -27 c 0,52,53
 483.723632812 -27 483.723632812 -27 429.955078125 15.5 c 128,-1,54
 376.186523438 58 376.186523438 58 354.381835938 135 c 1,55,56
 312.502929688 60 312.502929688 60 252.61328125 16.5 c 128,-1,57
 192.723632812 -27 192.723632812 -27 129.723632812 -27 c 0,17,18
EndSplineSet
EndChar

StartChar: b
Encoding: 98 98 259
Width: 922
VWidth: 2441
GlyphClass: 2
Flags: HW
AnchorPoint: "Anchor-2" 406 0 basechar 0
AnchorPoint: "Anchor-0" 582.757 1116 basechar 0
LayerCount: 2
Fore
SplineSet
382.956054688 126 m 0,0,1
 451.956054688 126 451.956054688 126 519.0546875 164.5 c 128,-1,2
 586.15234375 203 586.15234375 203 639.540039062 297 c 128,-1,3
 692.928710938 391 692.928710938 391 719.537109375 559 c 0,4,5
 756.282226562 791 756.282226562 791 699.358398438 892.5 c 128,-1,6
 642.434570312 994 642.434570312 994 527.434570312 994 c 0,7,8
 408.434570312 994 408.434570312 994 314.561523438 878 c 128,-1,9
 220.688476562 762 220.688476562 762 187.745117188 554 c 0,10,11
 156.068359375 354 156.068359375 354 197.512695312 240 c 128,-1,12
 238.956054688 126 238.956054688 126 382.956054688 126 c 0,0,1
380.723632812 -27 m 0,13,14
 289.723632812 -27 289.723632812 -27 221.588867188 19.5 c 128,-1,15
 153.453125 66 153.453125 66 119.282226562 147 c 1,16,-1
 45 0 l 1,17,-1
 -62 0 l 1,18,-1
 195.216796875 1624 l 1,19,-1
 376.216796875 1624 l 1,20,-1
 373.5234375 1607 l 1,21,22
 359.306640625 1593 359.306640625 1593 353.03515625 1575.5 c 128,-1,23
 346.762695312 1558 346.762695312 1558 340.110351562 1516 c 2,24,-1
 249.672851562 945 l 1,25,26
 310.403320312 1038 310.403320312 1038 402.138671875 1090 c 128,-1,27
 493.875 1142 493.875 1142 574.875 1142 c 0,28,29
 754.875 1142 754.875 1142 844.255859375 1005.5 c 128,-1,30
 933.635742188 869 933.635742188 869 886.12109375 569 c 0,31,32
 852.860351562 359 852.860351562 359 772.190429688 228.5 c 128,-1,33
 691.521484375 98 691.521484375 98 587.623046875 35.5 c 128,-1,34
 483.723632812 -27 483.723632812 -27 380.723632812 -27 c 0,13,14
EndSplineSet
EndChar

StartChar: c
Encoding: 99 99 261
Width: 922
VWidth: 2441
GlyphClass: 2
Flags: HW
AnchorPoint: "Anchor-2" 430 0 basechar 0
AnchorPoint: "Anchor-0" 606.757 1116 basechar 0
LayerCount: 2
Fore
SplineSet
422.723632812 -27 m 0,0,1
 277.723632812 -27 277.723632812 -27 179.286132812 46 c 128,-1,2
 80.84765625 119 80.84765625 119 39.833984375 251.5 c 128,-1,3
 -1.1806640625 384 -1.1806640625 384 26.2197265625 557 c 0,4,5
 54.5712890625 736 54.5712890625 736 139.740234375 866.5 c 128,-1,6
 224.909179688 997 224.909179688 997 345.99609375 1067 c 128,-1,7
 467.083007812 1137 467.083007812 1137 605.083007812 1137 c 0,8,9
 726.083007812 1137 726.083007812 1137 814.267578125 1084.5 c 128,-1,10
 902.453125 1032 902.453125 1032 944.72265625 939 c 1,11,-1
 830.775390625 832 l 1,12,-1
 812.766601562 813 l 1,13,-1
 802.666992188 825 l 1,14,15
 803.676757812 844 803.676757812 844 799.606445312 862.5 c 128,-1,16
 795.537109375 881 795.537109375 881 773.60546875 913 c 1,17,18
 735.57421875 957 735.57421875 957 686.00390625 975.5 c 128,-1,19
 636.434570312 994 636.434570312 994 568.434570312 994 c 0,20,21
 487.434570312 994 487.434570312 994 409.672851562 945 c 128,-1,22
 331.912109375 896 331.912109375 896 273.366210938 801 c 128,-1,23
 214.819335938 706 214.819335938 706 192.645507812 566 c 0,24,25
 160.493164062 363 160.493164062 363 235.224609375 244.5 c 128,-1,26
 309.956054688 126 309.956054688 126 456.956054688 126 c 0,27,28
 606.956054688 126 606.956054688 126 733.021484375 259 c 1,29,-1
 802.698242188 137 l 1,30,31
 633.723632812 -27 633.723632812 -27 422.723632812 -27 c 0,0,1
EndSplineSet
EndChar

StartChar: d
Encoding: 100 100 268
Width: 922
VWidth: 2441
GlyphClass: 2
Flags: HW
AnchorPoint: "Anchor-4" 820.235 1340 basechar 0
AnchorPoint: "Anchor-2" 374 0 basechar 0
AnchorPoint: "Anchor-1" 1017.76 1116 basechar 0
AnchorPoint: "Anchor-0" 550.757 1116 basechar 0
LayerCount: 2
Fore
SplineSet
382.956054688 126 m 0,0,1
 517.956054688 126 517.956054688 126 594.462890625 246 c 128,-1,2
 670.96875 366 670.96875 366 702.329101562 564 c 128,-1,3
 733.688476562 762 733.688476562 762 688.616210938 881.5 c 128,-1,4
 643.54296875 1001 643.54296875 1001 508.54296875 1001 c 0,5,6
 380.54296875 1001 380.54296875 1001 298.650390625 897.5 c 128,-1,7
 216.756835938 794 216.756835938 794 185.397460938 596 c 0,8,9
 148.65234375 364 148.65234375 364 200.803710938 245 c 128,-1,10
 252.956054688 126 252.956054688 126 382.956054688 126 c 0,0,1
332.19921875 -24 m 0,11,12
 233.19921875 -24 233.19921875 -24 151.860351562 37 c 128,-1,13
 70.521484375 98 70.521484375 98 32.6904296875 228.5 c 128,-1,14
 -5.1396484375 359 -5.1396484375 359 28.12109375 569 c 128,-1,15
 61.3818359375 779 61.3818359375 779 141.416992188 905.5 c 128,-1,16
 221.453125 1032 221.453125 1032 324.98046875 1089 c 128,-1,17
 428.508789062 1146 428.508789062 1146 527.508789062 1146 c 0,18,19
 628.508789062 1146 628.508789062 1146 691.272460938 1094 c 128,-1,20
 754.036132812 1042 754.036132812 1042 775.256835938 955 c 1,21,-1
 881.216796875 1624 l 1,22,-1
 1051.21679688 1624 l 1,23,-1
 1048.5234375 1607 l 1,24,25
 1032.30664062 1593 1032.30664062 1593 1026.03515625 1575.5 c 128,-1,26
 1019.76269531 1558 1019.76269531 1558 1013.11035156 1516 c 2,27,-1
 802.400390625 173 l 2,28,29
 795.431640625 129 795.431640625 129 791.200195312 86.5 c 128,-1,30
 786.96875 44 786.96875 44 796 0 c 1,31,-1
 641 0 l 1,32,33
 631.65234375 42 631.65234375 42 634.145507812 83 c 128,-1,34
 636.639648438 124 636.639648438 124 643.608398438 168 c 1,35,36
 584.987304688 82 584.987304688 82 505.592773438 29 c 128,-1,37
 426.19921875 -24 426.19921875 -24 332.19921875 -24 c 0,11,12
EndSplineSet
EndChar

StartChar: eth
Encoding: 240 240 269
Width: 922
VWidth: 2441
GlyphClass: 1
Flags: HW
LayerCount: 2
Fore
SplineSet
396.53125 117 m 0,0,1
 466.53125 117 466.53125 117 534 161 c 128,-1,2
 601.46875 205 601.46875 205 654.6484375 304 c 128,-1,3
 707.829101562 403 707.829101562 403 733.645507812 566 c 0,4,5
 758.829101562 725 758.829101562 725 732.716796875 819 c 128,-1,6
 706.60546875 913 706.60546875 913 650.756835938 955 c 128,-1,7
 594.909179688 997 594.909179688 997 531.909179688 997 c 0,8,9
 463.909179688 997 463.909179688 997 393.043945312 950.5 c 128,-1,10
 322.1796875 904 322.1796875 904 267.053710938 808.5 c 128,-1,11
 211.927734375 713 211.927734375 713 188.645507812 566 c 0,12,13
 154.592773438 351 154.592773438 351 218.061523438 234 c 128,-1,14
 281.53125 117 281.53125 117 396.53125 117 c 0,0,1
373.248046875 -30 m 0,15,16
 255.248046875 -30 255.248046875 -30 166.334960938 40 c 128,-1,17
 77.421875 110 77.421875 110 36.853515625 239 c 128,-1,18
 -3.71484375 368 -3.71484375 368 24.3193359375 545 c 0,19,20
 52.037109375 720 52.037109375 720 132.260742188 854 c 128,-1,21
 212.483398438 988 212.483398438 988 318.521484375 1064 c 128,-1,22
 424.55859375 1140 424.55859375 1140 530.55859375 1140 c 0,23,24
 691.55859375 1140 691.55859375 1140 766.551757812 1020 c 1,25,26
 748.96484375 1111 748.96484375 1111 719.873046875 1192.5 c 128,-1,27
 690.782226562 1274 690.782226562 1274 645.34375 1347 c 1,28,-1
 375.880859375 1262 l 1,29,-1
 353.095703125 1377 l 1,30,-1
 574.865234375 1445 l 1,31,32
 537.151367188 1491 537.151367188 1491 490.907226562 1530.5 c 128,-1,33
 444.663085938 1570 444.663085938 1570 391.573242188 1601 c 1,34,-1
 567.75 1640 l 1,35,36
 607.682617188 1608 607.682617188 1608 645.901367188 1571.5 c 128,-1,37
 684.120117188 1535 684.120117188 1535 720.833984375 1489 c 1,38,-1
 952.080078125 1560 l 1,39,-1
 972.1328125 1453 l 1,40,-1
 787.788085938 1394 l 1,41,42
 878.080078125 1238 878.080078125 1238 904.907226562 1047.5 c 128,-1,43
 931.735351562 857 931.735351562 857 893.723632812 617 c 0,44,45
 844.307617188 305 844.307617188 305 710.778320312 137.5 c 128,-1,46
 577.248046875 -30 577.248046875 -30 373.248046875 -30 c 0,15,16
EndSplineSet
EndChar

StartChar: dcaron
Encoding: 271 271 270
Width: 922
VWidth: 2441
GlyphClass: 1
Flags: HW
LayerCount: 2
Fore
SplineSet
266.639648438 124 m 0,0,1
 437.645507812 124 437.645507812 124 506.53125 558.927734375 c 0,0,0
 506.931640625 561.45703125 506.931640625 561.45703125 507.329101562 564 c 0,2,3
 576.225585938 999 576.225585938 999 400.225585938 999 c 0,4,5
 312.225585938 999 312.225585938 999 252.154296875 907 c 128,-1,6
 192.083007812 815 192.083007812 815 157.397460938 596 c 0,7,8
 129.045898438 417 129.045898438 417 136.311523438 314.5 c 128,-1,9
 143.577148438 212 143.577148438 212 177.608398438 168 c 128,-1,10
 211.639648438 124 211.639648438 124 266.639648438 124 c 0,0,1
218.19921875 -24 m 0,11,12
 145.19921875 -24 145.19921875 -24 89.171875 29.5 c 128,-1,13
 33.1455078125 83 33.1455078125 83 12.65625 212.5 c 128,-1,14
 -7.8330078125 342 -7.8330078125 342 28.12109375 569 c 0,15,16
 63.2822265625 791 63.2822265625 791 124.159179688 916.5 c 128,-1,17
 185.036132812 1042 185.036132812 1042 260.772460938 1094 c 128,-1,18
 336.508789062 1146 336.508789062 1146 413.508789062 1146 c 0,19,20
 563.508789062 1146 563.508789062 1146 577.682617188 964 c 1,21,-1
 682.216796875 1624 l 1,22,-1
 828.216796875 1624 l 1,23,-1
 825.5234375 1607 l 1,24,25
 810.306640625 1593 810.306640625 1593 804.03515625 1575.5 c 128,-1,26
 797.762695312 1558 797.762695312 1558 791.110351562 1516 c 2,27,-1
 578.400390625 173 l 2,28,29
 571.431640625 129 571.431640625 129 566.700195312 86.5 c 128,-1,30
 561.96875 44 561.96875 44 567 0 c 1,31,-1
 440 0 l 1,32,33
 435.860351562 37 435.860351562 37 436.799804688 74.5 c 128,-1,34
 437.739257812 112 437.739257812 112 444.708007812 156 c 1,35,36
 402.1953125 77 402.1953125 77 344.697265625 26.5 c 128,-1,37
 287.19921875 -24 287.19921875 -24 218.19921875 -24 c 0,11,12
968.325195312 1631 m 0,38,39
 1003.32519531 1631 1003.32519531 1631 1023.20214844 1595.5 c 128,-1,40
 1043.08007812 1560 1043.08007812 1560 1034.20996094 1504 c 0,41,42
 1022.33105469 1429 1022.33105469 1429 965.17578125 1327 c 128,-1,43
 908.020507812 1225 908.020507812 1225 843.55859375 1140 c 1,44,-1
 793.319335938 1189 l 1,45,46
 827.971679688 1231 827.971679688 1231 861.311523438 1280.5 c 128,-1,47
 894.651367188 1330 894.651367188 1330 902.887695312 1382 c 0,48,49
 906.688476562 1406 906.688476562 1406 893.5390625 1424 c 128,-1,50
 880.390625 1442 880.390625 1442 868.270507812 1466.5 c 128,-1,51
 856.151367188 1491 856.151367188 1491 862.803710938 1533 c 0,52,53
 868.663085938 1570 868.663085938 1570 896.994140625 1600.5 c 128,-1,54
 925.325195312 1631 925.325195312 1631 968.325195312 1631 c 0,38,39
EndSplineSet
EndChar

StartChar: e
Encoding: 101 101 274
Width: 922
VWidth: 2441
GlyphClass: 2
Flags: HW
AnchorPoint: "Anchor-3" 527.326 21 basechar 0
AnchorPoint: "Anchor-2" 442 0 basechar 0
AnchorPoint: "Anchor-0" 569.757 1116 basechar 0
LayerCount: 2
Fore
SplineSet
204.958984375 669 m 1,0,-1
 737.958984375 669 l 1,1,2
 763.458984375 830 763.458984375 830 711.29296875 920.5 c 128,-1,3
 659.126953125 1011 659.126953125 1011 542.126953125 1011 c 0,4,5
 438.126953125 1011 438.126953125 1011 346.614257812 932 c 128,-1,6
 255.1015625 853 255.1015625 853 204.958984375 669 c 1,0,-1
419.19921875 -24 m 0,7,8
 198.19921875 -24 198.19921875 -24 89.1640625 121 c 128,-1,9
 -19.8701171875 266 -19.8701171875 266 25.7451171875 554 c 0,10,11
 56.7880859375 750 56.7880859375 750 137.95703125 880.5 c 128,-1,12
 219.126953125 1011 219.126953125 1011 332.000976562 1076.5 c 128,-1,13
 444.875 1142 444.875 1142 573.875 1142 c 0,14,15
 688.875 1142 688.875 1142 771.1640625 1087 c 128,-1,16
 853.453125 1032 853.453125 1032 888.159179688 916.5 c 128,-1,17
 922.866210938 801 922.866210938 801 893.08984375 613 c 0,18,19
 889.763671875 592 889.763671875 592 885.75390625 573 c 128,-1,20
 881.745117188 554 881.745117188 554 875.260742188 532 c 1,21,-1
 179.260742188 532 l 1,22,23
 151.099609375 310 151.099609375 310 229.577148438 212 c 128,-1,24
 308.055664062 114 308.055664062 114 443.055664062 114 c 0,25,26
 597.055664062 114 597.055664062 114 715.220703125 235 c 1,27,-1
 792.490234375 142 l 1,28,29
 636.19921875 -24 636.19921875 -24 419.19921875 -24 c 0,7,8
EndSplineSet
EndChar

StartChar: uni029A
Encoding: 666 666 296
Width: 922
VWidth: 2441
GlyphClass: 1
Flags: HW
LayerCount: 2
Fore
SplineSet
360.639648438 124 m 0,0,1
 493.639648438 124 493.639648438 124 589.903320312 233 c 128,-1,2
 686.166992188 342 686.166992188 342 720.853515625 561 c 0,3,4
 753.322265625 766 753.322265625 766 696.116210938 881.5 c 128,-1,5
 638.909179688 997 638.909179688 997 507.909179688 997 c 0,6,7
 411.909179688 997 411.909179688 997 359.543945312 950.5 c 128,-1,8
 307.1796875 904 307.1796875 904 294.984375 827 c 0,9,10
 284.213867188 759 284.213867188 759 319.482421875 716.5 c 128,-1,11
 354.750976562 674 354.750976562 674 456.750976562 674 c 0,12,13
 470.750976562 674 470.750976562 674 482.250976562 674 c 128,-1,14
 493.750976562 674 493.750976562 674 508.068359375 676 c 1,15,-1
 482.884765625 517 l 1,16,17
 463.201171875 519 463.201171875 519 445.676757812 522 c 128,-1,18
 428.151367188 525 428.151367188 525 408.151367188 525 c 0,19,20
 315.151367188 525 315.151367188 525 244.049804688 477 c 128,-1,21
 172.947265625 429 172.947265625 429 158.05859375 335 c 0,22,23
 142.537109375 237 142.537109375 237 200.588867188 180.5 c 128,-1,24
 258.639648438 124 258.639648438 124 360.639648438 124 c 0,0,1
337.990234375 -19 m 0,25,26
 220.307617188 -17 220.307617188 -17 136.568359375 32 c 128,-1,27
 52.8291015625 81 52.8291015625 81 14.974609375 164 c 128,-1,28
 -22.87890625 247 -22.87890625 247 -6.7236328125 349 c 0,29,30
 9.58984375 452 9.58984375 452 71.8349609375 523 c 128,-1,31
 134.080078125 594 134.080078125 594 222.40625 615 c 1,32,33
 106.552734375 698 106.552734375 698 129.04296875 840 c 0,34,35
 150.741210938 977 150.741210938 977 267.150390625 1058.5 c 128,-1,36
 383.55859375 1140 383.55859375 1140 538.55859375 1140 c 0,37,38
 741.55859375 1140 741.55859375 1140 834.112304688 982.5 c 128,-1,39
 926.666992188 825 926.666992188 825 884.537109375 559 c 0,40,41
 856.819335938 384 856.819335938 384 779.571289062 253 c 128,-1,42
 702.323242188 122 702.323242188 122 589.157226562 51.5 c 128,-1,43
 475.990234375 -19 475.990234375 -19 337.990234375 -19 c 0,25,26
EndSplineSet
EndChar

StartChar: f
Encoding: 102 102 300
Width: 922
VWidth: 2441
GlyphClass: 1
Flags: HW
LayerCount: 2
Fore
SplineSet
296.375 981 m 1,0,-1
 93.375 981 l 1,1,-1
 114.756835938 1116 l 1,2,-1
 317.756835938 1116 l 1,3,-1
 332.486328125 1209 l 2,4,5
 367.96484375 1433 367.96484375 1433 484.69921875 1535.5 c 128,-1,6
 601.43359375 1638 601.43359375 1638 753.43359375 1638 c 0,7,8
 843.43359375 1638 843.43359375 1638 917.994140625 1600.5 c 128,-1,9
 992.5546875 1563 992.5546875 1563 1031.04296875 1484 c 1,10,-1
 931.403320312 1360 l 1,11,-1
 913.235351562 1340 l 1,12,-1
 901.977539062 1351 l 1,13,14
 899.986328125 1370 899.986328125 1370 898.733398438 1390.5 c 128,-1,15
 897.48046875 1411 897.48046875 1411 879.073242188 1440 c 1,16,17
 849.6171875 1475 849.6171875 1475 818.254882812 1488.5 c 128,-1,18
 786.893554688 1502 786.893554688 1502 735.893554688 1502 c 0,19,20
 645.893554688 1502 645.893554688 1502 575.702148438 1434.5 c 128,-1,21
 505.51171875 1367 505.51171875 1367 480.486328125 1209 c 2,22,-1
 465.756835938 1116 l 1,23,-1
 774.756835938 1116 l 1,24,-1
 753.375 981 l 1,25,-1
 444.375 981 l 1,26,-1
 289 0 l 1,27,-1
 141 0 l 1,28,-1
 296.375 981 l 1,0,-1
EndSplineSet
EndChar

StartChar: g
Encoding: 103 103 301
Width: 920
VWidth: 2298
GlyphClass: 2
Flags: HW
AnchorPoint: "Anchor-2" 299.363 -225 basechar 0
AnchorPoint: "Anchor-0" 482.391 1120 basechar 0
LayerCount: 2
Fore
SplineSet
79.4345703125 28 m 0,0,1
 67.7138671875 -46 67.7138671875 -46 133.799804688 -86.5 c 128,-1,2
 199.884765625 -127 199.884765625 -127 328.884765625 -127 c 0,3,4
 461.884765625 -127 461.884765625 -127 526.774414062 -83.5 c 128,-1,5
 591.665039062 -40 591.665039062 -40 602.751953125 30 c 0,6,7
 610.353515625 78 610.353515625 78 600.263671875 109 c 128,-1,8
 590.173828125 140 590.173828125 140 544.470703125 154.5 c 128,-1,9
 498.766601562 169 498.766601562 169 402.766601562 169 c 0,10,11
 265.766601562 169 265.766601562 169 184.7265625 194 c 1,12,13
 136.5 161 136.5 161 112.956054688 126 c 128,-1,14
 89.4130859375 91 89.4130859375 91 79.4345703125 28 c 0,0,1
398.763671875 592 m 0,15,16
 485.763671875 592 485.763671875 592 546.7421875 655 c 128,-1,17
 607.719726562 718 607.719726562 718 622.608398438 812 c 0,18,19
 637.337890625 905 637.337890625 905 596.31640625 968 c 128,-1,20
 555.293945312 1031 555.293945312 1031 468.293945312 1031 c 0,21,22
 383.293945312 1031 383.293945312 1031 321.31640625 968 c 128,-1,23
 259.337890625 905 259.337890625 905 244.608398438 812 c 128,-1,24
 229.877929688 719 229.877929688 719 271.821289062 655.5 c 128,-1,25
 313.763671875 592 313.763671875 592 398.763671875 592 c 0,15,16
378.490234375 464 m 0,26,27
 304.490234375 464 304.490234375 464 247.924804688 492 c 1,28,29
 205.639648438 446 205.639648438 446 198.829101562 403 c 0,30,31
 190.592773438 351 190.592773438 351 244.029296875 328.5 c 128,-1,32
 297.465820312 306 297.465820312 306 453.465820312 306 c 0,33,34
 590.465820312 306 590.465820312 306 655.739257812 273 c 128,-1,35
 721.012695312 240 721.012695312 240 738.063476562 183.5 c 128,-1,36
 755.115234375 127 755.115234375 127 743.39453125 53 c 0,37,38
 731.357421875 -23 731.357421875 -23 682.428710938 -92 c 128,-1,39
 633.5 -161 633.5 -161 542.268554688 -203.5 c 128,-1,40
 451.037109375 -246 451.037109375 -246 307.037109375 -246 c 0,41,42
 120.037109375 -246 120.037109375 -246 19.673828125 -182 c 128,-1,43
 -80.689453125 -118 -80.689453125 -118 -60.416015625 10 c 0,44,45
 -47.5869140625 91 -47.5869140625 91 3.0205078125 148.5 c 128,-1,46
 53.626953125 206 53.626953125 206 113.586914062 231 c 1,47,48
 56.189453125 279 56.189453125 279 68.96875 366 c 0,49,50
 76.5712890625 414 76.5712890625 414 105.77734375 459.5 c 128,-1,51
 134.984375 505 134.984375 505 178.477539062 546 c 1,52,53
 94 644 94 644 120.608398438 812 c 0,54,55
 143.890625 959 143.890625 959 244.650390625 1058.5 c 128,-1,56
 345.409179688 1158 345.409179688 1158 488.409179688 1158 c 0,57,58
 562.409179688 1158 562.409179688 1158 616.553710938 1130.5 c 128,-1,59
 670.698242188 1103 670.698242188 1103 702.5703125 1058 c 1,60,61
 762.490234375 1108 762.490234375 1108 821.553710938 1130.5 c 0,62,63
 868.182617188 1148.26269531 868.182617188 1148.26269531 924.775390625 1148.26269531 c 0,64,65
 939.8671875 1148.26269531 939.8671875 1148.26269531 955.666992188 1147 c 1,66,-1
 955.393554688 1019 l 1,67,68
 932.57421875 1021.40039062 932.57421875 1021.40039062 910.25390625 1021.40039062 c 0,69,70
 876.7734375 1021.40039062 876.7734375 1021.40039062 844.418945312 1016 c 0,71,72
 790.493164062 1007 790.493164062 1007 741.424804688 975 c 1,73,74
 760.704101562 901 760.704101562 901 746.608398438 812 c 0,75,76
 723.325195312 665 723.325195312 665 623.408203125 564.5 c 128,-1,77
 523.490234375 464 523.490234375 464 378.490234375 464 c 0,26,27
EndSplineSet
EndChar

StartChar: h
Encoding: 104 104 308
Width: 858
VWidth: 2441
GlyphClass: 2
Flags: HW
AnchorPoint: "Anchor-4" 278.235 1340 basechar 0
AnchorPoint: "Anchor-2" 329 0 basechar 0
AnchorPoint: "Anchor-0" 295.217 1624 basechar 0
LayerCount: 2
Fore
SplineSet
195.216796875 1624 m 1,0,-1
 376.216796875 1624 l 1,1,-1
 373.5234375 1607 l 1,2,3
 357.306640625 1593 357.306640625 1593 350.53515625 1575.5 c 128,-1,4
 343.762695312 1558 343.762695312 1558 337.110351562 1516 c 2,5,-1
 243.188476562 923 l 1,6,7
 317.501953125 1026 317.501953125 1026 414.688476562 1084 c 128,-1,8
 511.875 1142 511.875 1142 604.875 1142 c 0,9,10
 743.875 1142 743.875 1142 811.745117188 1037 c 128,-1,11
 879.614257812 932 879.614257812 932 839.068359375 676 c 2,12,-1
 732 0 l 1,13,-1
 573 0 l 1,14,-1
 679.276367188 671 l 2,15,16
 706.993164062 846 706.993164062 846 666.213867188 920 c 128,-1,17
 625.434570312 994 625.434570312 994 547.434570312 994 c 0,18,19
 481.434570312 994 481.434570312 994 406.124023438 951 c 128,-1,20
 330.813476562 908 330.813476562 908 273.458984375 830 c 128,-1,21
 216.10546875 752 216.10546875 752 198.840820312 643 c 2,22,-1
 97 0 l 1,23,-1
 -62 0 l 1,24,-1
 195.216796875 1624 l 1,0,-1
EndSplineSet
EndChar

StartChar: i
Encoding: 105 105 313
Width: 721
VWidth: 2441
GlyphClass: 2
Flags: HW
AnchorPoint: "Anchor-3" 483 0 basechar 0
AnchorPoint: "Anchor-2" 271 0 basechar 0
AnchorPoint: "Anchor-0" 504.934 1477 basechar 0
LayerCount: 2
Fore
SplineSet
-62 0 m 1,0,-1
 -39.984375 139 l 1,1,-1
 219.015625 139 l 1,2,-1
 351.583007812 976 l 1,3,-1
 107.583007812 976 l 1,4,-1
 129.756835938 1116 l 1,5,-1
 535.756835938 1116 l 1,6,-1
 381.015625 139 l 1,7,-1
 617.015625 139 l 1,8,-1
 595 0 l 1,9,-1
 -62 0 l 1,0,-1
482.611328125 1355 m 0,10,11
 436.611328125 1355 436.611328125 1355 407.733398438 1390.5 c 128,-1,12
 378.856445312 1426 378.856445312 1426 386.6171875 1475 c 0,13,14
 394.694335938 1526 394.694335938 1526 433.23828125 1561 c 128,-1,15
 471.78125 1596 471.78125 1596 520.78125 1596 c 128,-1,16
 569.78125 1596 569.78125 1596 598.000976562 1559.5 c 128,-1,17
 626.219726562 1523 626.219726562 1523 618.6171875 1475 c 0,18,19
 610.856445312 1426 610.856445312 1426 571.233398438 1390.5 c 128,-1,20
 531.611328125 1355 531.611328125 1355 482.611328125 1355 c 0,10,11
EndSplineSet
Substitution2: "'locl' Localized Forms in Latin lookup 18 subtable" i.loclTRK
Substitution2: "'locl' Localized Forms in Latin lookup 17 subtable" i.loclTRK
Substitution2: "'locl' Localized Forms in Latin lookup 16 subtable" i.loclTRK
Substitution2: "'locl' Localized Forms in Latin lookup 15 subtable" i.loclTRK
Substitution2: "'locl' Localized Forms in Latin lookup 14 subtable" i.loclTRK
Substitution2: "Single Substitution lookup 4 subtable" dotlessi
Substitution2: "Single Substitution lookup 3 subtable" dotlessi
AlternateSubs2: "'aalt' Access All Alternates in Latin lookup 1 subtable" dotlessi i.loclTRK
EndChar

StartChar: dotlessi
Encoding: 305 305 314
Width: 721
VWidth: 2441
GlyphClass: 2
Flags: HW
AnchorPoint: "Anchor-3" 483 0 basechar 0
AnchorPoint: "Anchor-2" 271 0 basechar 0
AnchorPoint: "Anchor-0" 447.757 1116 basechar 0
LayerCount: 2
Fore
SplineSet
-62 0 m 1,0,-1
 -39.984375 139 l 1,1,-1
 219.015625 139 l 1,2,-1
 351.583007812 976 l 1,3,-1
 107.583007812 976 l 1,4,-1
 129.756835938 1116 l 1,5,-1
 535.756835938 1116 l 1,6,-1
 381.015625 139 l 1,7,-1
 617.015625 139 l 1,8,-1
 595 0 l 1,9,-1
 -62 0 l 1,0,-1
EndSplineSet
EndChar

StartChar: j
Encoding: 106 106 329
Width: 739
VWidth: 2365
GlyphClass: 2
Flags: HW
AnchorPoint: "Anchor-2" 307.336 -282 basechar 0
AnchorPoint: "Anchor-0" 743.676 1488 basechar 0
LayerCount: 2
Fore
SplineSet
195.037109375 -246 m 0,0,1
 108.037109375 -246 108.037109375 -246 35.263671875 -213 c 128,-1,2
 -37.5087890625 -180 -37.5087890625 -180 -79.7392578125 -112 c 1,3,-1
 24.1083984375 7 l 1,4,-1
 38.1181640625 26 l 1,5,-1
 49.8505859375 18 l 1,6,7
 50.68359375 -2 50.68359375 -2 55.0703125 -18.5 c 128,-1,8
 59.45703125 -35 59.45703125 -35 79.021484375 -63 c 1,9,10
 102.537109375 -85 102.537109375 -85 135.899414062 -98.5 c 128,-1,11
 169.260742188 -112 169.260742188 -112 216.260742188 -112 c 0,12,13
 305.260742188 -112 305.260742188 -112 373.34765625 -42 c 128,-1,14
 441.434570312 28 441.434570312 28 465.66796875 181 c 2,15,-1
 599.977539062 1029 l 1,16,-1
 255.977539062 1029 l 1,17,-1
 276.409179688 1158 l 1,18,-1
 771.409179688 1158 l 1,19,-1
 618.092773438 190 l 2,20,21
 593.068359375 32 593.068359375 32 529.942382812 -63.5 c 128,-1,22
 466.81640625 -159 466.81640625 -159 380.926757812 -202.5 c 128,-1,23
 295.037109375 -246 295.037109375 -246 195.037109375 -246 c 0,0,1
723.095703125 1377 m 0,24,25
 681.095703125 1377 681.095703125 1377 655.1640625 1409 c 128,-1,26
 629.232421875 1441 629.232421875 1441 636.201171875 1485 c 0,27,28
 643.64453125 1532 643.64453125 1532 678.712890625 1564 c 128,-1,29
 713.78125 1596 713.78125 1596 757.78125 1596 c 0,30,31
 802.78125 1596 802.78125 1596 829.0546875 1563 c 128,-1,32
 855.328125 1530 855.328125 1530 848.201171875 1485 c 128,-1,33
 841.073242188 1440 841.073242188 1440 804.584960938 1408.5 c 128,-1,34
 768.095703125 1377 768.095703125 1377 723.095703125 1377 c 0,24,25
EndSplineSet
Substitution2: "Single Substitution lookup 4 subtable" uni0237
Substitution2: "Single Substitution lookup 3 subtable" uni0237
Substitution2: "'aalt' Access All Alternates in Latin lookup 0 subtable" uni0237
EndChar

StartChar: uni0237
Encoding: 567 567 330
Width: 694
VWidth: 2286
GlyphClass: 2
Flags: HW
AnchorPoint: "Anchor-2" 295.494 -281 basechar 0
AnchorPoint: "Anchor-0" 666.757 1116 basechar 0
LayerCount: 2
Fore
SplineSet
186.037109375 -246 m 0,0,1
 102.037109375 -246 102.037109375 -246 31.60546875 -214 c 128,-1,2
 -38.826171875 -182 -38.826171875 -182 -80.373046875 -116 c 1,3,-1
 20 0 l 1,4,-1
 33.8505859375 18 l 1,5,-1
 44.583984375 10 l 1,6,7
 45.57421875 -9 45.57421875 -9 49.9609375 -25.5 c 128,-1,8
 54.34765625 -42 54.34765625 -42 74.0712890625 -69 c 1,9,10
 96.7451171875 -90 96.7451171875 -90 128.686523438 -103 c 128,-1,11
 160.626953125 -116 160.626953125 -116 206.626953125 -116 c 0,12,13
 292.626953125 -116 292.626953125 -116 358.897460938 -48 c 128,-1,14
 425.16796875 20 425.16796875 20 448.608398438 168 c 2,15,-1
 578.80078125 990 l 1,16,-1
 245.80078125 990 l 1,17,-1
 265.756835938 1116 l 1,18,-1
 744.756835938 1116 l 1,19,-1
 596.034179688 177 l 2,20,21
 571.80078125 24 571.80078125 24 511.071289062 -69 c 128,-1,22
 450.341796875 -162 450.341796875 -162 366.689453125 -204 c 128,-1,23
 283.037109375 -246 283.037109375 -246 186.037109375 -246 c 0,0,1
EndSplineSet
EndChar

StartChar: k
Encoding: 107 107 332
Width: 922
VWidth: 2441
GlyphClass: 2
Flags: HW
AnchorPoint: "Anchor-2" 320 0 basechar 0
AnchorPoint: "Anchor-0" 275.217 1624 basechar 0
LayerCount: 2
Fore
SplineSet
304.745117188 554 m 1,0,-1
 160.045898438 417 l 1,1,-1
 92 0 l 1,2,-1
 -62 0 l 1,3,-1
 195.216796875 1624 l 1,4,-1
 369.216796875 1624 l 1,5,-1
 366.5234375 1607 l 1,6,7
 351.306640625 1593 351.306640625 1593 345.03515625 1575.5 c 128,-1,8
 338.762695312 1558 338.762695312 1558 332.110351562 1516 c 2,9,-1
 187.505859375 603 l 1,10,-1
 738.548828125 1121 l 1,11,12
 789.6484375 1109 789.6484375 1109 849.6484375 1109 c 2,13,-1
 904.6484375 1109 l 1,14,-1
 435.850585938 662 l 1,15,-1
 796 0 l 1,16,-1
 601.416015625 -10 l 1,17,-1
 304.745117188 554 l 1,0,-1
EndSplineSet
EndChar

StartChar: kgreenlandic
Encoding: 312 312 334
Width: 922
VWidth: 2441
GlyphClass: 2
Flags: HW
AnchorPoint: "Anchor-2" 322 0 basechar 0
AnchorPoint: "Anchor-0" 197.757 1116 basechar 0
LayerCount: 2
Fore
SplineSet
304.745117188 554 m 1,0,-1
 160.045898438 417 l 1,1,-1
 92 0 l 1,2,-1
 -62 0 l 1,3,-1
 114.756835938 1116 l 1,4,-1
 288.756835938 1116 l 1,5,-1
 286.064453125 1099 l 1,6,7
 270.846679688 1085 270.846679688 1085 264.575195312 1067.5 c 128,-1,8
 258.303710938 1050 258.303710938 1050 251.809570312 1009 c 2,9,-1
 187.505859375 603 l 1,10,-1
 738.548828125 1121 l 1,11,12
 789.6484375 1109 789.6484375 1109 849.6484375 1109 c 2,13,-1
 904.6484375 1109 l 1,14,-1
 435.850585938 662 l 1,15,-1
 796 0 l 1,16,-1
 601.416015625 -10 l 1,17,-1
 304.745117188 554 l 1,0,-1
EndSplineSet
EndChar

StartChar: l
Encoding: 108 108 335
Width: 816
VWidth: 2441
GlyphClass: 2
Flags: HW
AnchorPoint: "Anchor-4" 403.537 559 basechar 0
AnchorPoint: "Anchor-2" 315 0 basechar 0
AnchorPoint: "Anchor-1" 996.757 1116 basechar 0
AnchorPoint: "Anchor-0" 572.217 1624 basechar 0
LayerCount: 2
Fore
SplineSet
-62 0 m 1,0,-1
 -39.984375 139 l 1,1,-1
 256.015625 139 l 1,2,-1
 469.04296875 1484 l 1,3,-1
 188.04296875 1484 l 1,4,-1
 210.216796875 1624 l 1,5,-1
 654.216796875 1624 l 1,6,-1
 419.015625 139 l 1,7,-1
 712.015625 139 l 1,8,-1
 690 0 l 1,9,-1
 -62 0 l 1,0,-1
EndSplineSet
EndChar

StartChar: ldot
Encoding: 320 320 339
Width: 901
VWidth: 2441
GlyphClass: 1
Flags: HW
LayerCount: 2
Fore
SplineSet
748.068359375 676 m 0,0,1
 692.068359375 676 692.068359375 676 659.086914062 714 c 128,-1,2
 626.10546875 752 626.10546875 752 634.974609375 808 c 128,-1,3
 643.84375 864 643.84375 864 690.600585938 903.5 c 128,-1,4
 737.356445312 943 737.356445312 943 790.356445312 943 c 0,5,6
 841.356445312 943 841.356445312 943 876.600585938 903.5 c 128,-1,7
 911.84375 864 911.84375 864 902.974609375 808 c 0,8,9
 894.421875 754 894.421875 754 848.245117188 715 c 128,-1,10
 802.068359375 676 802.068359375 676 748.068359375 676 c 0,0,1
-62 0 m 1,11,-1
 -39.984375 139 l 1,12,-1
 214.015625 139 l 1,13,-1
 427.04296875 1484 l 1,14,-1
 187.04296875 1484 l 1,15,-1
 209.216796875 1624 l 1,16,-1
 612.216796875 1624 l 1,17,-1
 377.015625 139 l 1,18,-1
 712.015625 139 l 1,19,-1
 690 0 l 1,20,-1
 -62 0 l 1,11,-1
EndSplineSet
EndChar

StartChar: uni01C9
Encoding: 457 457 341
Width: 900
VWidth: 2368
GlyphClass: 1
Flags: HW
LayerCount: 2
Fore
SplineSet
358.037109375 -246 m 1,0,1
 184.037109375 -246 184.037109375 -246 98.2607421875 -112 c 1,2,-1
 216.118164062 26 l 1,3,4
 226.7421875 11 226.7421875 11 227.470703125 -6.5 c 128,-1,5
 228.19921875 -24 228.19921875 -24 240.768554688 -42.5 c 128,-1,6
 253.338867188 -61 253.338867188 -61 298.0625 -88 c 0,7,8
 341.578125 -110 341.578125 -110 390.578125 -110 c 0,9,10
 481.578125 -110 481.578125 -110 549.34765625 -42 c 128,-1,11
 617.118164062 26 617.118164062 26 641.826171875 182 c 2,12,-1
 776.293945312 1031 l 1,13,-1
 495.293945312 1031 l 1,14,-1
 515.725585938 1160 l 1,15,-1
 948.725585938 1160 l 1,16,-1
 795.092773438 190 l 2,17,18
 770.068359375 32 770.068359375 32 706.259765625 -61.5 c 128,-1,19
 642.450195312 -155 642.450195312 -155 552.560546875 -198.5 c 128,-1,20
 462.670898438 -242 462.670898438 -242 358.037109375 -246 c 1,0,1
885.412109375 1379 m 0,21,22
 843.412109375 1379 843.412109375 1379 816.98046875 1411 c 128,-1,23
 790.548828125 1443 790.548828125 1443 797.67578125 1488 c 0,24,25
 805.120117188 1535 805.120117188 1535 840.688476562 1567 c 128,-1,26
 876.256835938 1599 876.256835938 1599 920.256835938 1599 c 0,27,28
 965.256835938 1599 965.256835938 1599 990.951171875 1565.5 c 128,-1,29
 1016.64453125 1532 1016.64453125 1532 1009.67578125 1488 c 0,30,31
 1002.54882812 1443 1002.54882812 1443 966.48046875 1411 c 128,-1,32
 930.412109375 1379 930.412109375 1379 885.412109375 1379 c 0,21,22
-39.66796875 141 m 1,33,-1
 -19.39453125 269 l 1,34,-1
 110.60546875 269 l 1,35,-1
 304.943359375 1496 l 1,36,-1
 187.943359375 1496 l 1,37,-1
 208.216796875 1624 l 1,38,-1
 474.216796875 1624 l 1,39,-1
 259.60546875 269 l 1,40,-1
 506.60546875 269 l 1,41,-1
 486.33203125 141 l 1,42,-1
 -39.66796875 141 l 1,33,-1
EndSplineSet
EndChar

StartChar: lslash
Encoding: 322 322 343
Width: 816
VWidth: 2441
GlyphClass: 1
Flags: HW
LayerCount: 2
Fore
SplineSet
-62 0 m 1,0,-1
 -39.984375 139 l 1,1,-1
 256.015625 139 l 1,2,-1
 341.859375 681 l 1,3,-1
 160.40625 615 l 1,4,-1
 185.90625 776 l 1,5,-1
 367.518554688 843 l 1,6,-1
 469.04296875 1484 l 1,7,-1
 188.04296875 1484 l 1,8,-1
 210.216796875 1624 l 1,9,-1
 654.216796875 1624 l 1,10,-1
 540.1796875 904 l 1,11,-1
 750.692382812 983 l 1,12,-1
 724.083007812 815 l 1,13,-1
 514.204101562 740 l 1,14,-1
 419.015625 139 l 1,15,-1
 712.015625 139 l 1,16,-1
 690 0 l 1,17,-1
 -62 0 l 1,0,-1
EndSplineSet
EndChar

StartChar: m
Encoding: 109 109 344
Width: 922
VWidth: 2441
GlyphClass: 2
Flags: HW
AnchorPoint: "Anchor-2" 361 0 basechar 0
AnchorPoint: "Anchor-0" 590.757 1116 basechar 0
LayerCount: 2
Fore
SplineSet
-62 0 m 1,0,-1
 114.756835938 1116 l 1,1,-1
 251.756835938 1116 l 1,2,-1
 234.334960938 1006 l 1,3,4
 274.99609375 1067 274.99609375 1067 328.935546875 1104.5 c 128,-1,5
 382.875 1142 382.875 1142 436.875 1142 c 0,6,7
 495.875 1142 495.875 1142 532.588867188 1096 c 128,-1,8
 569.303710938 1050 569.303710938 1050 571.05859375 979 c 1,9,10
 607.620117188 1052 607.620117188 1052 670.748046875 1097 c 128,-1,11
 733.875 1142 733.875 1142 799.875 1142 c 0,12,13
 892.875 1142 892.875 1142 924.125 1061.5 c 0,14,15
 952.770507812 987.708007812 952.770507812 987.708007812 935.293945312 877.364257812 c 0,16,17
 933.705078125 867.333007812 933.705078125 867.333007812 931.735351562 857 c 1,18,-1
 796 0 l 1,19,-1
 659 0 l 1,20,-1
 784.440429688 792 l 2,21,22
 800.75390625 895 800.75390625 895 796.9609375 940.5 c 128,-1,23
 793.166992188 986 793.166992188 986 778.04296875 1001 c 128,-1,24
 762.918945312 1016 762.918945312 1016 738.918945312 1016 c 0,25,26
 700.918945312 1016 700.918945312 1016 662.108398438 973 c 128,-1,27
 623.297851562 930 623.297851562 930 593.08203125 865.5 c 128,-1,28
 562.866210938 801 562.866210938 801 552.729492188 737 c 2,29,-1
 436 0 l 1,30,-1
 297 0 l 1,31,-1
 419.90625 776 l 2,32,33
 441.921875 915 441.921875 915 430.024414062 963 c 128,-1,34
 418.126953125 1011 418.126953125 1011 362.126953125 1011 c 0,35,36
 322.126953125 1011 322.126953125 1011 267.381835938 940 c 128,-1,37
 212.635742188 869 212.635742188 869 192.99609375 745 c 2,38,-1
 75 0 l 1,39,-1
 -62 0 l 1,0,-1
EndSplineSet
EndChar

StartChar: n
Encoding: 110 110 346
Width: 858
VWidth: 2441
GlyphClass: 2
Flags: HW
AnchorPoint: "Anchor-2" 353 0 basechar 0
AnchorPoint: "Anchor-0" 541.757 1116 basechar 0
LayerCount: 2
Fore
SplineSet
-62 0 m 1,0,-1
 114.756835938 1116 l 1,1,-1
 273.756835938 1116 l 1,2,-1
 243.188476562 923 l 1,3,4
 317.501953125 1026 317.501953125 1026 416.188476562 1084 c 128,-1,5
 514.875 1142 514.875 1142 614.875 1142 c 0,6,7
 700.875 1142 700.875 1142 760.485351562 1098.5 c 128,-1,8
 820.095703125 1055 820.095703125 1055 843.51953125 953.5 c 128,-1,9
 866.943359375 852 866.943359375 852 839.859375 681 c 2,10,-1
 732 0 l 1,11,-1
 573 0 l 1,12,-1
 680.068359375 676 l 2,13,14
 707.78515625 851 707.78515625 851 668.109375 922.5 c 128,-1,15
 628.434570312 994 628.434570312 994 547.434570312 994 c 0,16,17
 481.434570312 994 481.434570312 994 406.124023438 951 c 128,-1,18
 330.813476562 908 330.813476562 908 273.696289062 831.5 c 128,-1,19
 216.580078125 755 216.580078125 755 199.474609375 647 c 2,20,-1
 97 0 l 1,21,-1
 -62 0 l 1,0,-1
EndSplineSet
EndChar

StartChar: eng
Encoding: 331 331 352
Width: 776
VWidth: 2288
GlyphClass: 1
Flags: HW
LayerCount: 2
Fore
SplineSet
278.037109375 -246 m 0,0,1
 173.037109375 -246 173.037109375 -246 102.283203125 -175 c 1,2,-1
 189.45703125 -35 l 1,3,4
 197.139648438 -37 197.139648438 -37 202.709960938 -55.5 c 128,-1,5
 208.279296875 -74 208.279296875 -74 228.745117188 -90 c 128,-1,6
 249.2109375 -106 249.2109375 -106 304.2109375 -106 c 0,7,8
 489.2109375 -106 489.2109375 -106 544.428710938 230 c 2,9,-1
 622.987304688 726 l 2,10,11
 648.645507812 888 648.645507812 888 611.385742188 949.5 c 128,-1,12
 574.126953125 1011 574.126953125 1011 506.126953125 1011 c 0,13,14
 446.126953125 1011 446.126953125 1011 378.94921875 972 c 128,-1,15
 311.772460938 933 311.772460938 933 261.923828125 864.5 c 128,-1,16
 212.07421875 796 212.07421875 796 197.02734375 701 c 2,17,-1
 107.065429688 133 l 1,18,-1
 -40.9345703125 133 l 1,19,-1
 115.232421875 1119 l 1,20,-1
 263.232421875 1119 l 1,21,-1
 236.1484375 948 l 1,22,23
 299.561523438 1039 299.561523438 1039 385.217773438 1090.5 c 128,-1,24
 470.875 1142 470.875 1142 554.875 1142 c 0,25,26
 632.875 1142 632.875 1142 688.77734375 1103.5 c 128,-1,27
 744.6796875 1065 744.6796875 1065 767.345703125 974.5 c 128,-1,28
 790.01171875 884 790.01171875 884 765.62109375 730 c 2,29,-1
 690.229492188 254 l 2,30,31
 647.94140625 -13 647.94140625 -13 533.989257812 -129.5 c 128,-1,32
 420.037109375 -246 420.037109375 -246 278.037109375 -246 c 0,0,1
EndSplineSet
EndChar

StartChar: o
Encoding: 111 111 355
Width: 922
VWidth: 2441
GlyphClass: 2
Flags: HW
AnchorPoint: "Anchor-4" 455.537 559 basechar 0
AnchorPoint: "Anchor-3" 444.801 24 basechar 0
AnchorPoint: "Anchor-2" 367 0 basechar 0
AnchorPoint: "Anchor-1" 757.68 1065 basechar 0
AnchorPoint: "Anchor-0" 543.757 1116 basechar 0
LayerCount: 2
Fore
SplineSet
386.639648438 124 m 128,-1,1
 506.639648438 124 506.639648438 124 600.75 241.5 c 128,-1,2
 694.860351562 359 694.860351562 359 726.853515625 561 c 0,3,4
 759.005859375 764 759.005859375 764 701.45703125 880.5 c 128,-1,5
 643.909179688 997 643.909179688 997 524.909179688 997 c 0,6,7
 407.909179688 997 407.909179688 997 313.45703125 880.5 c 128,-1,8
 219.005859375 764 219.005859375 764 186.853515625 561 c 128,-1,9
 154.701171875 358 154.701171875 358 210.670898438 241 c 128,-1,0
 266.639648438 124 266.639648438 124 386.639648438 124 c 128,-1,1
363.990234375 -19 m 128,-1,11
 236.990234375 -19 236.990234375 -19 152.157226562 51.5 c 128,-1,12
 67.3232421875 122 67.3232421875 122 32.7548828125 251 c 128,-1,13
 -1.8134765625 380 -1.8134765625 380 26.537109375 559 c 128,-1,14
 54.8876953125 738 54.8876953125 738 130.556640625 868.5 c 128,-1,15
 206.225585938 999 206.225585938 999 313.392578125 1069.5 c 128,-1,16
 420.55859375 1140 420.55859375 1140 547.55859375 1140 c 128,-1,17
 674.55859375 1140 674.55859375 1140 760.392578125 1069.5 c 128,-1,18
 846.225585938 999 846.225585938 999 879.477539062 868 c 128,-1,19
 912.729492188 737 912.729492188 737 884.537109375 559 c 0,20,21
 856.186523438 380 856.186523438 380 781.754882812 251 c 128,-1,22
 707.323242188 122 707.323242188 122 599.157226562 51.5 c 128,-1,10
 490.990234375 -19 490.990234375 -19 363.990234375 -19 c 128,-1,11
EndSplineSet
Substitution2: "Single Substitution lookup 29 subtable" ordmasculine
Substitution2: "'aalt' Access All Alternates in Latin lookup 0 subtable" ordmasculine
EndChar

StartChar: oslash
Encoding: 248 248 383
Width: 922
VWidth: 2441
GlyphClass: 2
Flags: HW
AnchorPoint: "Anchor-4" 455.537 559 basechar 0
AnchorPoint: "Anchor-3" 444.801 24 basechar 0
AnchorPoint: "Anchor-2" 367 0 basechar 0
AnchorPoint: "Anchor-1" 757.68 1065 basechar 0
AnchorPoint: "Anchor-0" 543.757 1116 basechar 0
LayerCount: 2
Fore
SplineSet
386.639648438 124 m 0,0,1
 506.639648438 124 506.639648438 124 600.75 241.5 c 128,-1,2
 694.860351562 359 694.860351562 359 726.853515625 561 c 0,3,4
 756.629882812 749 756.629882812 749 706.84375 864 c 1,5,-1
 272.5 161 l 1,6,7
 321.639648438 124 321.639648438 124 386.639648438 124 c 0,0,1
186.853515625 561 m 0,8,9
 158.186523438 380 158.186523438 380 200.655273438 263 c 1,10,-1
 631.682617188 964 l 1,11,12
 584.750976562 996 584.750976562 996 524.909179688 997 c 0,13,14
 407.909179688 997 407.909179688 997 313.45703125 880.5 c 128,-1,15
 219.005859375 764 219.005859375 764 186.853515625 561 c 0,8,9
81.7177734375 -147 m 1,16,-1
 -14.9375 -88 l 1,17,-1
 103.313476562 103 l 1,18,19
 46.1923828125 178 46.1923828125 178 24.5654296875 294 c 128,-1,20
 2.9375 410 2.9375 410 26.537109375 559 c 0,21,22
 54.8876953125 738 54.8876953125 738 130.556640625 868.5 c 128,-1,23
 206.225585938 999 206.225585938 999 313.392578125 1069.5 c 128,-1,24
 420.55859375 1140 420.55859375 1140 547.55859375 1140 c 0,25,26
 642.55859375 1140 642.55859375 1140 714.064453125 1099 c 1,27,-1
 815.356445312 1265 l 1,28,-1
 915.6953125 1204 l 1,29,-1
 805.02734375 1023 l 1,30,31
 866.1484375 948 866.1484375 948 887.30078125 829 c 128,-1,32
 908.453125 710 908.453125 710 884.537109375 559 c 0,33,34
 856.186523438 380 856.186523438 380 781.754882812 251 c 128,-1,35
 707.323242188 122 707.323242188 122 598.657226562 51.5 c 128,-1,36
 489.990234375 -19 489.990234375 -19 363.990234375 -19 c 0,37,38
 264.990234375 -19 264.990234375 -19 188.276367188 27 c 1,39,-1
 81.7177734375 -147 l 1,16,-1
EndSplineSet
EndChar

StartChar: oe
Encoding: 339 339 389
Width: 852
VWidth: 2441
GlyphClass: 1
Flags: HW
LayerCount: 2
Fore
SplineSet
187.84765625 119 m 0,0,1
 222.84765625 119 222.84765625 119 252.624023438 146 c 128,-1,2
 282.400390625 173 282.400390625 173 289.369140625 217 c 0,3,4
 290.478515625 224 290.478515625 224 292.239257812 273 c 0,5,6
 295.860351562 359 295.860351562 359 304.713867188 437 c 128,-1,7
 313.568359375 515 313.568359375 515 324.021484375 581 c 0,8,9
 346.51171875 723 346.51171875 723 365.416015625 795 c 128,-1,10
 384.319335938 867 384.319335938 867 386.853515625 883 c 0,11,12
 394.138671875 929 394.138671875 929 376.287109375 961.5 c 128,-1,13
 358.434570312 994 358.434570312 994 322.434570312 994 c 0,14,15
 283.434570312 994 283.434570312 994 240.256835938 955 c 128,-1,16
 197.080078125 916 197.080078125 916 159.166992188 825 c 128,-1,17
 121.25390625 734 121.25390625 734 97.337890625 583 c 0,18,19
 59.0087890625 341 59.0087890625 341 85.4287109375 230 c 128,-1,20
 111.84765625 119 111.84765625 119 187.84765625 119 c 0,0,1
455.384765625 678 m 1,21,-1
 740.384765625 678 l 1,22,23
 767.78515625 851 767.78515625 851 749.059570312 928.5 c 128,-1,24
 730.334960938 1006 730.334960938 1006 654.334960938 1006 c 0,25,26
 585.334960938 1006 585.334960938 1006 532.951171875 921.5 c 128,-1,27
 480.567382812 837 480.567382812 837 455.384765625 678 c 1,21,-1
531.248046875 -30 m 0,28,29
 408.248046875 -30 408.248046875 -30 337.770507812 68 c 1,30,31
 246.723632812 -27 246.723632812 -27 149.723632812 -27 c 0,32,33
 104.723632812 -27 104.723632812 -27 63.7626953125 -1.5 c 128,-1,34
 22.80078125 24 22.80078125 24 -6.1416015625 87.5 c 128,-1,35
 -35.083984375 151 -35.083984375 151 -41.607421875 264.5 c 128,-1,36
 -48.130859375 378 -48.130859375 378 -19.7802734375 557 c 0,37,38
 14.58984375 774 14.58984375 774 73.7041015625 901 c 128,-1,39
 132.819335938 1028 132.819335938 1028 202.951171875 1082.5 c 128,-1,40
 273.083007812 1137 273.083007812 1137 345.083007812 1137 c 0,41,42
 451.083007812 1137 451.083007812 1137 493.819335938 1028 c 1,43,44
 577.48046875 1137.00878906 577.48046875 1137.00878906 684.141601562 1137.00878906 c 0,0,0
 685.111328125 1137.00878906 685.111328125 1137.00878906 686.083007812 1137 c 0,45,46
 797.083007812 1137 797.083007812 1137 842.3984375 1028.5 c 128,-1,47
 887.713867188 920 887.713867188 920 851.443359375 691 c 2,48,-1
 827.52734375 540 l 1,49,-1
 431.52734375 540 l 1,50,51
 406.126953125 367 406.126953125 367 411.897460938 274 c 128,-1,52
 417.66796875 181 417.66796875 181 450.203125 146.5 c 128,-1,53
 482.739257812 112 482.739257812 112 538.739257812 112 c 0,54,55
 644.739257812 112 644.739257812 112 720.78515625 207 c 1,56,-1
 766.313476562 103 l 1,57,58
 652.248046875 -30 652.248046875 -30 531.248046875 -30 c 0,28,29
EndSplineSet
EndChar

StartChar: p
Encoding: 112 112 390
Width: 857
VWidth: 2304
GlyphClass: 2
Flags: HW
AnchorPoint: "Anchor-2" 369.848 119 basechar 0
AnchorPoint: "Anchor-0" 528.074 1118 basechar 0
LayerCount: 2
Fore
SplineSet
365.111328125 228 m 0,0,1
 428.111328125 228 428.111328125 228 491.337890625 261 c 128,-1,2
 554.565429688 294 554.565429688 294 604.606445312 379.5 c 128,-1,3
 654.6484375 465 654.6484375 465 679.198242188 620 c 0,4,5
 709.608398438 812 709.608398438 812 664.154296875 907 c 128,-1,6
 618.701171875 1002 618.701171875 1002 508.334960938 1006 c 0,7,8
 504.080078125 1006.16015625 504.080078125 1006.16015625 499.844726562 1006.16015625 c 0,9,10
 398.200195312 1006.16015625 398.200195312 1006.16015625 307.763671875 914 c 0,11,12
 213.55859375 818 213.55859375 818 176.655273438 585 c 1,13,14
 151.51171875 401 151.51171875 401 203.811523438 314.5 c 128,-1,15
 256.111328125 228 256.111328125 228 365.111328125 228 c 0,0,1
-100.962890625 -246 m 1,16,-1
 115.07421875 1118 l 1,17,-1
 261.07421875 1118 l 1,18,-1
 231.297851562 930 l 1,19,20
 278.927734375 1035 278.927734375 1035 361.743164062 1087.5 c 128,-1,21
 444.55859375 1140 444.55859375 1140 538.55859375 1140 c 0,22,23
 638.55859375 1140 638.55859375 1140 715.901367188 1088.5 c 128,-1,24
 793.245117188 1037 793.245117188 1037 826.267578125 923.5 c 128,-1,25
 859.291015625 810 859.291015625 810 830.1484375 626 c 128,-1,26
 801.005859375 442 801.005859375 442 728.895507812 324.5 c 128,-1,27
 656.78515625 207 656.78515625 207 561.178710938 149.5 c 128,-1,28
 465.571289062 92 465.571289062 92 367.571289062 92 c 0,29,30
 284.571289062 92 284.571289062 92 221.223632812 134 c 128,-1,31
 157.875976562 176 157.875976562 176 125.595703125 250 c 1,32,-1
 47.037109375 -246 l 1,33,-1
 -100.962890625 -246 l 1,16,-1
EndSplineSet
EndChar

StartChar: thorn
Encoding: 254 254 391
Width: 879
VWidth: 2374
GlyphClass: 1
Flags: HW
LayerCount: 2
Fore
SplineSet
378.170898438 241 m 0,0,1
 443.170898438 241 443.170898438 241 508.055664062 275 c 128,-1,2
 572.940429688 309 572.940429688 309 624.37890625 397 c 128,-1,3
 675.81640625 485 675.81640625 485 701 644 c 0,4,5
 732.201171875 841 732.201171875 841 685.72265625 939 c 128,-1,6
 639.245117188 1037 639.245117188 1037 524.877929688 1041 c 0,7,8
 520.610351562 1041.15625 520.610351562 1041.15625 516.361328125 1041.15625 c 0,0,0
 411.7421875 1041.15625 411.7421875 1041.15625 318.911132812 946.5 c 128,-1,9
 222.309570312 848 222.309570312 848 184.297851562 608 c 1,10,11
 158.36328125 419 158.36328125 419 212.266601562 330 c 128,-1,12
 266.170898438 241 266.170898438 241 378.170898438 241 c 0,0,1
195.216796875 1624 m 1,13,-1
 365.216796875 1624 l 1,14,-1
 362.682617188 1608 l 1,15,16
 347.623046875 1595 347.623046875 1595 341.588867188 1579 c 128,-1,17
 335.5546875 1563 335.5546875 1563 329.536132812 1525 c 2,18,-1
 240.524414062 963 l 1,19,20
 289.629882812 1071 289.629882812 1071 374.603515625 1124.5 c 128,-1,21
 459.577148438 1178 459.577148438 1178 555.577148438 1178 c 0,22,23
 658.577148438 1178 658.577148438 1178 738.26171875 1125.5 c 128,-1,24
 817.946289062 1073 817.946289062 1073 851.915039062 956 c 128,-1,25
 885.884765625 839 885.884765625 839 855.950195312 650 c 128,-1,26
 826.015625 461 826.015625 461 751.850585938 340 c 128,-1,27
 677.686523438 219 677.686523438 219 579.920898438 160.5 c 128,-1,28
 482.155273438 102 482.155273438 102 381.155273438 102 c 0,29,30
 295.155273438 102 295.155273438 102 229.88671875 144.5 c 128,-1,31
 164.618164062 187 164.618164062 187 132.813476562 264 c 1,32,-1
 52.037109375 -246 l 1,33,-1
 -100.962890625 -246 l 1,34,-1
 195.216796875 1624 l 1,13,-1
EndSplineSet
EndChar

StartChar: q
Encoding: 113 113 392
Width: 855
VWidth: 2305
GlyphClass: 1
Flags: HW
LayerCount: 2
Fore
SplineSet
372.745117188 232 m 0,0,1
 472.745117188 232 472.745117188 232 559.766601562 330 c 128,-1,2
 646.788085938 428 646.788085938 428 681.474609375 647 c 0,3,4
 714.1015625 853 714.1015625 853 662.748046875 936 c 128,-1,5
 611.393554688 1019 611.393554688 1019 512.393554688 1019 c 0,6,7
 399.393554688 1019 399.393554688 1019 308.6640625 926 c 128,-1,8
 217.934570312 833 217.934570312 833 185.624023438 629 c 0,9,10
 155.84765625 441 155.84765625 441 206.295898438 336.5 c 128,-1,11
 256.745117188 232 256.745117188 232 372.745117188 232 c 0,0,1
544.037109375 -246 m 1,12,-1
 626.081054688 272 l 1,13,14
 570.934570312 189 570.934570312 189 492.728515625 143.5 c 128,-1,15
 414.521484375 98 414.521484375 98 325.521484375 98 c 0,16,17
 218.521484375 98 218.521484375 98 145.158203125 162 c 128,-1,18
 71.794921875 226 71.794921875 226 41.5634765625 344.5 c 128,-1,19
 11.33203125 463 11.33203125 463 36.5146484375 622 c 0,20,21
 64.548828125 799 64.548828125 799 137.421875 915 c 128,-1,22
 210.293945312 1031 210.293945312 1031 308.901367188 1088.5 c 128,-1,23
 407.508789062 1146 407.508789062 1146 514.508789062 1146 c 0,24,25
 610.508789062 1146 610.508789062 1146 666.485351562 1098.5 c 128,-1,26
 722.461914062 1051 722.461914062 1051 742.6328125 970 c 1,27,-1
 766.232421875 1119 l 1,28,-1
 906.232421875 1119 l 1,29,-1
 690.037109375 -246 l 1,30,-1
 544.037109375 -246 l 1,12,-1
EndSplineSet
EndChar

StartChar: r
Encoding: 114 114 393
Width: 823
VWidth: 2441
GlyphClass: 2
Flags: HW
AnchorPoint: "Anchor-2" 283 0 basechar 0
AnchorPoint: "Anchor-0" 505.757 1116 basechar 0
LayerCount: 2
Fore
SplineSet
114.756835938 1116 m 1,0,-1
 284.756835938 1116 l 1,1,-1
 250.60546875 913 l 1,2,3
 310.34375 1025 310.34375 1025 410.109375 1083.5 c 128,-1,4
 509.875 1142 509.875 1142 609.875 1142 c 0,5,6
 770.875 1142 770.875 1142 858.551757812 1020 c 1,7,-1
 765.853515625 883 l 1,8,-1
 755.52734375 862 l 1,9,-1
 739.635742188 869 l 1,10,11
 735.645507812 888 735.645507812 888 729.733398438 907.5 c 128,-1,12
 723.822265625 927 723.822265625 927 699.256835938 955 c 1,13,14
 644.909179688 997 644.909179688 997 575.909179688 997 c 0,15,16
 502.909179688 997 502.909179688 997 424.098632812 954 c 128,-1,17
 345.288085938 911 345.288085938 911 283.61328125 821.5 c 128,-1,18
 221.9375 732 221.9375 732 199.60546875 591 c 2,19,-1
 105.68359375 -2 l 1,20,-1
 -62.31640625 -2 l 1,21,-1
 114.756835938 1116 l 1,0,-1
EndSplineSet
EndChar

StartChar: uni027B
Encoding: 635 635 399
Width: 937
VWidth: 2281
GlyphClass: 1
Flags: HW
LayerCount: 2
Fore
SplineSet
586.037109375 -246 m 0,0,1
 533.037109375 -246 533.037109375 -246 481.076171875 -220.5 c 128,-1,2
 429.115234375 -195 429.115234375 -195 402.092773438 -132 c 128,-1,3
 375.071289062 -69 375.071289062 -69 393.286132812 46 c 2,4,-1
 437.099609375 310 l 1,5,6
 388.418945312 211 388.418945312 211 311.420898438 160.5 c 128,-1,7
 234.421875 110 234.421875 110 155.421875 110 c 0,8,9
 96.421875 110 96.421875 110 53.3818359375 135 c 128,-1,10
 10.341796875 160 10.341796875 160 -28.10546875 214 c 1,11,-1
 45.7421875 333 l 1,12,-1
 55.91015625 353 l 1,13,-1
 68.2763671875 349 l 1,14,15
 71.583984375 332 71.583984375 332 73.890625 315 c 128,-1,16
 76.1982421875 298 76.1982421875 298 95.7138671875 276 c 0,17,18
 127.487304688 243 127.487304688 243 184.487304688 243 c 128,-1,19
 241.487304688 243 241.487304688 243 302.768554688 279.5 c 128,-1,20
 364.049804688 316 364.049804688 316 412.561523438 395 c 128,-1,21
 461.07421875 474 461.07421875 474 480.397460938 596 c 2,22,-1
 563.07421875 1118 l 1,23,-1
 703.07421875 1118 l 1,24,-1
 533.286132812 46 l 2,25,26
 520.931640625 -32 520.931640625 -32 549.4375 -73 c 128,-1,27
 577.944335938 -114 577.944335938 -114 627.944335938 -114 c 0,28,29
 645.944335938 -114 645.944335938 -114 665.236328125 -109 c 128,-1,30
 684.528320312 -104 684.528320312 -104 706.745117188 -90 c 0,31,32
 722.012695312 -82 722.012695312 -82 727.150390625 -68.5 c 128,-1,33
 732.2890625 -55 732.2890625 -55 743.239257812 -49 c 1,34,-1
 769.233398438 -169 l 1,35,36
 693.037109375 -246 693.037109375 -246 586.037109375 -246 c 0,0,1
EndSplineSet
EndChar

StartChar: uni024D
Encoding: 589 589 402
Width: 922
VWidth: 2441
GlyphClass: 2
Flags: HW
AnchorPoint: "Anchor-2" 413 0 basechar 0
AnchorPoint: "Anchor-0" 632.757 1116 basechar 0
LayerCount: 2
Fore
SplineSet
4.521484375 420 m 1,0,-1
 26.537109375 559 l 1,1,-1
 183.537109375 559 l 1,2,-1
 271.756835938 1116 l 1,3,-1
 429.756835938 1116 l 1,4,-1
 394.60546875 913 l 1,5,6
 450.34375 1025 450.34375 1025 543.609375 1083.5 c 128,-1,7
 636.875 1142 636.875 1142 728.875 1142 c 0,8,9
 876.875 1142 876.875 1142 957.551757812 1020 c 1,10,-1
 869.853515625 883 l 1,11,-1
 859.52734375 862 l 1,12,-1
 845.635742188 869 l 1,13,14
 841.645507812 888 841.645507812 888 836.733398438 907.5 c 128,-1,15
 831.822265625 927 831.822265625 927 809.256835938 955 c 1,16,17
 759.909179688 997 759.909179688 997 696.909179688 997 c 0,18,19
 629.909179688 997 629.909179688 997 556.098632812 954 c 128,-1,20
 482.288085938 911 482.288085938 911 424.11328125 821.5 c 128,-1,21
 365.9375 732 365.9375 732 343.60546875 591 c 2,22,-1
 338.537109375 559 l 1,23,-1
 573.537109375 559 l 1,24,-1
 551.521484375 420 l 1,25,-1
 316.521484375 420 l 1,26,-1
 249.68359375 -2 l 1,27,-1
 94.68359375 -2 l 1,28,-1
 161.521484375 420 l 1,29,-1
 4.521484375 420 l 1,0,-1
EndSplineSet
EndChar

StartChar: s
Encoding: 115 115 403
Width: 907
VWidth: 2441
GlyphClass: 1
Flags: HW
LayerCount: 2
Fore
SplineSet
360.19921875 -24 m 0,0,1
 228.19921875 -24 228.19921875 -24 128.192382812 17 c 128,-1,2
 28.1865234375 58 28.1865234375 58 -39.984375 139 c 1,3,-1
 73.1982421875 298 l 1,4,-1
 88.5244140625 319 l 1,5,-1
 103.099609375 310 l 1,6,7
 105.08984375 291 105.08984375 291 107.263671875 270 c 128,-1,8
 109.4375 249 109.4375 249 132.686523438 219 c 0,9,10
 171.400390625 173 171.400390625 173 230.465820312 145 c 128,-1,11
 289.53125 117 289.53125 117 386.53125 117 c 0,12,13
 503.53125 117 503.53125 117 578.791992188 166 c 128,-1,14
 654.052734375 215 654.052734375 215 667.515625 300 c 0,15,16
 678.602539062 370 678.602539062 370 631.045898438 417 c 128,-1,17
 583.490234375 464 583.490234375 464 452.250976562 513 c 0,18,19
 288.4375 571 288.4375 571 198.345703125 652.5 c 128,-1,20
 108.25390625 734 108.25390625 734 128.051757812 859 c 0,21,22
 148.008789062 985 148.008789062 985 254.44140625 1063.5 c 128,-1,23
 360.875 1142 360.875 1142 546.875 1142 c 0,24,25
 688.875 1142 688.875 1142 774.643554688 1099.5 c 128,-1,26
 860.412109375 1057 860.412109375 1057 919.94921875 972 c 1,27,-1
 808.943359375 852 l 1,28,-1
 790.458984375 830 l 1,29,-1
 777.518554688 843 l 1,30,31
 778.52734375 862 778.52734375 862 775.116210938 881.5 c 128,-1,32
 771.704101562 901 771.704101562 901 749.297851562 930 c 1,33,34
 706.94921875 972 706.94921875 972 648.196289062 992.5 c 128,-1,35
 589.443359375 1013 589.443359375 1013 531.443359375 1013 c 0,36,37
 438.443359375 1013 438.443359375 1013 371.583007812 976 c 128,-1,38
 304.72265625 939 304.72265625 939 293.953125 871 c 0,39,40
 284.291015625 810 284.291015625 810 331.372070312 760 c 128,-1,41
 378.453125 710 378.453125 710 539.266601562 652 c 0,42,43
 714.813476562 586 714.813476562 586 783.305664062 516.5 c 128,-1,44
 851.797851562 447 851.797851562 447 832.31640625 324 c 0,45,46
 808.716796875 175 808.716796875 175 687.958007812 75.5 c 128,-1,47
 567.19921875 -24 567.19921875 -24 360.19921875 -24 c 0,0,1
EndSplineSet
EndChar

StartChar: germandbls
Encoding: 223 223 414
Width: 922
VWidth: 2441
GlyphClass: 1
Flags: HW
LayerCount: 2
Fore
SplineSet
409.19921875 -24 m 0,0,1
 283.19921875 -24 283.19921875 -24 203.760742188 49 c 1,2,-1
 296.142578125 184 l 1,3,4
 348.956054688 126 348.956054688 126 439.639648438 124 c 0,5,6
 497.639648438 124 497.639648438 124 558.504882812 170.5 c 128,-1,7
 619.369140625 217 619.369140625 217 664.223632812 295 c 128,-1,8
 709.077148438 373 709.077148438 373 724.598632812 471 c 0,9,10
 745.981445312 606 745.981445312 606 686.473632812 697.5 c 128,-1,11
 626.96484375 789 626.96484375 789 459.96484375 789 c 2,12,-1
 396.96484375 789 l 1,13,-1
 418.822265625 927 l 1,14,-1
 493.822265625 927 l 2,15,16
 570.822265625 927 570.822265625 927 646.013671875 994.5 c 128,-1,17
 721.204101562 1062 721.204101562 1062 742.5859375 1197 c 0,18,19
 762.225585938 1321 762.225585938 1321 712.688476562 1406 c 128,-1,20
 663.151367188 1491 663.151367188 1491 563.151367188 1491 c 0,21,22
 448.151367188 1491 448.151367188 1491 365.274414062 1365.5 c 128,-1,23
 282.396484375 1240 282.396484375 1240 250.245117188 1037 c 2,24,-1
 86 0 l 1,25,-1
 -62 0 l 1,26,-1
 101.453125 1032 l 2,27,28
 150.869140625 1344 150.869140625 1344 277.254882812 1488.5 c 128,-1,29
 403.641601562 1633 403.641601562 1633 565.641601562 1633 c 0,30,31
 678.641601562 1633 678.641601562 1633 759.114257812 1576 c 128,-1,32
 839.5859375 1519 839.5859375 1519 876.064453125 1421 c 128,-1,33
 912.54296875 1323 912.54296875 1323 893.6953125 1204 c 0,34,35
 877.064453125 1099 877.064453125 1099 820.126953125 1011 c 128,-1,36
 763.188476562 923 763.188476562 923 679.745117188 876 c 1,37,38
 790.775390625 832 790.775390625 832 841.377929688 719 c 128,-1,39
 891.981445312 606 891.981445312 606 866.005859375 442 c 0,40,41
 844.307617188 305 844.307617188 305 780.176757812 200 c 128,-1,42
 716.046875 95 716.046875 95 620.123046875 35.5 c 128,-1,43
 524.19921875 -24 524.19921875 -24 409.19921875 -24 c 0,0,1
EndSplineSet
EndChar

StartChar: t
Encoding: 116 116 415
Width: 891
VWidth: 2441
GlyphClass: 2
Flags: HW
AnchorPoint: "Anchor-4" 373.688 762 basechar 0
AnchorPoint: "Anchor-2" 343 0 basechar 0
AnchorPoint: "Anchor-1" 641.757 1116 basechar 0
AnchorPoint: "Anchor-0" 527.856 1426 basechar 0
LayerCount: 2
Fore
SplineSet
442.990234375 -19 m 0,0,1
 312.990234375 -19 312.990234375 -19 254.96875 44 c 128,-1,2
 196.947265625 107 196.947265625 107 196.883789062 245.5 c 0,3,4
 196.831054688 358.3515625 196.831054688 358.3515625 223.486328125 526.641601562 c 0,5,6
 229.543945312 564.888671875 229.543945312 564.888671875 236.981445312 606 c 2,7,-1
 306.158203125 967 l 1,8,-1
 91.158203125 967 l 1,9,-1
 113.6484375 1109 l 1,10,-1
 332.6484375 1109 l 1,11,-1
 389.0546875 1402 l 1,12,-1
 564.380859375 1423 l 1,13,-1
 587.856445312 1426 l 1,14,-1
 588.1640625 1409 l 1,15,16
 573.470703125 1392 573.470703125 1392 562.278320312 1375 c 128,-1,17
 551.0859375 1358 551.0859375 1358 539.43359375 1316 c 2,18,-1
 491.6484375 1109 l 1,19,-1
 840.6484375 1109 l 1,20,-1
 818.158203125 967 l 1,21,-1
 471.158203125 967 l 1,22,-1
 398.080078125 594 l 2,23,24
 386.580078125 535.454101562 386.580078125 535.454101562 378.630859375 485.26171875 c 0,25,26
 361.595703125 377.704101562 361.595703125 377.704101562 360.861328125 308.5 c 0,27,28
 359.78515625 207 359.78515625 207 391.87109375 166.5 c 128,-1,29
 423.956054688 126 423.956054688 126 489.956054688 126 c 0,30,31
 562.956054688 126 562.956054688 126 625.603515625 158.5 c 128,-1,32
 688.250976562 191 688.250976562 191 753.537109375 237 c 1,33,-1
 780.521484375 98 l 1,34,35
 695.860351562 37 695.860351562 37 612.42578125 9 c 128,-1,36
 528.990234375 -19 528.990234375 -19 442.990234375 -19 c 0,0,1
EndSplineSet
EndChar

StartChar: tbar
Encoding: 359 359 416
Width: 908
VWidth: 2441
GlyphClass: 2
Flags: HW
AnchorPoint: "Anchor-4" 389.688 762 basechar 0
AnchorPoint: "Anchor-2" 360 0 basechar 0
AnchorPoint: "Anchor-1" 658.757 1116 basechar 0
AnchorPoint: "Anchor-0" 543.856 1426 basechar 0
LayerCount: 2
Fore
SplineSet
23.2109375 538 m 1,0,-1
 45.068359375 676 l 1,1,-1
 267.068359375 676 l 1,2,-1
 322.158203125 967 l 1,3,-1
 108.158203125 967 l 1,4,-1
 130.6484375 1109 l 1,5,-1
 349.6484375 1109 l 1,6,-1
 406.0546875 1402 l 1,7,-1
 580.380859375 1423 l 1,8,-1
 604.856445312 1426 l 1,9,-1
 604.1640625 1409 l 1,10,11
 589.470703125 1392 589.470703125 1392 578.778320312 1375 c 128,-1,12
 568.0859375 1358 568.0859375 1358 556.43359375 1316 c 2,13,-1
 508.6484375 1109 l 1,14,-1
 857.6484375 1109 l 1,15,-1
 835.158203125 967 l 1,16,-1
 488.158203125 967 l 1,17,-1
 430.068359375 676 l 1,18,-1
 767.068359375 676 l 1,19,-1
 745.2109375 538 l 1,20,-1
 403.2109375 538 l 1,21,22
 400.155273438 520.111328125 400.155273438 520.111328125 397.461914062 503.104492188 c 0,23,24
 375.9140625 367.055664062 375.9140625 367.055664062 377.53515625 287.5 c 0,25,26
 379.360351562 198 379.360351562 198 412.658203125 162 c 128,-1,27
 445.956054688 126 445.956054688 126 505.956054688 126 c 0,28,29
 578.956054688 126 578.956054688 126 642.103515625 158.5 c 128,-1,30
 705.250976562 191 705.250976562 191 770.537109375 237 c 1,31,-1
 797.521484375 98 l 1,32,33
 712.860351562 37 712.860351562 37 628.92578125 9 c 128,-1,34
 544.990234375 -19 544.990234375 -19 459.990234375 -19 c 0,35,36
 275.990234375 -19 275.990234375 -19 233.66015625 111.5 c 0,37,38
 193.856445312 234.208984375 193.856445312 234.208984375 236.467773438 503.247070312 c 0,39,40
 239.172851562 520.328125 239.172851562 520.328125 242.2109375 538 c 1,41,-1
 23.2109375 538 l 1,0,-1
EndSplineSet
EndChar

StartChar: u
Encoding: 117 117 423
Width: 894
VWidth: 2441
GlyphClass: 2
Flags: HW
AnchorPoint: "Anchor-3" 626 0 basechar 0
AnchorPoint: "Anchor-2" 302 0 basechar 0
AnchorPoint: "Anchor-1" 920.757 1116 basechar 0
AnchorPoint: "Anchor-0" 519.757 1116 basechar 0
LayerCount: 2
Fore
SplineSet
278.723632812 -27 m 0,0,1
 124.723632812 -27 124.723632812 -27 47.150390625 92.5 c 0,2,3
 -28.84765625 209.573242188 -28.84765625 209.573242188 14.3984375 482.615234375 c 0,4,5
 15.2939453125 488.274414062 15.2939453125 488.274414062 16.2421875 494 c 2,6,-1
 116.756835938 1116 l 1,7,-1
 277.756835938 1116 l 1,8,-1
 179.2421875 494 l 2,9,10
 155.326171875 343 155.326171875 343 171.837890625 261 c 128,-1,11
 188.350585938 179 188.350585938 179 233.044921875 145.5 c 128,-1,12
 277.739257812 112 277.739257812 112 338.739257812 112 c 0,13,14
 443.739257812 112 443.739257812 112 538.126953125 206 c 128,-1,15
 632.515625 300 632.515625 300 664.350585938 501 c 2,16,-1
 761.756835938 1116 l 1,17,-1
 922.756835938 1116 l 1,18,-1
 773.400390625 173 l 2,19,20
 766.431640625 129 766.431640625 129 762.200195312 86.5 c 128,-1,21
 757.96875 44 757.96875 44 768 0 c 1,22,-1
 612 0 l 1,23,24
 601.65234375 42 601.65234375 42 604.645507812 83 c 128,-1,25
 607.639648438 124 607.639648438 124 614.291992188 166 c 1,26,27
 555.87890625 75 555.87890625 75 467.30078125 24 c 128,-1,28
 378.723632812 -27 378.723632812 -27 278.723632812 -27 c 0,0,1
EndSplineSet
EndChar

StartChar: v
Encoding: 118 118 446
Width: 922
VWidth: 2441
GlyphClass: 2
Flags: HW
AnchorPoint: "Anchor-2" 371 0 basechar 0
AnchorPoint: "Anchor-0" 547.757 1116 basechar 0
LayerCount: 2
Fore
SplineSet
310 0 m 1,0,-1
 114.756835938 1116 l 1,1,-1
 270.756835938 1116 l 1,2,-1
 417.12109375 247 l 1,3,-1
 630.583007812 654 l 2,4,5
 701.96484375 789 701.96484375 789 749.100585938 903.5 c 128,-1,6
 796.235351562 1018 796.235351562 1018 825.756835938 1116 c 1,7,-1
 972.756835938 1116 l 1,8,9
 906.080078125 916 906.080078125 916 757.306640625 627 c 2,10,-1
 433 0 l 1,11,-1
 310 0 l 1,0,-1
EndSplineSet
EndChar

StartChar: w
Encoding: 119 119 447
Width: 920
VWidth: 2441
GlyphClass: 2
Flags: HW
AnchorPoint: "Anchor-2" 367 0 basechar 0
AnchorPoint: "Anchor-0" 543.757 1116 basechar 0
LayerCount: 2
Fore
SplineSet
102.68359375 -2 m 1,0,-1
 111.756835938 1116 l 1,1,-1
 234.756835938 1116 l 1,2,-1
 227.745117188 232 l 1,3,-1
 484.958984375 991 l 1,4,-1
 574.958984375 991 l 1,5,-1
 627.220703125 235 l 1,6,7
 681.897460938 435 681.897460938 435 718.516601562 571.5 c 128,-1,8
 755.135742188 708 755.135742188 708 777.366210938 801 c 128,-1,9
 799.595703125 894 799.595703125 894 812.811523438 958.5 c 128,-1,10
 826.02734375 1023 826.02734375 1023 834.896484375 1079 c 2,11,-1
 840.756835938 1116 l 1,12,-1
 969.756835938 1116 l 1,13,14
 897.775390625 832 897.775390625 832 819.166015625 553.5 c 128,-1,15
 740.555664062 275 740.555664062 275 655.68359375 -2 c 1,16,-1
 519.68359375 -2 l 1,17,-1
 484.02734375 701 l 1,18,-1
 231.68359375 -2 l 1,19,-1
 102.68359375 -2 l 1,0,-1
EndSplineSet
EndChar

StartChar: x
Encoding: 120 120 452
Width: 922
VWidth: 2441
GlyphClass: 2
Flags: HW
AnchorPoint: "Anchor-2" 365 0 basechar 0
AnchorPoint: "Anchor-0" 541.757 1116 basechar 0
LayerCount: 2
Fore
SplineSet
-62 0 m 1,0,-1
 363.645507812 566 l 1,1,-1
 121.756835938 1116 l 1,2,-1
 289.756835938 1116 l 1,3,-1
 472.135742188 708 l 1,4,-1
 774.756835938 1116 l 1,5,-1
 930.756835938 1116 l 1,6,-1
 536.75390625 573 l 1,7,-1
 796 0 l 1,8,-1
 621 0 l 1,9,-1
 427.947265625 429 l 1,10,-1
 113 0 l 1,11,-1
 -62 0 l 1,0,-1
EndSplineSet
EndChar

StartChar: y
Encoding: 121 121 453
Width: 882
VWidth: 2286
GlyphClass: 2
Flags: HW
AnchorPoint: "Anchor-2" 634.432 129 basechar 0
AnchorPoint: "Anchor-0" 563.757 1116 basechar 0
LayerCount: 2
Fore
SplineSet
102.037109375 -246 m 0,0,1
 -22.962890625 -246 -22.962890625 -246 -87.658203125 -162 c 1,2,-1
 -10.869140625 -56 l 1,3,-1
 4.1396484375 -37 l 1,4,-1
 14.7138671875 -46 l 1,5,6
 16.021484375 -63 16.021484375 -63 23.962890625 -76 c 128,-1,7
 31.9033203125 -89 31.9033203125 -89 58.578125 -110 c 1,8,9
 91.8359375 -121 91.8359375 -121 130.676757812 -122 c 0,10,11
 208.676757812 -122 208.676757812 -122 259.313476562 -58 c 128,-1,12
 309.950195312 6 309.950195312 6 364.115234375 127 c 1,13,-1
 159.756835938 1116 l 1,14,-1
 310.756835938 1116 l 1,15,-1
 459.692382812 339 l 1,16,-1
 633.51171875 723 l 2,17,18
 677.192382812 822 677.192382812 822 719.634765625 919.5 c 128,-1,19
 762.077148438 1017 762.077148438 1017 788.756835938 1116 c 1,20,-1
 932.756835938 1116 l 1,21,22
 904.077148438 1017 904.077148438 1017 857.921875 915 c 128,-1,23
 811.766601562 813 811.766601562 813 765.76953125 712 c 2,24,-1
 432.850585938 18 l 2,25,26
 363.043945312 -126 363.043945312 -126 280.040039062 -186 c 128,-1,27
 197.037109375 -246 197.037109375 -246 102.037109375 -246 c 0,0,1
EndSplineSet
EndChar

StartChar: z
Encoding: 122 122 463
Width: 922
VWidth: 2441
GlyphClass: 2
Flags: HW
AnchorPoint: "Anchor-2" 379 0 basechar 0
AnchorPoint: "Anchor-0" 555.757 1116 basechar 0
LayerCount: 2
Fore
SplineSet
-43.46875 117 m 1,0,-1
 696.158203125 967 l 1,1,-1
 136.158203125 967 l 1,2,-1
 159.756835938 1116 l 1,3,-1
 920.756835938 1116 l 1,4,-1
 902.225585938 999 l 1,5,-1
 173.282226562 147 l 1,6,-1
 714.282226562 147 l 2,7,8
 755.282226562 147 755.282226562 147 772.995117188 151.5 c 128,-1,9
 790.708007812 156 790.708007812 156 806.92578125 170 c 1,10,-1
 822.92578125 170 l 1,11,-1
 796 0 l 1,12,-1
 -62 0 l 1,13,-1
 -43.46875 117 l 1,0,-1
EndSplineSet
EndChar

StartChar: u.i
Encoding: 65539 -1 468
Width: 852
VWidth: 2441
GlyphClass: 2
Flags: HW
AnchorPoint: "Anchor-3" 612 0 basechar 0
AnchorPoint: "Anchor-2" 302 0 basechar 0
AnchorPoint: "Anchor-1" 863.757 1116 basechar 0
AnchorPoint: "Anchor-0" 492.757 1116 basechar 0
LayerCount: 2
Fore
SplineSet
260.723632812 -27 m 0,0,1
 113.723632812 -27 113.723632812 -27 41.650390625 92.5 c 0,2,3
 -28.8720703125 209.4296875 -28.8720703125 209.4296875 14.2900390625 481.946289062 c 0,4,5
 15.23828125 487.935546875 15.23828125 487.935546875 16.2421875 494 c 2,6,-1
 116.756835938 1116 l 1,7,-1
 270.756835938 1116 l 1,8,-1
 172.2421875 494 l 2,9,10
 148.326171875 343 148.326171875 343 163.337890625 261 c 128,-1,11
 178.350585938 179 178.350585938 179 221.044921875 145.5 c 128,-1,12
 263.739257812 112 263.739257812 112 321.739257812 112 c 0,13,14
 419.739257812 112 419.739257812 112 510.126953125 206 c 128,-1,15
 600.515625 300 600.515625 300 632.350585938 501 c 2,16,-1
 729.756835938 1116 l 1,17,-1
 883.756835938 1116 l 1,18,-1
 734.400390625 173 l 2,19,20
 727.431640625 129 727.431640625 129 723.200195312 86.5 c 128,-1,21
 718.96875 44 718.96875 44 726 0 c 1,22,-1
 577 0 l 1,23,24
 569.65234375 42 569.65234375 42 572.645507812 83 c 128,-1,25
 575.639648438 124 575.639648438 124 582.291992188 166 c 1,26,27
 523.87890625 75 523.87890625 75 439.80078125 24 c 128,-1,28
 355.723632812 -27 355.723632812 -27 260.723632812 -27 c 0,0,1
EndSplineSet
EndChar

StartChar: r.serif
Encoding: 65540 -1 469
Width: 922
VWidth: 2441
GlyphClass: 1
Flags: HW
LayerCount: 2
Fore
SplineSet
-62.31640625 -2 m 1,0,-1
 -41.0927734375 132 l 1,1,-1
 92.9072265625 132 l 1,2,-1
 226.583007812 976 l 1,3,-1
 97.5830078125 976 l 1,4,-1
 119.756835938 1116 l 1,5,-1
 412.756835938 1116 l 1,6,-1
 372.49609375 906 l 1,7,8
 436.443359375 1013 436.443359375 1013 530.500976562 1076.5 c 128,-1,9
 624.55859375 1140 624.55859375 1140 727.55859375 1140 c 0,10,11
 872.55859375 1140 872.55859375 1140 957.551757812 1020 c 1,12,-1
 858.943359375 852 l 1,13,14
 843.735351562 857 843.735351562 857 835.219726562 879 c 128,-1,15
 826.704101562 901 826.704101562 901 812.743164062 926.5 c 128,-1,16
 798.782226562 952 798.782226562 952 768.370117188 971.5 c 128,-1,17
 737.958984375 991 737.958984375 991 671.958984375 991 c 0,18,19
 601.958984375 991 601.958984375 991 526.456054688 931 c 128,-1,20
 450.953125 871 450.953125 871 393.510742188 773.5 c 128,-1,21
 336.068359375 676 336.068359375 676 317.853515625 561 c 2,22,-1
 249.907226562 132 l 1,23,-1
 448.907226562 132 l 1,24,-1
 427.68359375 -2 l 1,25,-1
 -62.31640625 -2 l 1,0,-1
EndSplineSet
EndChar

StartChar: ordfeminine
Encoding: 170 170 470
Width: 833
VWidth: 2441
GlyphClass: 1
Flags: HW
LayerCount: 2
Fore
SplineSet
19.568359375 515 m 1,0,-1
 788.568359375 515 l 1,1,-1
 768.13671875 386 l 1,2,-1
 -0.86328125 386 l 1,3,-1
 19.568359375 515 l 1,0,-1
271.329101562 886 m 0,4,5
 259.450195312 811 259.450195312 811 295.119140625 780.5 c 128,-1,6
 330.788085938 750 330.788085938 750 389.788085938 750 c 0,7,8
 613.788085938 750 613.788085938 750 676.095703125 1055 c 1,9,10
 607.204101562 1062 607.204101562 1062 548.204101562 1062 c 0,11,12
 431.204101562 1062 431.204101562 1062 358.630859375 1020.5 c 128,-1,13
 286.05859375 979 286.05859375 979 271.329101562 886 c 0,4,5
352.624023438 629 m 0,14,15
 228.624023438 629 228.624023438 629 171.2109375 699 c 128,-1,16
 113.797851562 769 113.797851562 769 130.427734375 874 c 0,17,18
 154.02734375 1023 154.02734375 1023 273.72265625 1100 c 128,-1,19
 393.418945312 1177 393.418945312 1177 559.418945312 1177 c 0,20,21
 589.418945312 1177 589.418945312 1177 623.180664062 1175.5 c 128,-1,22
 656.943359375 1174 656.943359375 1174 692.151367188 1169 c 1,23,24
 704.166992188 1308 704.166992188 1308 663.323242188 1359.5 c 128,-1,25
 622.48046875 1411 622.48046875 1411 525.48046875 1411 c 0,26,27
 471.48046875 1411 471.48046875 1411 420.733398438 1390.5 c 128,-1,28
 369.986328125 1370 369.986328125 1370 320.017578125 1326 c 1,29,-1
 265.747070312 1419 l 1,30,31
 328.93359375 1477 328.93359375 1477 401.368164062 1505 c 128,-1,32
 473.803710938 1533 473.803710938 1533 554.803710938 1533 c 0,33,34
 654.803710938 1533 654.803710938 1533 722.259765625 1498 c 128,-1,35
 789.716796875 1463 789.716796875 1463 814.803710938 1372 c 128,-1,36
 839.890625 1281 839.890625 1281 814.07421875 1118 c 2,37,-1
 740.266601562 652 l 1,38,-1
 595.266601562 652 l 1,39,-1
 614.58984375 774 l 1,40,41
 558.651367188 686 558.651367188 686 487.137695312 657.5 c 128,-1,42
 415.624023438 629 415.624023438 629 352.624023438 629 c 0,14,15
EndSplineSet
EndChar

StartChar: ordmasculine
Encoding: 186 186 471
Width: 833
VWidth: 2441
GlyphClass: 1
Flags: HW
LayerCount: 2
Fore
SplineSet
19.568359375 515 m 1,0,-1
 788.568359375 515 l 1,1,-1
 768.13671875 386 l 1,2,-1
 -0.86328125 386 l 1,3,-1
 19.568359375 515 l 1,0,-1
442.213867188 759 m 128,-1,5
 533.213867188 759 533.213867188 759 601.4140625 845.5 c 128,-1,6
 669.614257812 932 669.614257812 932 694.005859375 1086 c 0,7,8
 718.713867188 1242 718.713867188 1242 676.096679688 1326.5 c 128,-1,9
 633.48046875 1411 633.48046875 1411 545.48046875 1411 c 128,-1,10
 457.48046875 1411 457.48046875 1411 388.096679688 1326.5 c 128,-1,11
 318.713867188 1242 318.713867188 1242 294.005859375 1086 c 0,12,13
 269.614257812 932 269.614257812 932 310.4140625 845.5 c 128,-1,4
 351.213867188 759 351.213867188 759 442.213867188 759 c 128,-1,5
422.416015625 634 m 0,14,15
 273.416015625 634 273.416015625 634 194.184570312 752.5 c 128,-1,16
 114.953125 871 114.953125 871 148.688476562 1084 c 0,17,18
 182.266601562 1296 182.266601562 1296 299.03515625 1414.5 c 128,-1,19
 415.803710938 1533 415.803710938 1533 564.803710938 1533 c 0,20,21
 715.803710938 1533 715.803710938 1533 793.53515625 1414.5 c 128,-1,22
 871.266601562 1296 871.266601562 1296 837.688476562 1084 c 128,-1,23
 804.111328125 872 804.111328125 872 688.763671875 753 c 128,-1,24
 573.416015625 634 573.416015625 634 422.416015625 634 c 0,14,15
EndSplineSet
EndChar

StartChar: uni2124
Encoding: 8484 8484 473
Width: 922
VWidth: 2441
GlyphClass: 1
Flags: HW
LayerCount: 2
Fore
SplineSet
919.272460938 1416 m 1,0,-1
 797.272460938 1416 l 1,1,-1
 55.3134765625 103 l 1,2,-1
 182.313476562 103 l 1,3,-1
 919.272460938 1416 l 1,0,-1
1036.90234375 1521 m 1,4,-1
 1018.0546875 1402 l 1,5,-1
 288.313476562 103 l 1,6,-1
 709.313476562 103 l 2,7,8
 746.313476562 103 746.313476562 103 763.526367188 107.5 c 128,-1,9
 780.739257812 112 780.739257812 112 797.956054688 126 c 1,10,-1
 813.956054688 126 l 1,11,-1
 794 0 l 1,12,-1
 -62 0 l 1,13,-1
 -43.15234375 119 l 1,14,-1
 695.272460938 1416 l 1,15,-1
 166.272460938 1416 l 1,16,-1
 182.90234375 1521 l 1,17,-1
 1036.90234375 1521 l 1,4,-1
EndSplineSet
EndChar

StartChar: zero
Encoding: 48 48 474
Width: 916
VWidth: 2441
GlyphClass: 1
Flags: HW
LayerCount: 2
Fore
SplineSet
384.84765625 119 m 0,0,1
 506.84765625 119 506.84765625 119 601.926757812 280.5 c 128,-1,2
 697.005859375 442 697.005859375 442 746.10546875 752 c 0,3,4
 766.6953125 882 766.6953125 882 769.483398438 988 c 1,5,-1
 207.850585938 340 l 1,6,7
 240.84765625 119 240.84765625 119 384.84765625 119 c 0,0,1
224.10546875 752 m 0,8,9
 199.713867188 598 199.713867188 598 198.024414062 480 c 1,10,-1
 763.083007812 1137 l 1,11,12
 749.930664062 1256 749.930664062 1256 705.067382812 1320 c 128,-1,13
 660.204101562 1384 660.204101562 1384 585.204101562 1384 c 0,14,15
 463.204101562 1384 463.204101562 1384 367.095703125 1216 c 128,-1,16
 270.987304688 1048 270.987304688 1048 224.10546875 752 c 0,8,9
361.723632812 -27 m 128,-1,18
 156.723632812 -27 156.723632812 -27 76.7421875 172 c 128,-1,19
 -3.2392578125 371 -3.2392578125 371 57.10546875 752 c 0,20,21
 115.390625 1120 115.390625 1120 259.438476562 1325.5 c 128,-1,22
 403.486328125 1531 403.486328125 1531 608.486328125 1531 c 128,-1,23
 813.486328125 1531 813.486328125 1531 890.517578125 1326 c 128,-1,24
 967.548828125 1121 967.548828125 1121 909.10546875 752 c 0,25,26
 848.918945312 372 848.918945312 372 707.821289062 172.5 c 128,-1,17
 566.723632812 -27 566.723632812 -27 361.723632812 -27 c 128,-1,18
EndSplineSet
Substitution2: "'ss02' Style Set 2 in Latin lookup 36 subtable" zero.ss02
Substitution2: "'zero' Slashed Zero in Latin lookup 33 subtable" zero.zero
Substitution2: "'frac' Diagonal Fractions in Latin lookup 24 subtable" zero.numr
Substitution2: "'dnom' Denominators in Latin lookup 22 subtable" zero.dnom
Substitution2: "'numr' Numerators in Latin lookup 21 subtable" zero.numr
Substitution2: "'sups' Superscript in Latin lookup 20 subtable" uni2070
Substitution2: "'subs' Subscript in Latin lookup 19 subtable" uni2080
AlternateSubs2: "'aalt' Access All Alternates in Latin lookup 1 subtable" zero.zero zero.ss02 uni2080 zero.dnom zero.numr uni2070
EndChar

StartChar: one
Encoding: 49 49 475
Width: 537
VWidth: 2441
GlyphClass: 1
Flags: HW
LayerCount: 2
Fore
SplineSet
248 0 m 1,0,-1
 455.008789062 1307 l 1,1,-1
 163.595703125 1216 l 1,2,-1
 146.43359375 1316 l 1,3,-1
 540.219726562 1523 l 1,4,-1
 652.219726562 1523 l 1,5,-1
 411 0 l 1,6,-1
 248 0 l 1,0,-1
EndSplineSet
Substitution2: "'frac' Diagonal Fractions in Latin lookup 24 subtable" one.numr
Substitution2: "'dnom' Denominators in Latin lookup 22 subtable" one.dnom
Substitution2: "'numr' Numerators in Latin lookup 21 subtable" one.numr
Substitution2: "'sups' Superscript in Latin lookup 20 subtable" uni00B9
Substitution2: "'subs' Subscript in Latin lookup 19 subtable" uni2081
AlternateSubs2: "'aalt' Access All Alternates in Latin lookup 1 subtable" uni2081 one.dnom one.numr uni00B9
EndChar

StartChar: two
Encoding: 50 50 476
Width: 902
VWidth: 2441
GlyphClass: 1
Flags: HW
LayerCount: 2
Fore
SplineSet
-5.6181640625 135 m 1,0,1
 225.860351562 359 225.860351562 359 393.018554688 521 c 128,-1,2
 560.176757812 683 560.176757812 683 657.216796875 819 c 128,-1,3
 754.256835938 955 754.256835938 955 780.380859375 1101 c 0,4,5
 805.564453125 1260 805.564453125 1260 748.883789062 1322 c 128,-1,6
 692.204101562 1384 692.204101562 1384 597.204101562 1384 c 0,7,8
 518.204101562 1384 518.204101562 1384 446.319335938 1350 c 128,-1,9
 374.43359375 1316 374.43359375 1316 308.396484375 1240 c 1,10,11
 283.536132812 1203 283.536132812 1203 275.34375 1186 c 128,-1,12
 267.151367188 1169 267.151367188 1169 269.142578125 1150 c 1,13,-1
 259.766601562 1135 l 1,14,-1
 239.825195312 1148 l 1,15,-1
 133.288085938 1233 l 1,16,17
 221.303710938 1372 221.303710938 1372 347.39453125 1451.5 c 128,-1,18
 473.486328125 1531 473.486328125 1531 617.486328125 1531 c 0,19,20
 796.486328125 1531 796.486328125 1531 885.8515625 1416.5 c 128,-1,21
 975.216796875 1302 975.216796875 1302 942.748046875 1097 c 0,22,23
 916.456054688 931 916.456054688 931 808.540039062 780 c 128,-1,24
 700.624023438 629 700.624023438 629 540.311523438 475.5 c 128,-1,25
 380 322 380 322 201.282226562 147 c 1,26,-1
 692.282226562 147 l 2,27,28
 734.282226562 147 734.282226562 147 751.495117188 151.5 c 128,-1,29
 768.708007812 156 768.708007812 156 785.92578125 170 c 1,30,-1
 802.92578125 170 l 1,31,-1
 776 0 l 1,32,-1
 -27 0 l 1,33,-1
 -5.6181640625 135 l 1,0,1
EndSplineSet
Substitution2: "'frac' Diagonal Fractions in Latin lookup 24 subtable" two.numr
Substitution2: "'dnom' Denominators in Latin lookup 22 subtable" two.dnom
Substitution2: "'numr' Numerators in Latin lookup 21 subtable" two.numr
Substitution2: "'sups' Superscript in Latin lookup 20 subtable" uni00B2
Substitution2: "'subs' Subscript in Latin lookup 19 subtable" uni2082
AlternateSubs2: "'aalt' Access All Alternates in Latin lookup 1 subtable" uni2082 two.dnom two.numr uni00B2
EndChar

StartChar: three
Encoding: 51 51 477
Width: 857
VWidth: 2441
GlyphClass: 1
Flags: HW
LayerCount: 2
Fore
SplineSet
313.723632812 -27 m 0,0,1
 81.7236328125 -27 81.7236328125 -27 -38.083984375 151 c 1,2,-1
 91.2392578125 273 l 1,3,-1
 110.40625 293 l 1,4,-1
 121.505859375 281 l 1,5,6
 120.1796875 260 120.1796875 260 123.670898438 241 c 128,-1,7
 127.161132812 222 127.161132812 222 146.568359375 193 c 1,8,9
 180.024414062 158 180.024414062 158 222.278320312 137.5 c 128,-1,10
 264.53125 117 264.53125 117 329.53125 117 c 0,11,12
 459.53125 117 459.53125 117 535.073242188 202.5 c 128,-1,13
 610.614257812 288 610.614257812 288 632.155273438 424 c 0,14,15
 659.555664062 597 659.555664062 597 568.6171875 670 c 128,-1,16
 495.666992188 728.560546875 495.666992188 728.560546875 366.787109375 728.560546875 c 0,0,0
 335.0078125 728.560546875 335.0078125 728.560546875 299.829101562 725 c 1,17,-1
 321.051757812 859 l 1,18,19
 463.051757812 859 463.051757812 859 541.204101562 901 c 128,-1,20
 619.356445312 943 619.356445312 943 654.78515625 1012 c 128,-1,21
 690.213867188 1081 690.213867188 1081 702.725585938 1160 c 0,22,23
 719.672851562 1267 719.672851562 1267 676.596679688 1326.5 c 128,-1,24
 633.520507812 1386 633.520507812 1386 548.520507812 1386 c 0,25,26
 482.520507812 1386 482.520507812 1386 417.323242188 1359.5 c 128,-1,27
 352.125976562 1333 352.125976562 1333 286.46484375 1272 c 1,28,-1
 198.194335938 1365 l 1,29,30
 285.1328125 1453 285.1328125 1453 380.809570312 1492 c 128,-1,31
 476.486328125 1531 476.486328125 1531 571.486328125 1531 c 0,32,33
 737.486328125 1531 737.486328125 1531 816.251953125 1428.5 c 128,-1,34
 895.017578125 1326 895.017578125 1326 867.6171875 1153 c 0,35,36
 848.76953125 1034 848.76953125 1034 781.801757812 939.5 c 128,-1,37
 714.834960938 845 714.834960938 845 597.658203125 806 c 1,38,39
 708.005859375 764 708.005859375 764 764.879882812 668.5 c 128,-1,40
 821.75390625 573 821.75390625 573 797.045898438 417 c 0,41,42
 777.40625 293 777.40625 293 714.568359375 193 c 128,-1,43
 651.729492188 93 651.729492188 93 548.7265625 33 c 128,-1,44
 445.723632812 -27 445.723632812 -27 313.723632812 -27 c 0,0,1
EndSplineSet
Substitution2: "'frac' Diagonal Fractions in Latin lookup 24 subtable" three.numr
Substitution2: "'dnom' Denominators in Latin lookup 22 subtable" three.dnom
Substitution2: "'numr' Numerators in Latin lookup 21 subtable" three.numr
Substitution2: "'sups' Superscript in Latin lookup 20 subtable" uni00B3
Substitution2: "'subs' Subscript in Latin lookup 19 subtable" uni2083
AlternateSubs2: "'aalt' Access All Alternates in Latin lookup 1 subtable" uni2083 three.dnom three.numr uni00B3
EndChar

StartChar: four
Encoding: 52 52 478
Width: 922
VWidth: 2441
GlyphClass: 1
Flags: HW
LayerCount: 2
Fore
SplineSet
190.884765625 517 m 1,0,-1
 563.884765625 517 l 1,1,-1
 670.953125 1193 l 1,2,-1
 190.884765625 517 l 1,0,-1
482 0 m 1,3,-1
 541.552734375 376 l 1,4,-1
 -2.447265625 376 l 1,5,-1
 16.875 498 l 1,6,-1
 752.219726562 1523 l 1,7,-1
 878.219726562 1523 l 1,8,-1
 718.568359375 515 l 1,9,-1
 877.568359375 515 l 1,10,-1
 855.077148438 373 l 1,11,-1
 696.077148438 373 l 1,12,-1
 637 0 l 1,13,-1
 482 0 l 1,3,-1
EndSplineSet
Substitution2: "'frac' Diagonal Fractions in Latin lookup 24 subtable" four.numr
Substitution2: "'dnom' Denominators in Latin lookup 22 subtable" four.dnom
Substitution2: "'numr' Numerators in Latin lookup 21 subtable" four.numr
Substitution2: "'sups' Superscript in Latin lookup 20 subtable" uni2074
Substitution2: "'subs' Subscript in Latin lookup 19 subtable" uni2084
AlternateSubs2: "'aalt' Access All Alternates in Latin lookup 1 subtable" uni2084 four.dnom four.numr uni2074
EndChar

StartChar: five
Encoding: 53 53 479
Width: 903
VWidth: 2441
GlyphClass: 1
Flags: HW
LayerCount: 2
Fore
SplineSet
341.723632812 -27 m 0,0,1
 217.723632812 -27 217.723632812 -27 118.068359375 32 c 128,-1,2
 18.4130859375 91 18.4130859375 91 -29.84765625 203 c 1,3,-1
 109.198242188 298 l 1,4,-1
 131.416015625 312 l 1,5,-1
 139.515625 300 l 1,6,7
 136.505859375 281 136.505859375 281 139.813476562 264 c 128,-1,8
 143.12109375 247 143.12109375 247 162.052734375 215 c 0,9,10
 196.291992188 166 196.291992188 166 246.069335938 142.5 c 128,-1,11
 295.84765625 119 295.84765625 119 371.84765625 119 c 0,12,13
 476.84765625 119 476.84765625 119 570.131835938 215.5 c 128,-1,14
 663.416015625 312 663.416015625 312 690.974609375 486 c 0,15,16
 718.375 659 718.375 659 654.000976562 754.5 c 128,-1,17
 589.626953125 850 589.626953125 850 475.626953125 850 c 0,18,19
 326.626953125 850 326.626953125 850 199.135742188 708 c 1,20,-1
 105.313476562 747 l 1,21,-1
 271.90234375 1521 l 1,22,-1
 966.90234375 1521 l 1,23,-1
 942.986328125 1370 l 1,24,-1
 385.986328125 1370 l 1,25,-1
 295.297851562 930 l 1,26,27
 414.166992188 986 414.166992188 986 526.166992188 986 c 0,28,29
 705.166992188 986 705.166992188 986 797.943359375 852 c 128,-1,30
 890.719726562 718 890.719726562 718 852.708007812 478 c 128,-1,31
 814.6953125 238 814.6953125 238 672.209960938 105.5 c 128,-1,32
 529.723632812 -27 529.723632812 -27 341.723632812 -27 c 0,0,1
EndSplineSet
Substitution2: "'frac' Diagonal Fractions in Latin lookup 24 subtable" five.numr
Substitution2: "'dnom' Denominators in Latin lookup 22 subtable" five.dnom
Substitution2: "'numr' Numerators in Latin lookup 21 subtable" five.numr
Substitution2: "'sups' Superscript in Latin lookup 20 subtable" uni2075
Substitution2: "'subs' Subscript in Latin lookup 19 subtable" uni2085
AlternateSubs2: "'aalt' Access All Alternates in Latin lookup 1 subtable" uni2085 five.dnom five.numr uni2075
EndChar

StartChar: six
Encoding: 54 54 480
Width: 882
VWidth: 2441
GlyphClass: 1
Flags: HW
LayerCount: 2
Fore
SplineSet
391.639648438 124 m 0,0,1
 483.639648438 124 483.639648438 124 566.2109375 216 c 0,2,3
 648.782226562 308 648.782226562 308 676.024414062 480 c 0,4,5
 705.166992188 664 705.166992188 664 644.471679688 748 c 0,6,7
 583.775390625 832 583.775390625 832 498.775390625 832 c 0,8,9
 419.775390625 832 419.775390625 832 341.748046875 775 c 0,10,11
 263.719726562 718 263.719726562 718 206.098632812 632 c 1,12,13
 196.5234375 596.799804688 196.5234375 596.799804688 190.923828125 561.440429688 c 0,0,0
 182.522460938 508.400390625 182.522460938 508.400390625 183.064453125 455 c 0,1,2
 183.96875 366 183.96875 366 208.248046875 292 c 0,3,4
 232.52734375 218 232.52734375 218 276.92578125 170 c 0,5,6
 323.639648438 124 323.639648438 124 391.639648438 124 c 0,0,1
361.19921875 -24 m 0,7,8
 156.19921875 -24 156.19921875 -24 75.1337890625 165 c 0,9,10
 -5.931640625 354 -5.931640625 354 47.9189453125 694 c 0,11,12
 113.806640625 1110 113.806640625 1110 277.701171875 1324 c 0,13,14
 441.595703125 1538 441.595703125 1538 664.595703125 1538 c 0,15,16
 843.595703125 1538 843.595703125 1538 945.73828125 1400 c 1,17,-1
 828.256835938 1277 l 1,18,-1
 811.248046875 1258 l 1,19,-1
 801.1484375 1270 l 1,20,21
 802.157226562 1289 802.157226562 1289 796.849609375 1306 c 0,22,23
 793.54296875 1323 793.54296875 1323 769.977539062 1351 c 1,24,25
 726.275390625 1389.02539062 726.275390625 1389.02539062 649.932617188 1389.02539062 c 0,0,0
 647.974609375 1389.02539062 647.974609375 1389.02539062 645.99609375 1389 c 0,1,2
 601.99609375 1389 601.99609375 1389 543.51171875 1367 c 0,3,4
 485.02734375 1345 485.02734375 1345 423.365234375 1284 c 0,5,6
 361.704101562 1223 361.704101562 1223 310.806640625 1110 c 0,7,8
 258.909179688 997 258.909179688 997 228.083007812 815 c 1,9,10
 286.595703125 894 286.595703125 894 369.564453125 938 c 0,11,12
 450.689453125 981.022460938 450.689453125 981.022460938 536.473632812 981.022460938 c 0,0,0
 538.422851562 981.022460938 538.422851562 981.022460938 540.375 981 c 0,1,2
 643.375 981 643.375 981 717.555664062 919 c 0,3,4
 791.893554688 858 791.893554688 858 824.155273438 746 c 0,5,6
 856.416015625 634 856.416015625 634 832.658203125 484 c 0,7,8
 808.7421875 333 808.7421875 333 738.52734375 218 c 0,9,10
 668.471679688 104 668.471679688 104 571.334960938 40 c 0,11,12
 473.19921875 -24 473.19921875 -24 361.19921875 -24 c 0,7,8
EndSplineSet
Substitution2: "'frac' Diagonal Fractions in Latin lookup 24 subtable" six.numr
Substitution2: "'dnom' Denominators in Latin lookup 22 subtable" six.dnom
Substitution2: "'numr' Numerators in Latin lookup 21 subtable" six.numr
Substitution2: "'sups' Superscript in Latin lookup 20 subtable" uni2076
Substitution2: "'subs' Subscript in Latin lookup 19 subtable" uni2086
AlternateSubs2: "'aalt' Access All Alternates in Latin lookup 1 subtable" uni2086 six.dnom six.numr uni2076
EndChar

StartChar: seven
Encoding: 55 55 481
Width: 841
VWidth: 2441
GlyphClass: 1
Flags: HW
LayerCount: 2
Fore
SplineSet
103 0 m 1,0,1
 253.276367188 349 253.276367188 349 407.547851562 688.5 c 128,-1,2
 561.819335938 1028 561.819335938 1028 733.194335938 1365 c 1,3,-1
 154.194335938 1365 l 1,4,-1
 178.90234375 1521 l 1,5,-1
 955.90234375 1521 l 1,6,-1
 941.172851562 1428 l 1,7,8
 761.421875 1076 761.421875 1076 596.1953125 721 c 128,-1,9
 430.96875 366 430.96875 366 283 0 c 1,10,-1
 103 0 l 1,0,1
EndSplineSet
Substitution2: "'frac' Diagonal Fractions in Latin lookup 24 subtable" seven.numr
Substitution2: "'dnom' Denominators in Latin lookup 22 subtable" seven.dnom
Substitution2: "'numr' Numerators in Latin lookup 21 subtable" seven.numr
Substitution2: "'sups' Superscript in Latin lookup 20 subtable" uni2077
Substitution2: "'subs' Subscript in Latin lookup 19 subtable" uni2087
AlternateSubs2: "'aalt' Access All Alternates in Latin lookup 1 subtable" uni2087 seven.dnom seven.numr uni2077
EndChar

StartChar: eight
Encoding: 56 56 482
Width: 901
VWidth: 2441
GlyphClass: 1
Flags: HW
LayerCount: 2
Fore
SplineSet
379.639648438 124 m 0,0,1
 501.639648438 124 501.639648438 124 579.073242188 202.5 c 128,-1,2
 656.505859375 281 656.505859375 281 674.245117188 393 c 0,3,4
 692.30078125 507 692.30078125 507 630.872070312 599 c 128,-1,5
 569.443359375 691 569.443359375 691 447.204101562 740 c 1,6,7
 339.918945312 694 339.918945312 694 262.743164062 604.5 c 128,-1,8
 185.568359375 515 185.568359375 515 167.51171875 401 c 0,9,10
 149.7734375 289 149.7734375 289 205.206054688 206.5 c 128,-1,11
 260.639648438 124 260.639648438 124 379.639648438 124 c 0,0,1
531.219726562 879 m 1,12,13
 619.98046875 928 619.98046875 928 682.151367188 1008 c 128,-1,14
 744.322265625 1088 744.322265625 1088 757.943359375 1174 c 0,15,16
 772.356445312 1265 772.356445312 1265 730.546875 1332.5 c 128,-1,17
 688.73828125 1400 688.73828125 1400 583.73828125 1400 c 128,-1,18
 478.73828125 1400 478.73828125 1400 418.206054688 1333.5 c 128,-1,19
 357.672851562 1267 357.672851562 1267 344.051757812 1181 c 0,20,21
 326.3125 1069 326.3125 1069 382.09765625 1004.5 c 128,-1,22
 437.881835938 940 437.881835938 940 531.219726562 879 c 1,12,13
351.19921875 -24 m 0,23,24
 221.19921875 -24 221.19921875 -24 136.171875 29.5 c 128,-1,25
 51.1455078125 83 51.1455078125 83 15.796875 175.5 c 128,-1,26
 -19.552734375 268 -19.552734375 268 -1.1806640625 384 c 0,27,28
 20.5185546875 521 20.5185546875 521 110.916015625 634 c 128,-1,29
 201.313476562 747 201.313476562 747 339.450195312 811 c 1,30,31
 253.002929688 865 253.002929688 865 212.048828125 960 c 128,-1,32
 171.095703125 1055 171.095703125 1055 188.517578125 1165 c 0,33,34
 213.701171875 1324 213.701171875 1324 320.806640625 1432 c 128,-1,35
 427.912109375 1540 427.912109375 1540 610.912109375 1540 c 0,36,37
 798.912109375 1540 798.912109375 1540 868.78125 1435 c 128,-1,38
 938.651367188 1330 938.651367188 1330 914.735351562 1179 c 0,39,40
 897.3125 1069 897.3125 1069 824.6328125 970 c 128,-1,41
 751.953125 871 751.953125 871 642.766601562 813 c 1,42,43
 752.10546875 752 752.10546875 752 805.4453125 640.5 c 128,-1,44
 858.78515625 529 858.78515625 529 837.245117188 393 c 0,45,46
 808.577148438 212 808.577148438 212 676.387695312 94 c 128,-1,47
 544.19921875 -24 544.19921875 -24 351.19921875 -24 c 0,23,24
EndSplineSet
Substitution2: "'frac' Diagonal Fractions in Latin lookup 24 subtable" eight.numr
Substitution2: "'dnom' Denominators in Latin lookup 22 subtable" eight.dnom
Substitution2: "'numr' Numerators in Latin lookup 21 subtable" eight.numr
Substitution2: "'sups' Superscript in Latin lookup 20 subtable" uni2078
Substitution2: "'subs' Subscript in Latin lookup 19 subtable" uni2088
AlternateSubs2: "'aalt' Access All Alternates in Latin lookup 1 subtable" uni2088 eight.dnom eight.numr uni2078
EndChar

StartChar: nine
Encoding: 57 57 483
Width: 879
VWidth: 2441
GlyphClass: 1
Flags: HW
LayerCount: 2
Fore
SplineSet
258.245117188 1037 m 0,0,1
 235.4375 893 235.4375 893 295.395507812 807.5 c 128,-1,2
 355.353515625 722 355.353515625 722 453.353515625 722 c 0,3,4
 544.353515625 722 544.353515625 722 609.288085938 750 c 128,-1,5
 674.22265625 778 674.22265625 778 733.518554688 843 c 1,6,7
 770.548828125 1121 770.548828125 1121 728.376953125 1252.5 c 128,-1,8
 686.204101562 1384 686.204101562 1384 558.204101562 1384 c 0,9,10
 451.204101562 1384 451.204101562 1384 368.028320312 1294.5 c 128,-1,11
 284.853515625 1205 284.853515625 1205 258.245117188 1037 c 0,0,1
286.19921875 -24 m 1,12,13
 86.19921875 -24 86.19921875 -24 -20.2607421875 112 c 1,14,-1
 91.4287109375 230 l 1,15,-1
 112.913085938 252 l 1,16,-1
 123.012695312 240 l 1,17,18
 122.002929688 221 122.002929688 221 127.731445312 203.5 c 128,-1,19
 133.459960938 186 133.459960938 186 158.708007812 156 c 1,20,21
 210.84765625 119 210.84765625 119 296.84765625 119 c 0,22,23
 401.84765625 119 401.84765625 119 480.939453125 198.5 c 128,-1,24
 560.03125 278 560.03125 278 616.3828125 406.5 c 128,-1,25
 672.735351562 535 672.735351562 535 704.384765625 678 c 1,26,27
 646.098632812 632 646.098632812 632 579.322265625 605 c 128,-1,28
 512.545898438 578 512.545898438 578 427.545898438 578 c 0,29,30
 315.545898438 578 315.545898438 578 234.232421875 636 c 128,-1,31
 152.918945312 694 152.918945312 694 116.811523438 797.5 c 128,-1,32
 80.7041015625 901 80.7041015625 901 101.927734375 1035 c 0,33,34
 125.52734375 1184 125.52734375 1184 196.6875 1295.5 c 128,-1,35
 267.846679688 1407 267.846679688 1407 367.166992188 1469 c 128,-1,36
 466.486328125 1531 466.486328125 1531 573.486328125 1531 c 0,37,38
 771.486328125 1531 771.486328125 1531 855.611328125 1355 c 128,-1,39
 939.735351562 1179 939.735351562 1179 893.329101562 886 c 0,40,41
 819.521484375 420 819.521484375 420 664.255859375 200.5 c 128,-1,42
 508.990234375 -19 508.990234375 -19 286.19921875 -24 c 1,12,13
EndSplineSet
Substitution2: "'frac' Diagonal Fractions in Latin lookup 24 subtable" nine.numr
Substitution2: "'dnom' Denominators in Latin lookup 22 subtable" nine.dnom
Substitution2: "'numr' Numerators in Latin lookup 21 subtable" nine.numr
Substitution2: "'sups' Superscript in Latin lookup 20 subtable" uni2079
Substitution2: "'subs' Subscript in Latin lookup 19 subtable" uni2089
AlternateSubs2: "'aalt' Access All Alternates in Latin lookup 1 subtable" uni2089 nine.dnom nine.numr uni2079
EndChar

StartChar: zero.zero
Encoding: 65541 -1 484
Width: 916
VWidth: 2441
GlyphClass: 1
Flags: HW
LayerCount: 2
Fore
SplineSet
466.416015625 634 m 0,0,1
 410.416015625 634 410.416015625 634 379.434570312 672 c 128,-1,2
 348.453125 710 348.453125 710 357.005859375 764 c 128,-1,3
 365.55859375 818 365.55859375 818 411.077148438 856 c 128,-1,4
 456.595703125 894 456.595703125 894 507.595703125 894 c 0,5,6
 556.595703125 894 556.595703125 894 591.577148438 856 c 128,-1,7
 626.55859375 818 626.55859375 818 618.005859375 764 c 0,8,9
 609.927734375 713 609.927734375 713 565.171875 673.5 c 128,-1,10
 520.416015625 634 520.416015625 634 466.416015625 634 c 0,0,1
384.84765625 119 m 128,-1,12
 506.84765625 119 506.84765625 119 601.926757812 280.5 c 128,-1,13
 697.005859375 442 697.005859375 442 746.10546875 752 c 0,14,15
 792.987304688 1048 792.987304688 1048 750.095703125 1216 c 128,-1,16
 707.204101562 1384 707.204101562 1384 585.204101562 1384 c 128,-1,17
 463.204101562 1384 463.204101562 1384 367.095703125 1216 c 128,-1,18
 270.987304688 1048 270.987304688 1048 224.10546875 752 c 0,19,20
 175.005859375 442 175.005859375 442 218.926757812 280.5 c 128,-1,11
 262.84765625 119 262.84765625 119 384.84765625 119 c 128,-1,12
361.723632812 -27 m 128,-1,22
 156.723632812 -27 156.723632812 -27 76.7421875 172 c 128,-1,23
 -3.2392578125 371 -3.2392578125 371 57.10546875 752 c 0,24,25
 115.390625 1120 115.390625 1120 259.438476562 1325.5 c 128,-1,26
 403.486328125 1531 403.486328125 1531 608.486328125 1531 c 128,-1,27
 813.486328125 1531 813.486328125 1531 890.517578125 1326 c 128,-1,28
 967.548828125 1121 967.548828125 1121 909.10546875 752 c 0,29,30
 848.918945312 372 848.918945312 372 707.821289062 172.5 c 128,-1,21
 566.723632812 -27 566.723632812 -27 361.723632812 -27 c 128,-1,22
EndSplineSet
EndChar

StartChar: zero.ss02
Encoding: 65542 -1 485
Width: 916
VWidth: 2441
GlyphClass: 1
Flags: HW
LayerCount: 2
Fore
SplineSet
384.84765625 119 m 128,-1,1
 506.84765625 119 506.84765625 119 601.926757812 280.5 c 128,-1,2
 697.005859375 442 697.005859375 442 746.10546875 752 c 0,3,4
 792.987304688 1048 792.987304688 1048 750.095703125 1216 c 128,-1,5
 707.204101562 1384 707.204101562 1384 585.204101562 1384 c 128,-1,6
 463.204101562 1384 463.204101562 1384 367.095703125 1216 c 128,-1,7
 270.987304688 1048 270.987304688 1048 224.10546875 752 c 0,8,9
 175.005859375 442 175.005859375 442 218.926757812 280.5 c 128,-1,0
 262.84765625 119 262.84765625 119 384.84765625 119 c 128,-1,1
361.723632812 -27 m 128,-1,11
 156.723632812 -27 156.723632812 -27 76.7421875 172 c 128,-1,12
 -3.2392578125 371 -3.2392578125 371 57.10546875 752 c 0,13,14
 115.390625 1120 115.390625 1120 259.438476562 1325.5 c 128,-1,15
 403.486328125 1531 403.486328125 1531 608.486328125 1531 c 128,-1,16
 813.486328125 1531 813.486328125 1531 890.517578125 1326 c 128,-1,17
 967.548828125 1121 967.548828125 1121 909.10546875 752 c 0,18,19
 848.918945312 372 848.918945312 372 707.821289062 172.5 c 128,-1,10
 566.723632812 -27 566.723632812 -27 361.723632812 -27 c 128,-1,11
EndSplineSet
EndChar

StartChar: uni2070
Encoding: 8304 8304 516
Width: 665
VWidth: 2441
GlyphClass: 1
Flags: HW
LayerCount: 2
Fore
SplineSet
347.443359375 691 m 0,0,1
 430.443359375 691 430.443359375 691 492.1484375 787 c 128,-1,2
 553.853515625 883 553.853515625 883 582.99609375 1067 c 0,3,4
 594.55859375 1140 594.55859375 1140 596.6953125 1204 c 1,5,-1
 226.55859375 818 l 1,6,7
 249.443359375 691 249.443359375 691 347.443359375 691 c 0,0,1
230.99609375 1067 m 0,8,9
 217.375 981 217.375 981 218.080078125 916 c 1,10,-1
 590.008789062 1307 l 1,11,12
 566.056640625 1442.02832031 566.056640625 1442.02832031 469.232421875 1442.02832031 c 0,13,14
 467.819335938 1442.02832031 467.819335938 1442.02832031 466.390625 1442 c 0,15,16
 383.390625 1442 383.390625 1442 321.051757812 1342 c 128,-1,17
 258.713867188 1242 258.713867188 1242 230.99609375 1067 c 0,8,9
330.337890625 583 m 128,-1,19
 188.337890625 583 188.337890625 583 128.8984375 706.5 c 128,-1,20
 69.458984375 830 69.458984375 830 106.99609375 1067 c 0,21,22
 143.424804688 1297 143.424804688 1297 243.198242188 1425 c 128,-1,23
 342.970703125 1553 342.970703125 1553 483.970703125 1553 c 0,24,25
 625.970703125 1553 625.970703125 1553 685.118164062 1424.5 c 128,-1,26
 744.266601562 1296 744.266601562 1296 707.99609375 1067 c 0,27,28
 670.458984375 830 670.458984375 830 571.3984375 706.5 c 128,-1,18
 472.337890625 583 472.337890625 583 330.337890625 583 c 128,-1,19
EndSplineSet
Substitution2: "'ss02' Style Set 2 in Latin lookup 36 subtable" uni2070.ss02
Substitution2: "'zero' Slashed Zero in Latin lookup 33 subtable" uni2070.zero
AlternateSubs2: "'aalt' Access All Alternates in Latin lookup 1 subtable" uni2070.ss02 uni2070.zero
EndChar

StartChar: uni00B9
Encoding: 185 185 517
Width: 400
VWidth: 2441
GlyphClass: 1
Flags: HW
LayerCount: 2
Fore
SplineSet
243.189453125 601 m 1,0,-1
 367.99609375 1389 l 1,1,-1
 178.125976562 1333 l 1,2,-1
 161.956054688 1414 l 1,3,-1
 426.704101562 1545 l 1,4,-1
 518.704101562 1545 l 1,5,-1
 369.189453125 601 l 1,6,-1
 243.189453125 601 l 1,0,-1
EndSplineSet
EndChar

StartChar: uni00B2
Encoding: 178 178 518
Width: 649
VWidth: 2441
GlyphClass: 1
Flags: HW
LayerCount: 2
Fore
SplineSet
72.7109375 699 m 1,0,1
 231.7265625 838 231.7265625 838 343.58984375 935 c 128,-1,2
 455.453125 1032 455.453125 1032 518.203125 1112.5 c 128,-1,3
 580.953125 1193 580.953125 1193 597.890625 1281 c 0,4,5
 611.51171875 1367 611.51171875 1367 574.29296875 1403.5 c 128,-1,6
 537.073242188 1440 537.073242188 1440 474.073242188 1440 c 0,7,8
 383.073242188 1440 383.073242188 1440 313.99609375 1389 c 1,9,10
 284.927734375 1357 284.927734375 1357 275.735351562 1340 c 128,-1,11
 266.54296875 1323 266.54296875 1323 266.216796875 1302 c 1,12,-1
 254.157226562 1289 l 1,13,-1
 237.533203125 1304 l 1,14,-1
 154.986328125 1370 l 1,15,16
 217.607421875 1456 217.607421875 1456 303.2890625 1504.5 c 128,-1,17
 388.970703125 1553 388.970703125 1553 491.970703125 1553 c 0,18,19
 610.970703125 1553 610.970703125 1553 676.567382812 1481 c 128,-1,20
 742.1640625 1409 742.1640625 1409 721.890625 1281 c 0,21,22
 705.577148438 1178 705.577148438 1178 640.297851562 1091 c 128,-1,23
 575.017578125 1004 575.017578125 1004 473.946289062 912 c 128,-1,24
 372.875 820 372.875 820 250.453125 710 c 1,25,-1
 528.453125 710 l 2,26,27
 570.453125 710 570.453125 710 588.245117188 715 c 128,-1,28
 606.037109375 720 606.037109375 720 623.25390625 734 c 1,29,-1
 639.25390625 734 l 1,30,-1
 618.189453125 601 l 1,31,-1
 57.189453125 601 l 1,32,-1
 72.7109375 699 l 1,0,1
EndSplineSet
EndChar

StartChar: uni00B3
Encoding: 179 179 519
Width: 623
VWidth: 2441
GlyphClass: 1
Flags: HW
LayerCount: 2
Fore
SplineSet
298.337890625 583 m 0,0,1
 217.337890625 583 217.337890625 583 153.08984375 613 c 128,-1,2
 88.8408203125 643 88.8408203125 643 48.2353515625 696 c 1,3,-1
 141.014648438 783 l 1,4,-1
 160.182617188 803 l 1,5,-1
 170.440429688 792 l 1,6,7
 167.431640625 773 167.431640625 773 176.317382812 756.5 c 128,-1,8
 185.204101562 740 185.204101562 740 209.927734375 713 c 1,9,10
 229.344726562 703 229.344726562 703 254.393554688 697 c 128,-1,11
 279.443359375 691 279.443359375 691 310.443359375 691 c 0,12,13
 391.443359375 691 391.443359375 691 443.466796875 738.5 c 128,-1,14
 495.490234375 786 495.490234375 786 508.319335938 867 c 0,15,16
 524.6328125 970 524.6328125 970 460.96875 1010 c 0,17,18
 411.03515625 1041.37207031 411.03515625 1041.37207031 325.991210938 1041.37207031 c 0,19,20
 302.603515625 1041.37207031 302.603515625 1041.37207031 276.561523438 1039 c 1,21,-1
 292.875 1142 l 1,22,23
 298.108398438 1141.92480469 298.108398438 1141.92480469 303.219726562 1141.92480469 c 0,24,25
 433.561523438 1141.92480469 433.561523438 1141.92480469 484.635742188 1191 c 0,26,27
 537.713867188 1242 537.713867188 1242 549.1171875 1314 c 0,28,29
 558.778320312 1375 558.778320312 1375 526.584960938 1408.5 c 128,-1,30
 494.390625 1442 494.390625 1442 438.390625 1442 c 0,31,32
 394.390625 1442 394.390625 1442 349.935546875 1426.5 c 128,-1,33
 305.48046875 1411 305.48046875 1411 262.303710938 1372 c 1,34,-1
 193.865234375 1445 l 1,35,36
 253.735351562 1501 253.735351562 1501 322.353515625 1527 c 128,-1,37
 390.970703125 1553 390.970703125 1553 457.970703125 1553 c 0,38,39
 574.970703125 1553 574.970703125 1553 634.17578125 1488 c 128,-1,40
 693.380859375 1423 693.380859375 1423 676.43359375 1316 c 0,41,42
 664.5546875 1241 664.5546875 1241 618.869140625 1183 c 128,-1,43
 573.182617188 1125 573.182617188 1125 501.380859375 1101 c 1,44,45
 570.580078125 1077 570.580078125 1077 609.814453125 1018.5 c 128,-1,46
 649.048828125 960 649.048828125 960 633.52734375 862 c 0,47,48
 614.6796875 743 614.6796875 743 526.008789062 663 c 128,-1,49
 437.337890625 583 437.337890625 583 298.337890625 583 c 0,0,1
EndSplineSet
EndChar

StartChar: uni2074
Encoding: 8308 8308 520
Width: 705
VWidth: 2441
GlyphClass: 1
Flags: HW
LayerCount: 2
Fore
SplineSet
228.08984375 935 m 1,0,-1
 482.08984375 935 l 1,1,-1
 542.1171875 1314 l 1,2,-1
 228.08984375 935 l 1,0,-1
426.189453125 601 m 1,3,-1
 461.984375 827 l 1,4,-1
 68.984375 827 l 1,5,-1
 83.396484375 918 l 1,6,-1
 604.704101562 1545 l 1,7,-1
 704.704101562 1545 l 1,8,-1
 608.08984375 935 l 1,9,-1
 727.08984375 935 l 1,10,-1
 709.666992188 825 l 1,11,-1
 590.666992188 825 l 1,12,-1
 555.189453125 601 l 1,13,-1
 426.189453125 601 l 1,3,-1
EndSplineSet
EndChar

StartChar: uni2075
Encoding: 8309 8309 521
Width: 651
VWidth: 2441
GlyphClass: 1
Flags: HW
LayerCount: 2
Fore
SplineSet
316.337890625 583 m 0,0,1
 228.337890625 583 228.337890625 583 158.198242188 620 c 128,-1,2
 88.05859375 657 88.05859375 657 53.1455078125 727 c 1,3,-1
 157.866210938 801 l 1,4,-1
 179.083007812 815 l 1,5,-1
 187.866210938 801 l 1,6,7
 182.856445312 782 182.856445312 782 190.98046875 767 c 128,-1,8
 199.10546875 752 199.10546875 752 224.353515625 722 c 1,9,10
 263.024414062 693.875 263.024414062 693.875 327.243164062 693.875 c 0,11,12
 331.524414062 693.875 331.524414062 693.875 335.918945312 694 c 0,13,14
 405.918945312 694 405.918945312 694 466.05078125 748.5 c 128,-1,15
 526.182617188 803 526.182617188 803 541.704101562 901 c 0,16,17
 558.017578125 1004 558.017578125 1004 513.991210938 1057.5 c 128,-1,18
 469.96484375 1111 469.96484375 1111 394.96484375 1111 c 0,19,20
 294.96484375 1111 294.96484375 1111 215.135742188 1030 c 1,21,-1
 140.412109375 1057 l 1,22,-1
 248.38671875 1543 l 1,23,-1
 732.38671875 1543 l 1,24,-1
 714.96484375 1433 l 1,25,-1
 340.96484375 1433 l 1,26,-1
 286.051757812 1181 l 1,27,28
 357.912109375 1218 357.912109375 1218 440.912109375 1218 c 0,29,30
 562.912109375 1218 562.912109375 1218 627.345703125 1135.5 c 128,-1,31
 691.779296875 1053 691.779296875 1053 668.1796875 904 c 0,32,33
 644.263671875 753 644.263671875 753 546.30078125 668 c 128,-1,34
 448.337890625 583 448.337890625 583 316.337890625 583 c 0,0,1
EndSplineSet
EndChar

StartChar: uni2076
Encoding: 8310 8310 522
Width: 636
VWidth: 2441
GlyphClass: 1
Flags: HW
LayerCount: 2
Fore
SplineSet
348.235351562 696 m 0,0,1
 409.235351562 696 409.235351562 696 461.708984375 749.5 c 128,-1,2
 514.182617188 803 514.182617188 803 530.1796875 904 c 0,3,4
 546.809570312 1009 546.809570312 1009 505.833007812 1056.5 c 128,-1,5
 464.856445312 1104 464.856445312 1104 410.856445312 1104 c 0,6,7
 361.856445312 1104 361.856445312 1104 310.208984375 1071.5 c 128,-1,8
 258.561523438 1039 258.561523438 1039 222.958984375 991 c 1,9,10
 219.442382812 975.375 219.442382812 975.375 217.01953125 960.075195312 c 0,11,12
 207.811523438 901.9375 207.811523438 901.9375 214.389648438 848.5 c 0,13,14
 222.698242188 781 222.698242188 781 257.466796875 738.5 c 128,-1,15
 292.235351562 696 292.235351562 696 348.235351562 696 c 0,0,1
326.971679688 587 m 0,16,17
 184.971679688 587 184.971679688 587 126.661132812 705 c 128,-1,18
 68.3505859375 823 68.3505859375 823 101.135742188 1030 c 0,19,20
 141.682617188 1286 141.682617188 1286 255.064453125 1421 c 128,-1,21
 368.446289062 1556 368.446289062 1556 521.446289062 1556 c 0,22,23
 647.446289062 1556 647.446289062 1556 722.349609375 1467 c 1,24,-1
 638.412109375 1379 l 1,25,-1
 617.877929688 1363 l 1,26,-1
 607.303710938 1372 l 1,27,28
 608.3125 1391 608.3125 1391 599.29296875 1403.5 c 128,-1,29
 590.272460938 1416 590.272460938 1416 561.28125 1435 c 1,30,31
 535.390625 1442 535.390625 1442 508.390625 1442 c 0,32,33
 469.390625 1442 469.390625 1442 415.747070312 1419 c 128,-1,34
 362.104492188 1396 362.104492188 1396 314.67578125 1327 c 128,-1,35
 267.248046875 1258 267.248046875 1258 240.548828125 1121 c 1,36,37
 279.517578125 1165 279.517578125 1165 334.3984375 1189.5 c 128,-1,38
 389.278320312 1214 389.278320312 1214 445.278320312 1214 c 0,39,40
 552.278320312 1214 552.278320312 1214 614.291015625 1132 c 128,-1,41
 676.303710938 1050 676.303710938 1050 653.49609375 906 c 0,42,43
 631.005859375 764 631.005859375 764 538.48828125 675.5 c 128,-1,44
 445.971679688 587 445.971679688 587 326.971679688 587 c 0,16,17
EndSplineSet
EndChar

StartChar: uni2077
Encoding: 8311 8311 523
Width: 605
VWidth: 2441
GlyphClass: 1
Flags: HW
LayerCount: 2
Fore
SplineSet
140.189453125 601 m 1,0,1
 239.766601562 813 239.766601562 813 341.735351562 1018 c 128,-1,2
 443.704101562 1223 443.704101562 1223 554.172851562 1428 c 1,3,-1
 164.172851562 1428 l 1,4,-1
 182.38671875 1543 l 1,5,-1
 723.38671875 1543 l 1,6,-1
 712.141601562 1472 l 1,7,8
 592.088867188 1257 592.088867188 1257 484.377929688 1041 c 128,-1,9
 376.666992188 825 376.666992188 825 276.189453125 601 c 1,10,-1
 140.189453125 601 l 1,0,1
EndSplineSet
EndChar

StartChar: uni2078
Encoding: 8312 8312 524
Width: 653
VWidth: 2441
GlyphClass: 1
Flags: HW
LayerCount: 2
Fore
SplineSet
344.7109375 699 m 0,0,1
 425.7109375 699 425.7109375 699 474.204101562 740 c 128,-1,2
 522.698242188 781 522.698242188 781 533.626953125 850 c 0,3,4
 544.396484375 918 544.396484375 918 501.474609375 969 c 128,-1,5
 458.551757812 1020 458.551757812 1020 377.303710938 1050 c 1,6,7
 309.551757812 1020 309.551757812 1020 260.6328125 970 c 128,-1,8
 211.713867188 920 211.713867188 920 201.418945312 855 c 0,9,10
 190.6484375 787 190.6484375 787 230.1796875 743 c 128,-1,11
 269.7109375 699 269.7109375 699 344.7109375 699 c 0,0,1
436.825195312 1148 m 1,12,13
 492.893554688 1180 492.893554688 1180 533.6796875 1226 c 128,-1,14
 574.46484375 1272 574.46484375 1272 582.54296875 1323 c 128,-1,15
 590.620117188 1374 590.620117188 1374 560.901367188 1410.5 c 128,-1,16
 531.182617188 1447 531.182617188 1447 465.182617188 1447 c 128,-1,17
 399.182617188 1447 399.182617188 1447 359.138671875 1412 c 128,-1,18
 319.095703125 1377 319.095703125 1377 311.334960938 1328 c 0,19,20
 300.564453125 1260 300.564453125 1260 339.966796875 1221.5 c 128,-1,21
 379.369140625 1183 379.369140625 1183 436.825195312 1148 c 1,12,13
323.971679688 587 m 0,22,23
 188.971679688 587 188.971679688 587 121.295898438 658.5 c 128,-1,24
 53.62109375 730 53.62109375 730 71.04296875 840 c 0,25,26
 84.98046875 928 84.98046875 928 144.830078125 996.5 c 128,-1,27
 204.6796875 1065 204.6796875 1065 294.172851562 1106 c 1,28,29
 236.241210938 1138 236.241210938 1138 208.348632812 1195.5 c 128,-1,30
 180.456054688 1253 180.456054688 1253 190.750976562 1318 c 0,31,32
 207.064453125 1421 207.064453125 1421 283.4140625 1489.5 c 128,-1,33
 359.762695312 1558 359.762695312 1558 487.762695312 1558 c 0,34,35
 613.762695312 1558 613.762695312 1558 667.309570312 1492 c 128,-1,36
 720.856445312 1426 720.856445312 1426 705.334960938 1328 c 0,37,38
 694.248046875 1258 694.248046875 1258 648.165039062 1197.5 c 128,-1,39
 602.083007812 1137 602.083007812 1137 532.380859375 1101 c 1,40,41
 605.521484375 1064 605.521484375 1064 639.909179688 997 c 128,-1,42
 674.297851562 930 674.297851562 930 661.309570312 848 c 0,43,44
 643.25390625 734 643.25390625 734 552.11328125 660.5 c 128,-1,45
 460.971679688 587 460.971679688 587 323.971679688 587 c 0,22,23
EndSplineSet
EndChar

StartChar: uni2079
Encoding: 8313 8313 525
Width: 635
VWidth: 2441
GlyphClass: 1
Flags: HW
LayerCount: 2
Fore
SplineSet
256.921875 1237 m 0,0,1
 243.775390625 1154 243.775390625 1154 283.59375 1105.5 c 128,-1,2
 323.412109375 1057 323.412109375 1057 389.412109375 1057 c 0,3,4
 499.412109375 1057 499.412109375 1057 568.657226562 1128 c 1,5,6
 589.94921875 1294 589.94921875 1294 560.169921875 1368 c 128,-1,7
 530.390625 1442 530.390625 1442 447.390625 1442 c 0,8,9
 377.390625 1442 377.390625 1442 325.3125 1391 c 128,-1,10
 273.235351562 1340 273.235351562 1340 256.921875 1237 c 0,0,1
279.971679688 587 m 0,11,12
 209.971679688 587 209.971679688 587 152.639648438 607 c 128,-1,13
 95.306640625 627 95.306640625 627 56.2763671875 671 c 1,14,-1
 141.688476562 762 l 1,15,-1
 161.698242188 781 l 1,16,-1
 172.114257812 771 l 1,17,18
 171.10546875 752 171.10546875 752 181.466796875 738.5 c 128,-1,19
 191.829101562 725 191.829101562 725 223.344726562 703 c 1,20,21
 250.995117188 693.909179688 250.995117188 693.909179688 281.739257812 693.909179688 c 0,22,23
 284.813476562 693.909179688 284.813476562 693.909179688 287.918945312 694 c 0,24,25
 385.918945312 694 385.918945312 694 451.569335938 786.5 c 128,-1,26
 517.219726562 879 517.219726562 879 546.809570312 1009 c 1,27,28
 507.533203125 982 507.533203125 982 464.499023438 966 c 128,-1,29
 421.46484375 950 421.46484375 950 367.46484375 950 c 0,30,31
 248.46484375 950 248.46484375 950 181.056640625 1029.5 c 128,-1,32
 113.6484375 1109 113.6484375 1109 134.396484375 1240 c 0,33,34
 156.412109375 1379 156.412109375 1379 251.69140625 1466 c 128,-1,35
 346.970703125 1553 346.970703125 1553 464.970703125 1553 c 0,36,37
 606.970703125 1553 606.970703125 1553 663.548828125 1443 c 128,-1,38
 720.125976562 1333 720.125976562 1333 689.875 1142 c 0,39,40
 644.893554688 858 644.893554688 858 539.590820312 723.5 c 128,-1,41
 434.288085938 589 434.288085938 589 279.971679688 587 c 0,11,12
EndSplineSet
EndChar

StartChar: fraction
Encoding: 8260 8260 526
Width: 863
VWidth: 2441
GlyphClass: 1
Flags: HW
LayerCount: 2
Fore
SplineSet
28.6865234375 -103 m 1,0,-1
 -68.96875 -44 l 1,1,-1
 886.216796875 1624 l 1,2,-1
 984.5546875 1563 l 1,3,-1
 28.6865234375 -103 l 1,0,-1
EndSplineSet
EndChar

StartChar: onehalf
Encoding: 189 189 527
Width: 907
VWidth: 2441
GlyphClass: 1
Flags: HW
LayerCount: 2
Fore
SplineSet
385.07421875 -170 m 1,0,-1
 398.37890625 -86 l 1,1,2
 508.118164062 26 508.118164062 26 582.234375 102.5 c 128,-1,3
 656.350585938 179 656.350585938 179 698.432617188 239.5 c 128,-1,4
 740.515625 300 740.515625 300 753.28515625 368 c 0,5,6
 762.947265625 429 762.947265625 429 741.302734375 456.5 c 128,-1,7
 719.658203125 484 719.658203125 484 676.658203125 484 c 128,-1,8
 633.658203125 484 633.658203125 484 594.935546875 460.5 c 128,-1,9
 556.213867188 437 556.213867188 437 523.186523438 380 c 1,10,-1
 467.213867188 437 l 1,11,12
 508.984375 505 508.984375 505 566.661132812 544 c 128,-1,13
 624.337890625 583 624.337890625 583 692.337890625 583 c 0,14,15
 774.337890625 583 774.337890625 583 817.731445312 525.5 c 128,-1,16
 861.124023438 468 861.124023438 468 845.28515625 368 c 0,17,18
 832.456054688 287 832.456054688 287 788.686523438 219 c 128,-1,19
 744.916015625 151 744.916015625 151 679.408203125 81.5 c 128,-1,20
 613.900390625 12 613.900390625 12 530.4375 -73 c 1,21,-1
 777.4375 -73 l 1,22,-1
 762.07421875 -170 l 1,23,-1
 385.07421875 -170 l 1,0,-1
107.686523438 -103 m 1,24,-1
 28.03125 -44 l 1,25,-1
 869.216796875 1624 l 1,26,-1
 948.5546875 1563 l 1,27,-1
 107.686523438 -103 l 1,24,-1
213.822265625 927 m 1,28,-1
 311.38671875 1543 l 1,29,-1
 187.625976562 1494 l 1,30,-1
 179.663085938 1570 l 1,31,-1
 357.293945312 1675 l 1,32,-1
 428.293945312 1675 l 1,33,-1
 309.822265625 927 l 1,34,-1
 213.822265625 927 l 1,28,-1
EndSplineSet
EndChar

StartChar: onequarter
Encoding: 188 188 528
Width: 887
VWidth: 2441
GlyphClass: 1
Flags: HW
LayerCount: 2
Fore
SplineSet
472.838867188 100 m 1,0,-1
 625.838867188 100 l 1,1,-1
 669.552734375 376 l 1,2,-1
 472.838867188 100 l 1,0,-1
581.07421875 -170 m 1,3,-1
 609.108398438 7 l 1,4,-1
 357.108398438 7 l 1,5,-1
 369.62109375 86 l 1,6,-1
 719.229492188 576 l 1,7,-1
 791.229492188 576 l 1,8,-1
 715.838867188 100 l 1,9,-1
 794.838867188 100 l 1,10,-1
 779.791992188 5 l 1,11,-1
 700.791992188 5 l 1,12,-1
 673.07421875 -170 l 1,13,-1
 581.07421875 -170 l 1,3,-1
95.6865234375 -103 m 1,14,-1
 16.03125 -44 l 1,15,-1
 851.216796875 1624 l 1,16,-1
 930.5546875 1563 l 1,17,-1
 95.6865234375 -103 l 1,14,-1
202.822265625 927 m 1,18,-1
 300.38671875 1543 l 1,19,-1
 177.625976562 1494 l 1,20,-1
 169.663085938 1570 l 1,21,-1
 345.293945312 1675 l 1,22,-1
 415.293945312 1675 l 1,23,-1
 296.822265625 927 l 1,24,-1
 202.822265625 927 l 1,18,-1
EndSplineSet
EndChar

StartChar: threequarters
Encoding: 190 190 529
Width: 862
VWidth: 2441
GlyphClass: 1
Flags: HW
LayerCount: 2
Fore
SplineSet
604.838867188 100 m 1,0,-1
 648.552734375 376 l 1,1,-1
 456.838867188 100 l 1,2,-1
 604.838867188 100 l 1,0,-1
589.108398438 7 m 1,3,-1
 344.108398438 7 l 1,4,-1
 356.62109375 86 l 1,5,-1
 699.229492188 576 l 1,6,-1
 768.229492188 576 l 1,7,-1
 692.838867188 100 l 1,8,-1
 769.838867188 100 l 1,9,-1
 754.791992188 5 l 1,10,-1
 677.791992188 5 l 1,11,-1
 650.07421875 -170 l 1,12,-1
 561.07421875 -170 l 1,13,-1
 589.108398438 7 l 1,3,-1
88.6865234375 -103 m 1,14,-1
 12.03125 -44 l 1,15,-1
 831.216796875 1624 l 1,16,-1
 907.5546875 1563 l 1,17,-1
 88.6865234375 -103 l 1,14,-1
214.60546875 913 m 0,18,19
 161.60546875 913 161.60546875 913 120.827148438 936.5 c 128,-1,20
 80.048828125 960 80.048828125 960 55.017578125 1004 c 1,21,-1
 120.213867188 1081 l 1,22,-1
 137.380859375 1101 l 1,23,-1
 143.797851562 1091 l 1,24,25
 140.788085938 1072 140.788085938 1072 147.150390625 1058.5 c 128,-1,26
 153.51171875 1045 153.51171875 1045 172.02734375 1023 c 1,27,28
 191.809570312 1009 191.809570312 1009 225.809570312 1009 c 0,29,30
 274.809570312 1009 274.809570312 1009 307.116210938 1042.5 c 128,-1,31
 339.421875 1076 339.421875 1076 349.083007812 1137 c 0,32,33
 361.912109375 1218 361.912109375 1218 324.243164062 1248.5 c 128,-1,34
 295.15625 1272.05078125 295.15625 1272.05078125 242.3671875 1272.05078125 c 0,0,0
 226.7890625 1272.05078125 226.7890625 1272.05078125 209.1484375 1270 c 1,35,-1
 223.403320312 1360 l 1,36,37
 227.842773438 1359.8984375 227.842773438 1359.8984375 232.14453125 1359.8984375 c 0,0,0
 312.8046875 1359.8984375 312.8046875 1359.8984375 345.025390625 1395.5 c 128,-1,38
 378.96484375 1433 378.96484375 1433 387.04296875 1484 c 0,39,40
 394.803710938 1533 394.803710938 1533 375.341796875 1558.5 c 128,-1,41
 355.880859375 1584 355.880859375 1584 320.880859375 1584 c 0,42,43
 292.880859375 1584 292.880859375 1584 264.98046875 1572 c 128,-1,44
 237.080078125 1560 237.080078125 1560 209.01171875 1528 c 1,45,-1
 164.46484375 1594 l 1,46,47
 204.75 1640 204.75 1640 250.076171875 1661 c 128,-1,48
 295.40234375 1682 295.40234375 1682 339.40234375 1682 c 0,49,50
 416.40234375 1682 416.40234375 1682 453.587890625 1629.5 c 128,-1,51
 490.772460938 1577 490.772460938 1577 477.151367188 1491 c 0,52,53
 467.490234375 1430 467.490234375 1430 436.020507812 1386 c 128,-1,54
 404.551757812 1342 404.551757812 1342 361.54296875 1323 c 1,55,56
 401.533203125 1304 401.533203125 1304 426.40625 1259 c 128,-1,57
 451.278320312 1214 451.278320312 1214 438.291015625 1132 c 0,58,59
 423.245117188 1037 423.245117188 1037 363.924804688 975 c 128,-1,60
 304.60546875 913 304.60546875 913 214.60546875 913 c 0,18,19
EndSplineSet
EndChar

StartChar: uni2070.ss02
Encoding: 65566 -1 533
Width: 665
VWidth: 2441
GlyphClass: 1
Flags: HW
LayerCount: 2
Fore
SplineSet
347.443359375 691 m 128,-1,1
 430.443359375 691 430.443359375 691 492.1484375 787 c 128,-1,2
 553.853515625 883 553.853515625 883 582.99609375 1067 c 0,3,4
 610.713867188 1242 610.713867188 1242 580.051757812 1342 c 128,-1,5
 549.390625 1442 549.390625 1442 466.390625 1442 c 128,-1,6
 383.390625 1442 383.390625 1442 321.051757812 1342 c 128,-1,7
 258.713867188 1242 258.713867188 1242 230.99609375 1067 c 0,8,9
 201.853515625 883 201.853515625 883 233.1484375 787 c 128,-1,0
 264.443359375 691 264.443359375 691 347.443359375 691 c 128,-1,1
330.337890625 583 m 128,-1,11
 188.337890625 583 188.337890625 583 128.8984375 706.5 c 128,-1,12
 69.458984375 830 69.458984375 830 106.99609375 1067 c 0,13,14
 143.424804688 1297 143.424804688 1297 243.198242188 1425 c 128,-1,15
 342.970703125 1553 342.970703125 1553 483.970703125 1553 c 0,16,17
 625.970703125 1553 625.970703125 1553 685.118164062 1424.5 c 128,-1,18
 744.266601562 1296 744.266601562 1296 707.99609375 1067 c 0,19,20
 670.458984375 830 670.458984375 830 571.3984375 706.5 c 128,-1,10
 472.337890625 583 472.337890625 583 330.337890625 583 c 128,-1,11
EndSplineSet
EndChar

StartChar: uni2070.zero
Encoding: 65570 -1 537
Width: 665
VWidth: 2441
GlyphClass: 1
Flags: HW
LayerCount: 2
Fore
SplineSet
407.551757812 1020 m 0,0,1
 372.551757812 1020 372.551757812 1020 354.116210938 1042.5 c 128,-1,2
 335.6796875 1065 335.6796875 1065 341.064453125 1099 c 0,3,4
 346.1328125 1131 346.1328125 1131 372.538085938 1152.5 c 128,-1,5
 398.943359375 1174 398.943359375 1174 431.943359375 1174 c 0,6,7
 461.943359375 1174 461.943359375 1174 481.958984375 1152 c 128,-1,8
 501.974609375 1130 501.974609375 1130 497.064453125 1099 c 0,9,10
 491.99609375 1067 491.99609375 1067 465.774414062 1043.5 c 128,-1,11
 439.551757812 1020 439.551757812 1020 407.551757812 1020 c 0,0,1
347.443359375 691 m 128,-1,13
 430.443359375 691 430.443359375 691 492.1484375 787 c 128,-1,14
 553.853515625 883 553.853515625 883 582.99609375 1067 c 0,15,16
 610.713867188 1242 610.713867188 1242 580.051757812 1342 c 128,-1,17
 549.390625 1442 549.390625 1442 466.390625 1442 c 128,-1,18
 383.390625 1442 383.390625 1442 321.051757812 1342 c 128,-1,19
 258.713867188 1242 258.713867188 1242 230.99609375 1067 c 0,20,21
 201.853515625 883 201.853515625 883 233.1484375 787 c 128,-1,12
 264.443359375 691 264.443359375 691 347.443359375 691 c 128,-1,13
330.337890625 583 m 128,-1,23
 188.337890625 583 188.337890625 583 128.8984375 706.5 c 128,-1,24
 69.458984375 830 69.458984375 830 106.99609375 1067 c 0,25,26
 143.424804688 1297 143.424804688 1297 243.198242188 1425 c 128,-1,27
 342.970703125 1553 342.970703125 1553 483.970703125 1553 c 0,28,29
 625.970703125 1553 625.970703125 1553 685.118164062 1424.5 c 128,-1,30
 744.266601562 1296 744.266601562 1296 707.99609375 1067 c 0,31,32
 670.458984375 830 670.458984375 830 571.3984375 706.5 c 128,-1,22
 472.337890625 583 472.337890625 583 330.337890625 583 c 128,-1,23
EndSplineSet
EndChar

StartChar: period
Encoding: 46 46 538
Width: 323
VWidth: 2607
GlyphClass: 1
Flags: HW
LayerCount: 2
Fore
SplineSet
91.015625 139 m 0,0,1
 35.015625 139 35.015625 139 3.6923828125 178 c 128,-1,2
 -27.630859375 217 -27.630859375 217 -19.078125 271 c 128,-1,3
 -10.525390625 325 -10.525390625 325 33.3896484375 365.5 c 128,-1,4
 77.3037109375 406 77.3037109375 406 133.303710938 406 c 0,5,6
 184.303710938 406 184.303710938 406 216.389648438 365.5 c 128,-1,7
 248.474609375 325 248.474609375 325 239.921875 271 c 128,-1,8
 231.369140625 217 231.369140625 217 186.692382812 178 c 128,-1,9
 142.015625 139 142.015625 139 91.015625 139 c 0,0,1
EndSplineSet
EndChar

StartChar: comma
Encoding: 44 44 539
Width: 379
VWidth: 2607
GlyphClass: 1
Flags: HW
LayerCount: 2
Fore
SplineSet
-21.6455078125 -244 m 1,0,-1
 -89.8759765625 -176 l 1,1,2
 -18.8974609375 -113 -18.8974609375 -113 33.84765625 -42 c 128,-1,3
 86.5927734375 29 86.5927734375 29 93.87890625 75 c 0,4,5
 99.421875 110 99.421875 110 75.4609375 135.5 c 128,-1,6
 51.5 161 51.5 161 28.171875 190.5 c 128,-1,7
 4.8447265625 220 4.8447265625 220 11.8134765625 264 c 0,8,9
 21.474609375 325 21.474609375 325 64.3896484375 365.5 c 128,-1,10
 107.303710938 406 107.303710938 406 165.303710938 406 c 0,11,12
 221.303710938 406 221.303710938 406 260.989257812 353.5 c 128,-1,13
 300.673828125 301 300.673828125 301 286.260742188 210 c 0,14,15
 270.739257812 112 270.739257812 112 193.737304688 1.5 c 128,-1,16
 116.736328125 -109 116.736328125 -109 -21.6455078125 -244 c 1,0,-1
EndSplineSet
EndChar

StartChar: colon
Encoding: 58 58 540
Width: 332
VWidth: 2716
GlyphClass: 1
Flags: HW
LayerCount: 2
Fore
SplineSet
111.279296875 248 m 0,0,1
 55.279296875 248 55.279296875 248 22.2978515625 286 c 128,-1,2
 -10.68359375 324 -10.68359375 324 -1.8134765625 380 c 128,-1,3
 7.0556640625 436 7.0556640625 436 53.3115234375 475.5 c 128,-1,4
 99.568359375 515 99.568359375 515 153.568359375 515 c 0,5,6
 204.568359375 515 204.568359375 515 239.811523438 475.5 c 128,-1,7
 275.055664062 436 275.055664062 436 266.186523438 380 c 0,8,9
 257.633789062 326 257.633789062 326 211.456054688 287 c 128,-1,10
 165.279296875 248 165.279296875 248 111.279296875 248 c 0,0,1
235.76953125 1034 m 128,-1,12
 181.76953125 1034 181.76953125 1034 147.946289062 1073 c 128,-1,13
 114.123046875 1112 114.123046875 1112 122.834960938 1167 c 0,14,15
 131.704101562 1223 131.704101562 1223 177.801757812 1261.5 c 128,-1,16
 223.899414062 1300 223.899414062 1300 277.899414062 1300 c 0,17,18
 328.899414062 1300 328.899414062 1300 364.301757812 1261.5 c 128,-1,19
 399.704101562 1223 399.704101562 1223 390.834960938 1167 c 0,20,21
 382.282226562 1113 382.282226562 1113 336.025390625 1073.5 c 128,-1,11
 289.76953125 1034 289.76953125 1034 235.76953125 1034 c 128,-1,12
EndSplineSet
EndChar

StartChar: semicolon
Encoding: 59 59 541
Width: 379
VWidth: 2716
GlyphClass: 1
Flags: HW
LayerCount: 2
Fore
SplineSet
-4.3818359375 -135 m 1,0,-1
 -72.611328125 -67 l 1,1,2
 -1.6337890625 -4 -1.6337890625 -4 51.111328125 67 c 128,-1,3
 103.857421875 138 103.857421875 138 111.142578125 184 c 0,4,5
 116.686523438 219 116.686523438 219 92.724609375 244.5 c 128,-1,6
 68.763671875 270 68.763671875 270 45.4365234375 299.5 c 128,-1,7
 22.1083984375 329 22.1083984375 329 29.0771484375 373 c 0,8,9
 38.7392578125 434 38.7392578125 434 81.6533203125 474.5 c 128,-1,10
 124.568359375 515 124.568359375 515 182.568359375 515 c 0,11,12
 238.568359375 515 238.568359375 515 278.252929688 462.5 c 128,-1,13
 317.9375 410 317.9375 410 303.524414062 319 c 0,14,15
 288.002929688 221 288.002929688 221 211.001953125 110.5 c 128,-1,16
 134 0 134 0 -4.3818359375 -135 c 1,0,-1
264.76953125 1034 m 128,-1,18
 210.76953125 1034 210.76953125 1034 177.446289062 1073 c 128,-1,19
 144.123046875 1112 144.123046875 1112 152.834960938 1167 c 0,20,21
 161.704101562 1223 161.704101562 1223 207.801757812 1261.5 c 128,-1,22
 253.899414062 1300 253.899414062 1300 306.899414062 1300 c 0,23,24
 357.899414062 1300 357.899414062 1300 393.801757812 1261.5 c 128,-1,25
 429.704101562 1223 429.704101562 1223 420.834960938 1167 c 0,26,27
 412.282226562 1113 412.282226562 1113 365.525390625 1073.5 c 128,-1,17
 318.76953125 1034 318.76953125 1034 264.76953125 1034 c 128,-1,18
EndSplineSet
EndChar

StartChar: ellipsis
Encoding: 8230 8230 542
Width: 918
VWidth: 2441
GlyphClass: 1
Flags: HW
LayerCount: 2
Fore
SplineSet
27.7236328125 -27 m 0,0,1
 -19.2763671875 -27 -19.2763671875 -27 -45.599609375 12 c 128,-1,2
 -71.9228515625 51 -71.9228515625 51 -63.3701171875 105 c 128,-1,3
 -54.81640625 159 -54.81640625 159 -15.90234375 199.5 c 128,-1,4
 23.0126953125 240 23.0126953125 240 70.0126953125 240 c 0,5,6
 113.012695312 240 113.012695312 240 138.59765625 199.5 c 128,-1,7
 164.18359375 159 164.18359375 159 155.629882812 105 c 128,-1,8
 147.077148438 51 147.077148438 51 108.900390625 12 c 128,-1,9
 70.7236328125 -27 70.7236328125 -27 27.7236328125 -27 c 0,0,1
344.723632812 -27 m 0,10,11
 297.723632812 -27 297.723632812 -27 271.900390625 12 c 128,-1,12
 246.077148438 51 246.077148438 51 254.629882812 105 c 128,-1,13
 263.18359375 159 263.18359375 159 301.59765625 199.5 c 128,-1,14
 340.012695312 240 340.012695312 240 387.012695312 240 c 0,15,16
 430.012695312 240 430.012695312 240 456.09765625 199.5 c 128,-1,17
 482.18359375 159 482.18359375 159 473.629882812 105 c 128,-1,18
 465.077148438 51 465.077148438 51 426.400390625 12 c 128,-1,19
 387.723632812 -27 387.723632812 -27 344.723632812 -27 c 0,10,11
664.723632812 -27 m 128,-1,21
 619.723632812 -27 619.723632812 -27 593.900390625 12 c 128,-1,22
 568.077148438 51 568.077148438 51 576.629882812 105 c 128,-1,23
 585.18359375 159 585.18359375 159 623.59765625 199.5 c 128,-1,24
 662.012695312 240 662.012695312 240 707.012695312 240 c 128,-1,25
 752.012695312 240 752.012695312 240 777.59765625 199.5 c 128,-1,26
 803.18359375 159 803.18359375 159 794.629882812 105 c 128,-1,27
 786.077148438 51 786.077148438 51 747.900390625 12 c 128,-1,20
 709.723632812 -27 709.723632812 -27 664.723632812 -27 c 128,-1,21
EndSplineSet
EndChar

StartChar: exclam
Encoding: 33 33 543
Width: 332
VWidth: 2441
GlyphClass: 1
Flags: HW
LayerCount: 2
Fore
SplineSet
64.7236328125 -27 m 0,0,1
 10.7236328125 -27 10.7236328125 -27 -21.599609375 12 c 128,-1,2
 -53.9228515625 51 -53.9228515625 51 -45.052734375 107 c 128,-1,3
 -36.18359375 163 -36.18359375 163 8.96875 205 c 128,-1,4
 54.12109375 247 54.12109375 247 108.12109375 247 c 0,5,6
 164.12109375 247 164.12109375 247 197.96875 205 c 128,-1,7
 231.81640625 163 231.81640625 163 222.947265625 107 c 0,8,9
 214.39453125 53 214.39453125 53 167.55859375 13 c 128,-1,10
 120.723632812 -27 120.723632812 -27 64.7236328125 -27 c 0,0,1
89.916015625 473 m 1,11,-1
 190.241210938 1460 l 1,12,13
 203.0703125 1541 203.0703125 1541 240.697265625 1586 c 128,-1,14
 278.325195312 1631 278.325195312 1631 332.325195312 1631 c 0,15,16
 383.325195312 1631 383.325195312 1631 409.618164062 1585.5 c 0,17,18
 434.430664062 1542.56347656 434.430664062 1542.56347656 419.23828125 1446.64257812 c 0,19,20
 418.331054688 1440.91503906 418.331054688 1440.91503906 417.28125 1435 c 1,21,-1
 202.916015625 473 l 1,22,-1
 89.916015625 473 l 1,11,-1
EndSplineSet
EndChar

StartChar: question
Encoding: 63 63 545
Width: 877
VWidth: 2441
GlyphClass: 1
Flags: HW
LayerCount: 2
Fore
SplineSet
365.723632812 -27 m 128,-1,1
 311.723632812 -27 311.723632812 -27 280.400390625 12 c 128,-1,2
 249.077148438 51 249.077148438 51 257.629882812 105 c 128,-1,3
 266.18359375 159 266.18359375 159 310.09765625 199.5 c 128,-1,4
 354.012695312 240 354.012695312 240 408.012695312 240 c 128,-1,5
 462.012695312 240 462.012695312 240 493.09765625 199.5 c 128,-1,6
 524.18359375 159 524.18359375 159 515.629882812 105 c 128,-1,7
 507.077148438 51 507.077148438 51 463.400390625 12 c 128,-1,0
 419.723632812 -27 419.723632812 -27 365.723632812 -27 c 128,-1,1
376.63671875 547 m 2,8,9
 393.583007812 654 393.583007812 654 434.669921875 724 c 128,-1,10
 475.756835938 794 475.756835938 794 529.334960938 845 c 128,-1,11
 582.912109375 896 582.912109375 896 635.411132812 946.5 c 128,-1,12
 687.909179688 997 687.909179688 997 730.783203125 1062.5 c 128,-1,13
 773.657226562 1128 773.657226562 1128 789.8125 1230 c 0,14,15
 807.235351562 1340 807.235351562 1340 752.084960938 1408.5 c 128,-1,16
 696.93359375 1477 696.93359375 1477 588.93359375 1477 c 0,17,18
 427.93359375 1477 427.93359375 1477 317.51171875 1367 c 1,19,20
 291.443359375 1335 291.443359375 1335 283.330078125 1318.5 c 128,-1,21
 275.216796875 1302 275.216796875 1302 274.890625 1281 c 1,22,-1
 262.672851562 1267 l 1,23,-1
 245.573242188 1279 l 1,24,-1
 154.986328125 1370 l 1,25,26
 243.833984375 1489 243.833984375 1489 350.025390625 1556.5 c 128,-1,27
 456.216796875 1624 456.216796875 1624 619.216796875 1624 c 0,28,29
 792.216796875 1624 792.216796875 1624 884.536132812 1525 c 128,-1,30
 976.856445312 1426 976.856445312 1426 947.713867188 1242 c 0,31,32
 928.866210938 1123 928.866210938 1123 885.169921875 1046 c 128,-1,33
 841.474609375 969 841.474609375 969 787.263671875 914 c 128,-1,34
 733.051757812 859 733.051757812 859 678.870117188 810.5 c 128,-1,35
 624.688476562 762 624.688476562 762 583.52734375 701 c 128,-1,36
 542.366210938 640 542.366210938 640 527.63671875 547 c 2,37,-1
 511.797851562 447 l 1,38,-1
 360.797851562 447 l 1,39,-1
 376.63671875 547 l 2,8,9
EndSplineSet
EndChar

StartChar: periodcentered
Encoding: 183 183 547
Width: 332
VWidth: 2441
GlyphClass: 1
Flags: HW
LayerCount: 2
Fore
SplineSet
179.068359375 676 m 0,0,1
 123.068359375 676 123.068359375 676 90.0869140625 714 c 128,-1,2
 57.10546875 752 57.10546875 752 65.974609375 808 c 128,-1,3
 74.84375 864 74.84375 864 121.100585938 903.5 c 128,-1,4
 167.356445312 943 167.356445312 943 221.356445312 943 c 0,5,6
 272.356445312 943 272.356445312 943 307.600585938 903.5 c 128,-1,7
 342.84375 864 342.84375 864 333.974609375 808 c 0,8,9
 325.421875 754 325.421875 754 279.245117188 715 c 128,-1,10
 233.068359375 676 233.068359375 676 179.068359375 676 c 0,0,1
EndSplineSet
Substitution2: "Single Substitution lookup 11 subtable" periodcentered.loclCAT
Substitution2: "Single Substitution lookup 10 subtable" periodcentered.loclCAT
Substitution2: "'aalt' Access All Alternates in Latin lookup 0 subtable" periodcentered.loclCAT
EndChar

StartChar: bullet
Encoding: 8226 8226 548
Width: 443
VWidth: 2441
GlyphClass: 1
Flags: HW
LayerCount: 2
Fore
SplineSet
209.78515625 529 m 0,0,1
 130.78515625 529 130.78515625 529 85.4716796875 587 c 128,-1,2
 40.158203125 645 40.158203125 645 52.037109375 720 c 0,3,4
 65.1826171875 803 65.1826171875 803 130.893554688 858 c 128,-1,5
 196.60546875 913 196.60546875 913 270.60546875 913 c 0,6,7
 349.60546875 913 349.60546875 913 396.735351562 857 c 128,-1,8
 443.866210938 801 443.866210938 801 431.037109375 720 c 0,9,10
 419.158203125 645 419.158203125 645 354.971679688 587 c 128,-1,11
 290.78515625 529 290.78515625 529 209.78515625 529 c 0,0,1
EndSplineSet
EndChar

StartChar: asterisk
Encoding: 42 42 549
Width: 922
VWidth: 2441
GlyphClass: 1
Flags: HW
LayerCount: 2
Fore
SplineSet
185.515625 300 m 1,0,-1
 88.8291015625 403 l 1,1,-1
 412.58984375 774 l 1,2,-1
 81.1796875 904 l 1,3,-1
 162.095703125 1055 l 1,4,-1
 461.745117188 876 l 1,5,-1
 497.325195312 1309 l 1,6,-1
 662.325195312 1309 l 1,7,-1
 556.745117188 876 l 1,8,-1
 909.987304688 1048 l 1,9,-1
 939.1796875 904 l 1,10,-1
 567.58984375 774 l 1,11,-1
 770.829101562 403 l 1,12,-1
 639.990234375 303 l 1,13,-1
 479.02734375 701 l 1,14,-1
 185.515625 300 l 1,0,-1
EndSplineSet
Substitution2: "'ss01' Style Set 1 in Latin lookup 35 subtable" asterisk.ss01
Substitution2: "'salt' Stylistic Alternatives in Latin lookup 34 subtable" asterisk.ss01
Substitution2: "'aalt' Access All Alternates in Latin lookup 0 subtable" asterisk.ss01
EndChar

StartChar: uni2E12
Encoding: 11794 11794 550
Width: 327
VWidth: 2212
GlyphClass: 1
Flags: HW
LayerCount: 2
Fore
SplineSet
-100.962890625 -246 m 1,0,-1
 -82.431640625 -129 l 1,1,2
 -17.431640625 -129 -17.431640625 -129 30.5419921875 -75.5 c 128,-1,3
 78.515625 -22 78.515625 -22 89.4443359375 47 c 0,4,5
 100.53125 117 100.53125 117 69.6630859375 171.5 c 128,-1,6
 38.794921875 226 38.794921875 226 -26.205078125 226 c 1,7,-1
 -8.1494140625 340 l 1,8,9
 104.850585938 340 104.850585938 340 166.705078125 257 c 128,-1,10
 228.55859375 174 228.55859375 174 208.126953125 45 c 0,11,12
 188.487304688 -79 188.487304688 -79 101.762695312 -162.5 c 128,-1,13
 15.037109375 -246 15.037109375 -246 -100.962890625 -246 c 1,0,-1
EndSplineSet
EndChar

StartChar: numbersign
Encoding: 35 35 551
Width: 922
VWidth: 2441
GlyphClass: 1
Flags: HW
LayerCount: 2
Fore
SplineSet
339.021484375 581 m 1,0,-1
 547.021484375 581 l 1,1,-1
 650.909179688 997 l 1,2,-1
 442.909179688 997 l 1,3,-1
 339.021484375 581 l 1,0,-1
405.80078125 24 m 1,4,-1
 519.598632812 471 l 1,5,-1
 311.598632812 471 l 1,6,-1
 201.54296875 35 l 1,7,-1
 85.068359375 32 l 1,8,-1
 193.807617188 466 l 1,9,-1
 11.8076171875 466 l 1,10,-1
 35.2294921875 576 l 1,11,-1
 221.229492188 576 l 1,12,-1
 326.434570312 994 l 1,13,-1
 121.434570312 994 l 1,14,-1
 145.172851562 1106 l 1,15,-1
 355.172851562 1106 l 1,16,-1
 458.219726562 1523 l 1,17,-1
 578.01171875 1528 l 1,18,-1
 473.96484375 1111 l 1,19,-1
 678.96484375 1111 l 1,20,-1
 782.5859375 1519 l 1,21,-1
 903.90234375 1521 l 1,22,-1
 800.756835938 1116 l 1,23,-1
 972.756835938 1116 l 1,24,-1
 943.54296875 1001 l 1,25,-1
 771.54296875 1001 l 1,26,-1
 667.288085938 589 l 1,27,-1
 853.288085938 589 l 1,28,-1
 827.708007812 478 l 1,29,-1
 639.708007812 478 l 1,30,-1
 527.54296875 35 l 1,31,-1
 405.80078125 24 l 1,4,-1
EndSplineSet
EndChar

StartChar: slash
Encoding: 47 47 552
Width: 891
VWidth: 2441
GlyphClass: 1
Flags: HW
LayerCount: 2
Fore
SplineSet
57.6865234375 -103 m 1,0,-1
 -67.8603515625 -37 l 1,1,-1
 883.216796875 1624 l 1,2,-1
 1010.97070312 1553 l 1,3,-1
 57.6865234375 -103 l 1,0,-1
EndSplineSet
Substitution2: "'frac' Diagonal Fractions in Latin lookup 23 subtable" fraction
Substitution2: "'aalt' Access All Alternates in Latin lookup 0 subtable" fraction
EndChar

StartChar: backslash
Encoding: 92 92 553
Width: 891
VWidth: 2441
GlyphClass: 1
Flags: HW
LayerCount: 2
Fore
SplineSet
611.686523438 -103 m 1,0,-1
 183.970703125 1553 l 1,1,-1
 331.216796875 1624 l 1,2,-1
 759.139648438 -37 l 1,3,-1
 611.686523438 -103 l 1,0,-1
EndSplineSet
EndChar

StartChar: asterisk.ss01
Encoding: 65572 -1 555
Width: 922
VWidth: 2441
GlyphClass: 1
Flags: HW
LayerCount: 2
Fore
SplineSet
208.797851562 447 m 1,0,-1
 112.111328125 550 l 1,1,-1
 435.713867188 920 l 1,2,-1
 104.303710938 1050 l 1,3,-1
 185.377929688 1202 l 1,4,-1
 485.02734375 1023 l 1,5,-1
 520.607421875 1456 l 1,6,-1
 685.607421875 1456 l 1,7,-1
 580.02734375 1023 l 1,8,-1
 932.953125 1193 l 1,9,-1
 962.303710938 1050 l 1,10,-1
 590.713867188 920 l 1,11,-1
 794.111328125 550 l 1,12,-1
 663.114257812 449 l 1,13,-1
 502.309570312 848 l 1,14,-1
 208.797851562 447 l 1,0,-1
EndSplineSet
EndChar

StartChar: parenleft
Encoding: 40 40 556
Width: 714
VWidth: 2449
GlyphClass: 1
Flags: HW
LayerCount: 2
Fore
SplineSet
502.037109375 -246 m 1,0,1
 333.083984375 -151 333.083984375 -151 223.42578125 9 c 128,-1,2
 113.766601562 169 113.766601562 169 71.181640625 370.5 c 128,-1,3
 28.595703125 572 28.595703125 572 62.96484375 789 c 128,-1,4
 97.3349609375 1006 97.3349609375 1006 201.95703125 1202.5 c 128,-1,5
 306.580078125 1399 306.580078125 1399 463.629882812 1554 c 128,-1,6
 620.678710938 1709 620.678710938 1709 814.409179688 1802 c 1,7,-1
 838.6015625 1658 l 1,8,9
 682.98046875 1572 682.98046875 1572 554.01953125 1436.5 c 128,-1,10
 425.05859375 1301 425.05859375 1301 338.44921875 1133 c 128,-1,11
 251.840820312 965 251.840820312 965 222.856445312 782 c 0,12,13
 193.713867188 598 193.713867188 598 228.447265625 429 c 128,-1,14
 263.1796875 260 263.1796875 260 350.584960938 120.5 c 128,-1,15
 437.990234375 -19 437.990234375 -19 571.2109375 -106 c 1,16,-1
 502.037109375 -246 l 1,0,1
EndSplineSet
EndChar

StartChar: parenright
Encoding: 41 41 557
Width: 714
VWidth: 2449
GlyphClass: 1
Flags: HW
LayerCount: 2
Fore
SplineSet
-54.962890625 -246 m 1,0,1
 144.083984375 -151 144.083984375 -151 304.42578125 9 c 0,2,3
 465.766601562 169 465.766601562 169 571.602539062 370 c 0,4,5
 677.4375 571 677.4375 571 712.96484375 789 c 0,6,7
 747.334960938 1006 747.334960938 1006 704.377929688 1202 c 0,8,9
 662.580078125 1399 662.580078125 1399 554.129882812 1554 c 0,10,11
 444.678710938 1709 444.678710938 1709 281.409179688 1802 c 1,12,-1
 212.6015625 1658 l 1,13,14
 340.98046875 1572 340.98046875 1572 426.598632812 1437 c 0,15,16
 512.05859375 1301 512.05859375 1301 545.44921875 1133 c 0,17,18
 578.840820312 965 578.840820312 965 549.856445312 782 c 0,19,20
 520.713867188 598 520.713867188 598 432.947265625 429 c 0,21,22
 345.1796875 260 345.1796875 260 213.005859375 120 c 0,23,24
 80.990234375 -19 80.990234375 -19 -78.7890625 -106 c 1,25,-1
 -54.962890625 -246 l 1,0,1
EndSplineSet
EndChar

StartChar: braceleft
Encoding: 123 123 558
Width: 848
VWidth: 2486
GlyphClass: 1
Flags: HW
LayerCount: 2
Fore
SplineSet
609.381835938 -187 m 2,0,1
 453.381835938 -187 453.381835938 -187 351.504882812 -151.5 c 128,-1,2
 249.626953125 -116 249.626953125 -116 213.278320312 -23.5 c 128,-1,3
 179.572265625 62.2724609375 179.572265625 62.2724609375 203.983398438 216.40234375 c 0,0,0
 205.8984375 228.491210938 205.8984375 228.491210938 208.170898438 241 c 2,4,-1
 256.81640625 485 l 1,5,6
 282.31640625 646 282.31640625 646 238.685546875 702 c 128,-1,7
 195.055664062 758 195.055664062 758 102.055664062 758 c 2,8,-1
 58.0556640625 758 l 1,9,-1
 79.75390625 895 l 1,10,-1
 121.75390625 895 l 2,11,12
 221.75390625 895 221.75390625 895 283.915039062 956 c 128,-1,13
 346.077148438 1017 346.077148438 1017 368.092773438 1156 c 2,14,-1
 390.809570312 1331 l 1,15,16
 457.96484375 1755 457.96484375 1755 861.28125 1757 c 2,17,-1
 1000.28125 1757 l 1,18,-1
 978.583007812 1620 l 1,19,-1
 802.583007812 1620 l 2,20,21
 597.583007812 1620 597.583007812 1620 556.244140625 1359 c 1,22,-1
 534.001953125 1187 l 1,23,24
 491.555664062 919 491.555664062 919 284.825195312 826 c 1,25,26
 461.73828125 756 461.73828125 756 411.956054688 448 c 1,27,-1
 372.487304688 243 l 1,28,29
 346.1953125 77 346.1953125 77 400.900390625 12 c 128,-1,30
 455.60546875 -53 455.60546875 -53 598.60546875 -53 c 2,31,-1
 711.60546875 -53 l 1,32,-1
 690.381835938 -187 l 1,33,-1
 609.381835938 -187 l 2,0,1
EndSplineSet
EndChar

StartChar: braceright
Encoding: 125 125 559
Width: 848
VWidth: 2486
GlyphClass: 1
Flags: HW
LayerCount: 2
Fore
SplineSet
-8.6181640625 -187 m 2,0,1
 147.381835938 -187 147.381835938 -187 260.92578125 -152 c 0,2,3
 373.626953125 -116 373.626953125 -116 439.357421875 -23 c 0,4,5
 500.306640625 63.236328125 500.306640625 63.236328125 524.587890625 216.540039062 c 0,0,0
 526.4921875 228.563476562 526.4921875 228.563476562 528.170898438 241 c 2,1,-1
 556.81640625 485 l 1,2,3
 582.31640625 646 582.31640625 646 644.185546875 702 c 0,4,5
 705.055664062 758 705.055664062 758 798.055664062 758 c 2,6,-1
 842.055664062 758 l 1,7,-1
 863.75390625 895 l 1,8,-1
 822.75390625 895 l 2,9,10
 722.75390625 895 722.75390625 895 679.415039062 956 c 0,11,12
 637.077148438 1017 637.077148438 1017 659.092773438 1156 c 2,13,-1
 690.809570312 1331 l 1,14,15
 757.96484375 1755 757.96484375 1755 355.28125 1757 c 2,16,-1
 216.28125 1757 l 1,17,-1
 194.583007812 1620 l 1,18,-1
 370.583007812 1620 l 2,19,20
 575.583007812 1620 575.583007812 1620 534.244140625 1359 c 1,21,-1
 503.001953125 1187 l 1,22,23
 460.555664062 919 460.555664062 919 638.825195312 826 c 1,24,25
 439.73828125 756 439.73828125 756 389.956054688 448 c 1,26,-1
 365.487304688 243 l 1,27,28
 339.1953125 77 339.1953125 77 263.900390625 12 c 0,29,30
 189.763671875 -52 189.763671875 -52 45.60546875 -53 c 2,31,-1
 -68.39453125 -53 l 1,32,-1
 -89.6181640625 -187 l 1,33,-1
 -8.6181640625 -187 l 2,0,1
EndSplineSet
EndChar

StartChar: bracketleft
Encoding: 91 91 560
Width: 698
VWidth: 2516
GlyphClass: 1
Flags: HW
LayerCount: 2
Fore
SplineSet
-84.490234375 -142 m 1,0,-1
 208.99609375 1711 l 1,1,-1
 840.99609375 1711 l 1,2,-1
 818.030273438 1566 l 1,3,-1
 334.030273438 1566 l 1,4,-1
 85.0498046875 -6 l 1,5,-1
 571.049804688 -6 l 1,6,-1
 549.509765625 -142 l 1,7,-1
 -84.490234375 -142 l 1,0,-1
EndSplineSet
EndChar

StartChar: bracketright
Encoding: 93 93 561
Width: 699
VWidth: 2516
GlyphClass: 1
Flags: HW
LayerCount: 2
Fore
SplineSet
550.509765625 -142 m 1,0,-1
 843.99609375 1711 l 1,1,-1
 210.99609375 1711 l 1,2,-1
 188.030273438 1566 l 1,3,-1
 672.030273438 1566 l 1,4,-1
 423.049804688 -6 l 1,5,-1
 -62.9501953125 -6 l 1,6,-1
 -84.490234375 -142 l 1,7,-1
 550.509765625 -142 l 1,0,-1
EndSplineSet
EndChar

StartChar: hyphen
Encoding: 45 45 562
Width: 679
VWidth: 2441
GlyphClass: 1
Flags: HW
LayerCount: 2
Fore
SplineSet
47.443359375 691 m 1,0,-1
 72.626953125 850 l 1,1,-1
 687.626953125 850 l 1,2,-1
 662.443359375 691 l 1,3,-1
 47.443359375 691 l 1,0,-1
EndSplineSet
EndChar

StartChar: endash
Encoding: 8211 8211 564
Width: 856
VWidth: 2441
GlyphClass: 1
Flags: HW
LayerCount: 2
Fore
SplineSet
47.443359375 691 m 1,0,-1
 72.626953125 850 l 1,1,-1
 864.626953125 850 l 1,2,-1
 839.443359375 691 l 1,3,-1
 47.443359375 691 l 1,0,-1
EndSplineSet
EndChar

StartChar: emdash
Encoding: 8212 8212 565
Width: 876
VWidth: 2441
GlyphClass: 1
Flags: HW
LayerCount: 2
Fore
SplineSet
17.443359375 691 m 1,0,-1
 42.626953125 850 l 1,1,-1
 900.626953125 850 l 1,2,-1
 875.443359375 691 l 1,3,-1
 17.443359375 691 l 1,0,-1
EndSplineSet
EndChar

StartChar: underscore
Encoding: 95 95 569
Width: 922
VWidth: 2441
GlyphClass: 1
Flags: HW
LayerCount: 2
Fore
SplineSet
-93.04296875 -196 m 1,0,-1
 -69.7607421875 -49 l 1,1,-1
 788.239257812 -49 l 1,2,-1
 764.95703125 -196 l 1,3,-1
 -93.04296875 -196 l 1,0,-1
EndSplineSet
EndChar

StartChar: quotedblleft
Encoding: 8220 8220 572
Width: 831
VWidth: 2441
GlyphClass: 1
Flags: HW
LayerCount: 2
Fore
SplineSet
421.762695312 1558 m 1,0,-1
 489.833984375 1489 l 1,1,2
 416.856445312 1426 416.856445312 1426 363.373046875 1353.5 c 128,-1,3
 309.890625 1281 309.890625 1281 302.288085938 1233 c 0,4,5
 296.744140625 1198 296.744140625 1198 322.28515625 1173 c 128,-1,6
 347.825195312 1148 347.825195312 1148 371.311523438 1119.5 c 128,-1,7
 394.797851562 1091 394.797851562 1091 388.303710938 1050 c 0,8,9
 378.642578125 989 378.642578125 989 335.727539062 948.5 c 128,-1,10
 292.813476562 908 292.813476562 908 232.813476562 908 c 0,11,12
 174.813476562 908 174.813476562 908 136.866210938 962 c 128,-1,13
 98.9189453125 1016 98.9189453125 1016 112.856445312 1104 c 0,14,15
 142.6328125 1292 142.6328125 1292 421.762695312 1558 c 1,0,-1
873.762695312 1558 m 1,16,-1
 940.833984375 1489 l 1,17,18
 867.856445312 1426 867.856445312 1426 814.873046875 1353.5 c 128,-1,19
 761.890625 1281 761.890625 1281 754.288085938 1233 c 0,20,21
 748.744140625 1198 748.744140625 1198 773.78515625 1173 c 128,-1,22
 798.825195312 1148 798.825195312 1148 822.811523438 1119.5 c 128,-1,23
 846.797851562 1091 846.797851562 1091 840.303710938 1050 c 0,24,25
 830.642578125 989 830.642578125 989 787.227539062 948.5 c 128,-1,26
 743.813476562 908 743.813476562 908 684.813476562 908 c 0,27,28
 626.813476562 908 626.813476562 908 588.866210938 962 c 128,-1,29
 550.918945312 1016 550.918945312 1016 564.856445312 1104 c 0,30,31
 594.6328125 1292 594.6328125 1292 873.762695312 1558 c 1,16,-1
EndSplineSet
EndChar

StartChar: quoteleft
Encoding: 8216 8216 574
Width: 379
VWidth: 2441
GlyphClass: 1
Flags: HW
LayerCount: 2
Fore
SplineSet
420.762695312 1558 m 1,0,-1
 488.833984375 1489 l 1,1,2
 415.856445312 1426 415.856445312 1426 362.373046875 1353.5 c 128,-1,3
 308.890625 1281 308.890625 1281 301.288085938 1233 c 0,4,5
 295.744140625 1198 295.744140625 1198 321.28515625 1173 c 128,-1,6
 346.825195312 1148 346.825195312 1148 370.311523438 1119.5 c 128,-1,7
 393.797851562 1091 393.797851562 1091 387.303710938 1050 c 0,8,9
 377.642578125 989 377.642578125 989 334.727539062 948.5 c 128,-1,10
 291.813476562 908 291.813476562 908 232.813476562 908 c 0,11,12
 174.813476562 908 174.813476562 908 136.866210938 962 c 128,-1,13
 98.9150390625 1016.00488281 98.9150390625 1016.00488281 113.102539062 1105.58105469 c 0,0,0
 142.805664062 1293.1171875 142.805664062 1293.1171875 420.762695312 1558 c 1,0,-1
EndSplineSet
EndChar

StartChar: quoteright
Encoding: 8217 8217 575
Width: 376
VWidth: 2441
GlyphClass: 1
Flags: HW
LayerCount: 2
Fore
SplineSet
157.813476562 908 m 1,0,-1
 93.05859375 979 l 1,1,2
 164.036132812 1042 164.036132812 1042 216.782226562 1113 c 128,-1,3
 269.52734375 1184 269.52734375 1184 277.288085938 1233 c 0,4,5
 282.831054688 1268 282.831054688 1268 258.791015625 1293 c 128,-1,6
 234.750976562 1318 234.750976562 1318 210.185546875 1346 c 128,-1,7
 185.620117188 1374 185.620117188 1374 192.747070312 1419 c 0,8,9
 201.93359375 1477 201.93359375 1477 244.848632812 1517.5 c 128,-1,10
 287.762695312 1558 287.762695312 1558 345.762695312 1558 c 128,-1,11
 403.762695312 1558 403.762695312 1558 441.7890625 1504.5 c 128,-1,12
 479.819335938 1450.99511719 479.819335938 1450.99511719 465.944335938 1363.39355469 c 0,13,14
 435.770507812 1172.8828125 435.770507812 1172.8828125 157.813476562 908 c 1,0,-1
EndSplineSet
EndChar

StartChar: guillemotleft
Encoding: 171 171 576
Width: 901
VWidth: 2441
GlyphClass: 1
Flags: HW
LayerCount: 2
Fore
SplineSet
705.599609375 149 m 1,0,-1
 427.853515625 561 l 1,1,-1
 436.723632812 617 l 1,2,-1
 824.583007812 976 l 1,3,-1
 899.745117188 876 l 1,4,-1
 588.288085938 589 l 1,5,-1
 814.12109375 247 l 1,6,-1
 705.599609375 149 l 1,0,-1
310.599609375 149 m 1,7,-1
 26.853515625 561 l 1,8,-1
 35.7236328125 617 l 1,9,-1
 426.583007812 976 l 1,10,-1
 500.745117188 876 l 1,11,-1
 190.288085938 589 l 1,12,-1
 419.12109375 247 l 1,13,-1
 310.599609375 149 l 1,7,-1
EndSplineSet
EndChar

StartChar: guilsinglleft
Encoding: 8249 8249 578
Width: 504
VWidth: 2441
GlyphClass: 1
Flags: HW
LayerCount: 2
Fore
SplineSet
308.599609375 149 m 1,0,-1
 26.853515625 561 l 1,1,-1
 35.7236328125 617 l 1,2,-1
 425.583007812 976 l 1,3,-1
 499.745117188 876 l 1,4,-1
 187.288085938 589 l 1,5,-1
 417.12109375 247 l 1,6,-1
 308.599609375 149 l 1,0,-1
EndSplineSet
EndChar

StartChar: guilsinglright
Encoding: 8250 8250 579
Width: 504
VWidth: 2441
GlyphClass: 1
Flags: HW
LayerCount: 2
Fore
SplineSet
54.599609375 149 m 1,0,-1
 -22.87890625 247 l 1,1,-1
 312.288085938 589 l 1,2,-1
 90.7451171875 876 l 1,3,-1
 197.583007812 976 l 1,4,-1
 475.723632812 617 l 1,5,-1
 466.853515625 561 l 1,6,-1
 54.599609375 149 l 1,0,-1
EndSplineSet
EndChar

StartChar: quotedbl
Encoding: 34 34 580
Width: 581
VWidth: 2441
GlyphClass: 1
Flags: HW
LayerCount: 2
Fore
SplineSet
195.216796875 1624 m 1,0,-1
 375.216796875 1624 l 1,1,2
 351.93359375 1477 351.93359375 1477 335.99609375 1389 c 0,3,4
 320.05859375 1301 320.05859375 1301 304.5546875 1241 c 0,5,6
 290.051757812 1181 290.051757812 1181 275.499023438 1127 c 0,7,8
 259.788085938 1072 259.788085938 1072 239.434570312 994 c 1,9,-1
 131.434570312 994 l 1,10,11
 136.946289062 1073 136.946289062 1073 137.499023438 1127 c 0,12,13
 139.209960938 1182 139.209960938 1182 144.396484375 1240 c 0,14,15
 148.583007812 1298 148.583007812 1298 159.837890625 1388 c 0,16,17
 171.93359375 1477 171.93359375 1477 195.216796875 1624 c 1,0,-1
531.216796875 1624 m 1,18,-1
 712.216796875 1624 l 1,19,20
 688.93359375 1477 688.93359375 1477 672.99609375 1389 c 0,21,22
 657.05859375 1301 657.05859375 1301 642.5546875 1241 c 0,23,24
 628.051757812 1181 628.051757812 1181 611.499023438 1127 c 0,25,26
 595.788085938 1072 595.788085938 1072 575.434570312 994 c 1,27,-1
 468.434570312 994 l 1,28,29
 473.946289062 1073 473.946289062 1073 475.499023438 1127 c 0,30,31
 477.209960938 1182 477.209960938 1182 481.396484375 1240 c 0,32,33
 485.583007812 1298 485.583007812 1298 496.837890625 1388 c 0,34,35
 507.93359375 1477 507.93359375 1477 531.216796875 1624 c 1,18,-1
EndSplineSet
Substitution2: "'ss03' Style Set 3 in Latin lookup 37 subtable" quotedbl.ss03
Substitution2: "'aalt' Access All Alternates in Latin lookup 0 subtable" quotedbl.ss03
EndChar

